SplineFontDB: 3.2
FontName: StandardSymbolsPS
FullName: Standard Symbols PS Regular
FamilyName: Standard Symbols PS
Weight: Book
Copyright: URW Software, Copyright 2015 by URW
Version: 2.00
ItalicAngle: 0
UnderlinePosition: -252
UnderlineWidth: 46
Ascent: 778
Descent: 222
InvalidEm: 0
sfntRevision: 0x00020000
LayerCount: 2
Layer: 0 1 "Hinten" 1
Layer: 1 1 "Vorne" 0
XUID: [1021 367 390255522 6844617]
StyleMap: 0x0040
FSType: 4
OS2Version: 4
OS2_WeightWidthSlopeOnly: 0
OS2_UseTypoMetrics: 0
CreationTime: 1424102035
ModificationTime: 1775303624
PfmFamily: 81
TTFWeight: 400
TTFWidth: 5
LineGap: 0
VLineGap: 0
Panose: 5 5 1 2 1 7 6 2 5 7
OS2TypoAscent: 778
OS2TypoAOffset: 0
OS2TypoDescent: -222
OS2TypoDOffset: 0
OS2TypoLinegap: 0
OS2WinAscent: 1010
OS2WinAOffset: 0
OS2WinDescent: 293
OS2WinDOffset: 0
HheadAscent: 778
HheadAOffset: 0
HheadDescent: -222
HheadDOffset: 0
OS2SubXSize: 300
OS2SubYSize: 404
OS2SubXOff: 0
OS2SubYOff: 0
OS2SupXSize: 300
OS2SupYSize: 404
OS2SupXOff: 0
OS2SupYOff: 269
OS2StrikeYSize: 46
OS2StrikeYPos: 227
OS2CapHeight: 673
OS2XHeight: 500
OS2Vendor: 'URW '
OS2CodePages: 00000001.00000000
OS2UnicodeRanges: 00000003.00000000.00000000.00000000
MarkAttachClasses: 1
DEI: 91125
TtTable: prep
PUSHW_1
 41
CALL
SVTCA[x-axis]
PUSHW_3
 4
 50
 43
CALL
SVTCA[x-axis]
PUSHW_8
 51
 100
 82
 64
 51
 31
 0
 49
CALL
PUSHW_8
 52
 63
 49
 38
 27
 17
 0
 49
CALL
PUSHW_8
 53
 54
 49
 38
 27
 17
 0
 49
CALL
SVTCA[y-axis]
PUSHW_8
 48
 212
 174
 135
 97
 58
 0
 49
CALL
PUSHW_8
 49
 135
 110
 86
 51
 31
 0
 49
CALL
PUSHW_8
 50
 100
 82
 64
 51
 31
 0
 49
CALL
SVTCA[y-axis]
PUSHW_3
 54
 3
 48
CALL
PUSHW_1
 47
DUP
RCVT
RDTG
ROUND[Black]
RTG
WCVTP
PUSHW_1
 31
CALL
SVTCA[x-axis]
PUSHW_3
 4
 37
 33
CALL
SVTCA[x-axis]
PUSHW_8
 39
 100
 82
 64
 51
 31
 0
 39
CALL
PUSHW_8
 40
 54
 45
 35
 25
 15
 0
 39
CALL
SVTCA[y-axis]
PUSHW_8
 36
 212
 174
 135
 97
 58
 0
 39
CALL
PUSHW_8
 37
 135
 110
 86
 51
 31
 0
 39
CALL
PUSHW_8
 38
 100
 82
 64
 51
 31
 0
 39
CALL
SVTCA[y-axis]
PUSHW_3
 41

StartChar: .notdef
Encoding: 65536 -1 0
Width: 364
Flags: W
LayerCount: 2
Fore
SplineSet
33 0 m 1,0,-1
 33 666 l 1,1,-1
 298 666 l 1,2,-1
 298 0 l 1,3,-1
 33 0 l 1,0,-1
66 33 m 1,4,-1
 265 33 l 1,5,-1
 265 633 l 1,6,-1
 66 633 l 1,7,-1
 66 33 l 1,4,-1
EndSplineSet
EndChar

StartChar: exclam
Encoding: 33 33 2
Width: 333
GlyphClass: 2
Flags: W
LayerCount: 2
Fore
SplineSet
134 543 m 2,0,1
 128 600 128 600 128 615 c 0,2,3
 128 686 128 686 183 686 c 0,4,5
 209 686 209 686 224 668.5 c 128,-1,6
 239 651 239 651 239 620 c 0,7,8
 239 600 239 600 237 588 c 2,9,-1
 196 186 l 1,10,-1
 173 186 l 1,11,-1
 134 543 l 2,0,1
224 83 m 0,12,13
 240 66 240 66 240 43 c 128,-1,14
 240 20 240 20 223.5 3.5 c 128,-1,15
 207 -13 207 -13 184 -13 c 128,-1,16
 161 -13 161 -13 144.5 3.5 c 128,-1,17
 128 20 128 20 128 43 c 128,-1,18
 128 66 128 66 144.5 83 c 128,-1,19
 161 100 161 100 184 100 c 128,-1,20
 207 100 207 100 224 83 c 0,12,13
EndSplineSet
EndChar

StartChar: quotedbl
Encoding: 34 34 3
Width: 713
GlyphClass: 2
Flags: W
LayerCount: 2
Fore
SplineSet
391 0 m 1,0,-1
 334 0 l 1,1,-1
 31 673 l 1,2,-1
 83 673 l 1,3,-1
 168 479 l 1,4,-1
 546 479 l 1,5,-1
 628 673 l 1,6,-1
 681 673 l 1,7,-1
 391 0 l 1,0,-1
363 65 m 1,8,-1
 525 430 l 1,9,-1
 191 430 l 1,10,-1
 363 65 l 1,8,-1
EndSplineSet
EndChar

StartChar: numbersign
Encoding: 35 35 4
Width: 500
GlyphClass: 2
Flags: W
LayerCount: 2
Fore
SplineSet
458 205 m 1,0,-1
 356 205 l 1,1,-1
 326 0 l 1,2,-1
 271 0 l 1,3,-1
 301 205 l 1,4,-1
 175 205 l 1,5,-1
 146 0 l 1,6,-1
 90 0 l 1,7,-1
 121 205 l 1,8,-1
 20 205 l 1,9,-1
 20 257 l 1,10,-1
 129 257 l 1,11,-1
 146 385 l 1,12,-1
 45 385 l 1,13,-1
 45 438 l 1,14,-1
 156 438 l 1,15,-1
 185 630 l 1,16,-1
 238 630 l 1,17,-1
 210 438 l 1,18,-1
 336 438 l 1,19,-1
 364 630 l 1,20,-1
 418 630 l 1,21,-1
 390 438 l 1,22,-1
 481 438 l 1,23,-1
 481 386 l 1,24,-1
 382 386 l 1,25,-1
 364 257 l 1,26,-1
 458 257 l 1,27,-1
 458 205 l 1,0,-1
202 386 m 1,28,-1
 183 257 l 1,29,-1
 309 257 l 1,30,-1
 328 386 l 1,31,-1
 202 386 l 1,28,-1
EndSplineSet
EndChar

StartChar: dollar
Encoding: 36 36 5
Width: 549
GlyphClass: 2
Flags: W
LayerCount: 2
Fore
SplineSet
478 0 m 1,0,-1
 25 0 l 1,1,-1
 25 49 l 1,2,-1
 423 49 l 1,3,-1
 423 328 l 1,4,-1
 70 328 l 1,5,-1
 70 377 l 1,6,-1
 423 377 l 1,7,-1
 423 622 l 1,8,-1
 25 622 l 1,9,-1
 25 673 l 1,10,-1
 478 673 l 1,11,-1
 478 0 l 1,0,-1
EndSplineSet
EndChar

StartChar: percent
Encoding: 37 37 6
Width: 833
GlyphClass: 2
Flags: W
LayerCount: 2
Fore
SplineSet
177 0 m 1,0,-1
 560 603 l 1,1,2
 507 576 507 576 457 576 c 0,3,4
 417 576 417 576 387 587 c 1,5,6
 392 566 392 566 392 548 c 0,7,8
 392 449 392 449 330 374 c 128,-1,9
 268 299 268 299 187 299 c 0,10,11
 131 299 131 299 97 334 c 128,-1,12
 63 369 63 369 63 427 c 0,13,14
 63 518 63 518 131.5 593.5 c 128,-1,15
 200 669 200 669 282 669 c 0,16,17
 305 669 305 669 322 662 c 128,-1,18
 339 655 339 655 371 633 c 0,19,20
 418 602 418 602 456 602 c 0,21,22
 502 602 502 602 540.5 621.5 c 128,-1,23
 579 641 579 641 597 673 c 1,24,-1
 650 673 l 1,25,-1
 231 0 l 1,26,-1
 177 0 l 1,0,-1
348 600 m 2,27,28
 319 611 319 611 297 633 c 0,29,30
 292 635 292 635 284 635 c 0,31,32
 248 635 248 635 203 569 c 0,33,34
 140 474 140 474 140 393 c 0,35,36
 140 367 140 367 157 351 c 128,-1,37
 174 335 174 335 202 335 c 0,38,39
 258 335 258 335 308 396 c 0,40,41
 364 462 364 462 364 556 c 0,42,43
 364 584 364 584 359 595 c 1,44,-1
 348 600 l 2,27,28
657 360 m 0,45,46
 709 360 709 360 740 331 c 128,-1,47
 771 302 771 302 771 254 c 0,48,49
 771 152 771 152 690 58 c 0,50,51
 634 -7 634 -7 557 -7 c 0,52,53
 502 -7 502 -7 467.5 27 c 128,-1,54
 433 61 433 61 433 114 c 0,55,56
 433 207 433 207 502.5 283.5 c 128,-1,57
 572 360 572 360 657 360 c 0,45,46
669 324 m 0,58,59
 616 324 616 324 563 246 c 128,-1,60
 510 168 510 168 510 89 c 0,61,62
 510 62 510 62 524.5 45.5 c 128,-1,63
 539 29 539 29 564 29 c 0,64,65
 623 29 623 29 669 78 c 0,66,67
 701 113 701 113 720 159.5 c 128,-1,68
 739 206 739 206 739 249 c 0,69,70
 739 281 739 281 719 302.5 c 128,-1,71
 699 324 699 324 669 324 c 0,58,59
EndSplineSet
EndChar

StartChar: ampersand
Encoding: 38 38 7
Width: 778
GlyphClass: 2
Flags: W
LayerCount: 2
Fore
SplineSet
714 426 m 1,0,-1
 714 405 l 1,1,2
 674 400 674 400 654 385.5 c 128,-1,3
 634 371 634 371 611 330 c 2,4,-1
 562 247 l 2,5,6
 528 192 528 192 493 150 c 1,7,8
 571 58 571 58 648 58 c 0,9,10
 693 58 693 58 734 112 c 1,11,-1
 750 100 l 1,12,13
 716 40 716 40 681.5 13.5 c 128,-1,14
 647 -13 647 -13 603 -13 c 0,15,16
 510 -13 510 -13 430 78 c 1,17,18
 339 -13 339 -13 219 -13 c 0,19,20
 139 -13 139 -13 90 30.5 c 128,-1,21
 41 74 41 74 41 146 c 0,22,23
 41 225 41 225 105 284 c 0,24,25
 139 316 139 316 231 366 c 2,26,-1
 241 371 l 1,27,28
 204 456 204 456 204 522 c 0,29,30
 204 583 204 583 251.5 629 c 128,-1,31
 299 675 299 675 362 675 c 0,32,33
 419 675 419 675 456.5 641 c 128,-1,34
 494 607 494 607 494 555 c 0,35,36
 494 480 494 480 417 425 c 0,37,38
 395 408 395 408 340 381 c 1,39,40
 401 254 401 254 469 179 c 1,41,42
 507 223 507 223 533.5 275.5 c 128,-1,43
 560 328 560 328 560 359 c 0,44,45
 560 382 560 382 545 393 c 128,-1,46
 530 404 530 404 496 405 c 1,47,-1
 496 426 l 1,48,-1
 714 426 l 1,0,-1
324 413 m 1,49,50
 366 431 366 431 387 450 c 0,51,52
 439 496 439 496 439 555 c 0,53,54
 439 593 439 593 416.5 617.5 c 128,-1,55
 394 642 394 642 359 642 c 0,56,57
 325 642 325 642 305 617.5 c 128,-1,58
 285 593 285 593 285 552 c 0,59,60
 285 491 285 491 324 413 c 1,49,50
257 339 m 1,61,62
 201 313 201 313 169.5 272 c 128,-1,63
 138 231 138 231 138 182 c 0,64,65
 138 124 138 124 177 81.5 c 128,-1,66
 216 39 216 39 270 39 c 0,67,68
 342 39 342 39 404 104 c 1,69,70
 328 199 328 199 262 328 c 1,71,-1
 257 339 l 1,61,62
EndSplineSet
EndChar

StartChar: quotesingle
Encoding: 39 39 8
Width: 439
GlyphClass: 2
Flags: W
LayerCount: 2
Fore
SplineSet
48 43 m 1,0,1
 84 34 84 34 121 34 c 0,2,3
 165 34 165 34 207 51 c 128,-1,4
 249 68 249 68 275 96 c 0,5,6
 319 146 319 146 330 221 c 1,7,-1
 112 221 l 1,8,-1
 112 269 l 1,9,-1
 330 269 l 1,10,11
 318 350 318 350 269 400 c 0,12,13
 212 457 212 457 115 457 c 0,14,15
 111 457 111 457 106.5 456.5 c 128,-1,16
 102 456 102 456 94 455.5 c 128,-1,17
 86 455 86 455 79 455 c 1,18,-1
 79 492 l 1,19,20
 122 503 122 503 149 503 c 0,21,22
 254 503 254 503 334 425 c 128,-1,23
 414 347 414 347 414 245 c 0,24,25
 414 140 414 140 328 59 c 0,26,27
 250 -13 250 -13 144 -13 c 0,28,29
 96 -13 96 -13 48 6 c 1,30,-1
 48 43 l 1,0,1
EndSplineSet
EndChar

StartChar: parenleft
Encoding: 40 40 9
Width: 333
GlyphClass: 2
Flags: W
LayerCount: 2
Fore
SplineSet
287 -172 m 1,0,1
 217 -135 217 -135 178 -94 c 0,2,3
 118 -30 118 -30 85.5 60.5 c 128,-1,4
 53 151 53 151 53 254 c 0,5,6
 53 364 53 364 90.5 460 c 128,-1,7
 128 556 128 556 195 618 c 0,8,9
 230 650 230 650 287 680 c 1,10,-1
 300 663 l 1,11,12
 244 623 244 623 217 580 c 0,13,14
 145 467 145 467 145 254 c 0,15,16
 145 20 145 20 230 -91 c 0,17,18
 257 -126 257 -126 300 -155 c 1,19,-1
 287 -172 l 1,0,1
EndSplineSet
EndChar

StartChar: parenright
Encoding: 41 41 10
Width: 333
GlyphClass: 2
Flags: W
LayerCount: 2
Fore
SplineSet
30 -155 m 1,0,1
 82 -120 82 -120 113 -72 c 0,2,3
 185 41 185 41 185 254 c 0,4,5
 185 488 185 488 100 599 c 0,6,7
 75 632 75 632 30 663 c 1,8,-1
 43 680 l 1,9,10
 108 646 108 646 152 601 c 0,11,12
 212 538 212 538 244.5 448 c 128,-1,13
 277 358 277 358 277 254 c 0,14,15
 277 144 277 144 239.5 48 c 128,-1,16
 202 -48 202 -48 135 -110 c 0,17,18
 100 -142 100 -142 43 -172 c 1,19,-1
 30 -155 l 1,0,1
EndSplineSet
EndChar

StartChar: asterisk
Encoding: 42 42 11
Width: 500
GlyphClass: 2
Flags: W
LayerCount: 2
Fore
SplineSet
246 546 m 0,0,1
 262 546 262 546 273 536 c 128,-1,2
 284 526 284 526 284 511 c 128,-1,3
 284 496 284 496 275 469 c 2,4,-1
 269 450 l 2,5,6
 255 407 255 407 255 385 c 0,7,8
 255 364 255 364 267 364 c 0,9,10
 289 364 289 364 322 402 c 2,11,-1
 332 413 l 2,12,13
 339 420 339 420 346 428 c 0,14,15
 375 461 375 461 395 461 c 0,16,17
 408 461 408 461 417.5 448.5 c 128,-1,18
 427 436 427 436 427 420 c 0,19,20
 427 403 427 403 415 394 c 128,-1,21
 403 385 403 385 371 378 c 0,22,23
 359 375 359 375 352 373 c 2,24,-1
 338 370 l 2,25,26
 278 356 278 356 278 336 c 128,-1,27
 278 316 278 316 352 300 c 0,28,29
 396 289 396 289 402 286 c 0,30,31
 427 276 427 276 427 253 c 0,32,33
 427 237 427 237 417 224 c 128,-1,34
 407 211 407 211 395 211 c 0,35,36
 376 211 376 211 346 245 c 2,37,-1
 327 266 l 2,38,39
 286 310 286 310 267 310 c 0,40,41
 255 310 255 310 255 288 c 128,-1,42
 255 266 255 266 269 223 c 2,43,-1
 275 204 l 2,44,45
 284 177 284 177 284 162 c 128,-1,46
 284 147 284 147 273 137 c 128,-1,47
 262 127 262 127 246 127 c 128,-1,48
 230 127 230 127 219 137 c 128,-1,49
 208 147 208 147 208 162 c 0,50,51
 208 176 208 176 217 204 c 2,52,-1
 226 231 l 2,53,54
 236 267 236 267 236 288 c 0,55,56
 236 310 236 310 225 310 c 0,57,58
 206 310 206 310 165 266 c 2,59,-1
 146 245 l 2,60,61
 115 211 115 211 97 211 c 0,62,63
 84 211 84 211 74.5 224 c 128,-1,64
 65 237 65 237 65 253 c 0,65,66
 65 276 65 276 93 288 c 0,67,68
 114 294 114 294 140 300 c 0,69,70
 213 316 213 316 213 337 c 0,71,72
 213 356 213 356 147 372 c 1,73,-1
 140 373 l 2,74,75
 139 373 139 373 132.5 375 c 128,-1,76
 126 377 126 377 121 378 c 0,77,78
 89 385 89 385 77 394 c 128,-1,79
 65 403 65 403 65 420 c 0,80,81
 65 436 65 436 74.5 448.5 c 128,-1,82
 84 461 84 461 97 461 c 0,83,84
 116 461 116 461 146 428 c 0,85,86
 148 425 148 425 151 422 c 128,-1,87
 154 419 154 419 156 416.5 c 128,-1,88
 158 414 158 414 159 413 c 2,89,-1
 170 402 l 2,90,91
 203 364 203 364 225 364 c 0,92,93
 236 364 236 364 236 385 c 0,94,95
 236 408 236 408 226 442 c 2,96,-1
 217 469 l 2,97,98
 208 499 208 499 208 510 c 0,99,100
 208 526 208 526 218.5 536 c 128,-1,101
 229 546 229 546 246 546 c 0,0,1
EndSplineSet
EndChar

StartChar: plus
Encoding: 43 43 12
Width: 549
GlyphClass: 2
Flags: W
LayerCount: 2
Fore
SplineSet
302 294 m 1,0,-1
 539 294 l 1,1,-1
 539 239 l 1,2,-1
 302 239 l 1,3,-1
 302 0 l 1,4,-1
 247 0 l 1,5,-1
 247 239 l 1,6,-1
 10 239 l 1,7,-1
 10 294 l 1,8,-1
 247 294 l 1,9,-1
 247 533 l 1,10,-1
 302 533 l 1,11,-1
 302 294 l 1,0,-1
EndSplineSet
EndChar

StartChar: comma
Encoding: 44 44 13
Width: 250
GlyphClass: 2
Flags: W
LayerCount: 2
Fore
SplineSet
146 -8 m 1,0,1
 127 -13 127 -13 116 -13 c 0,2,3
 94 -13 94 -13 78.5 4 c 128,-1,4
 63 21 63 21 63 45 c 128,-1,5
 63 69 63 69 78.5 85.5 c 128,-1,6
 94 102 94 102 117 102 c 0,7,8
 150 102 150 102 172 77 c 128,-1,9
 194 52 194 52 194 15 c 0,10,11
 194 -47 194 -47 139 -89 c 0,12,13
 103 -115 103 -115 56 -120 c 1,14,-1
 56 -104 l 1,15,16
 96 -93 96 -93 119 -69 c 0,17,18
 145 -41 145 -41 146 -8 c 1,0,1
EndSplineSet
EndChar

StartChar: hyphen
Encoding: 45 45 14
Width: 549
GlyphClass: 2
Flags: W
LayerCount: 2
Fore
SplineSet
535 294 m 1,0,-1
 535 239 l 1,1,-1
 11 239 l 1,2,-1
 11 294 l 1,3,-1
 535 294 l 1,0,-1
EndSplineSet
EndChar

StartChar: period
Encoding: 46 46 15
Width: 250
GlyphClass: 2
Flags: W
LayerCount: 2
Fore
SplineSet
165 83 m 0,0,1
 181 66 181 66 181 43 c 128,-1,2
 181 20 181 20 164.5 3.5 c 128,-1,3
 148 -13 148 -13 125 -13 c 128,-1,4
 102 -13 102 -13 85.5 3.5 c 128,-1,5
 69 20 69 20 69 43 c 128,-1,6
 69 66 69 66 85.5 83 c 128,-1,7
 102 100 102 100 125 100 c 128,-1,8
 148 100 148 100 165 83 c 0,0,1
EndSplineSet
EndChar

StartChar: slash
Encoding: 47 47 16
Width: 278
GlyphClass: 2
Flags: W
LayerCount: 2
Fore
SplineSet
56 0 m 1,0,-1
 0 0 l 1,1,-1
 198 673 l 1,2,-1
 254 673 l 1,3,-1
 56 0 l 1,0,-1
EndSplineSet
EndChar

StartChar: zero
Encoding: 48 48 17
Width: 500
GlyphClass: 2
Flags: W
LayerCount: 2
Fore
SplineSet
251 686 m 0,0,1
 351 686 351 686 411 590 c 128,-1,2
 471 494 471 494 471 336 c 0,3,4
 471 176 471 176 410.5 81.5 c 128,-1,5
 350 -13 350 -13 247 -13 c 0,6,7
 145 -13 145 -13 84 82 c 128,-1,8
 23 177 23 177 23 337 c 0,9,10
 23 458 23 458 62 549 c 0,11,12
 121 686 121 686 251 686 c 0,0,1
249 650 m 0,13,14
 173 650 173 650 143 559 c 0,15,16
 119 487 119 487 119 339 c 0,17,18
 119 175 119 175 149 101 c 0,19,20
 181 28 181 28 248 28 c 0,21,22
 314 28 314 28 344.5 102.5 c 128,-1,23
 375 177 375 177 375 339 c 128,-1,24
 375 501 375 501 345 575.5 c 128,-1,25
 315 650 315 650 249 650 c 0,13,14
EndSplineSet
EndChar

StartChar: one
Encoding: 49 49 18
Width: 500
GlyphClass: 2
Flags: W
LayerCount: 2
Fore
SplineSet
390 0 m 1,0,-1
 117 0 l 1,1,-1
 117 26 l 1,2,3
 179 30 179 30 196 50 c 128,-1,4
 213 70 213 70 213 142 c 2,5,-1
 213 484 l 1,6,-1
 212 522 l 2,7,8
 211 578 211 578 179 578 c 0,9,10
 162 578 162 578 117 559 c 1,11,-1
 117 588 l 1,12,13
 232 645 232 645 277 673 c 1,14,-1
 295 673 l 1,15,-1
 295 142 l 2,16,17
 295 69 295 69 311 50 c 128,-1,18
 327 31 327 31 390 26 c 1,19,-1
 390 0 l 1,0,-1
EndSplineSet
EndChar

StartChar: two
Encoding: 50 50 19
Width: 500
GlyphClass: 2
Flags: W
LayerCount: 2
Fore
SplineSet
25 14 m 1,0,-1
 124 115 l 2,1,2
 322 315 322 315 322 464 c 0,3,4
 322 523 322 523 282.5 567 c 128,-1,5
 243 611 243 611 191 611 c 0,6,7
 133 611 133 611 95 565 c 0,8,9
 76 542 76 542 62 500 c 1,10,-1
 45 500 l 1,11,12
 58 582 58 582 95 625 c 0,13,14
 146 686 146 686 223 686 c 0,15,16
 299 686 299 686 349 634.5 c 128,-1,17
 399 583 399 583 399 504 c 0,18,19
 399 391 399 391 283 245 c 0,20,21
 233 181 233 181 122 73 c 1,22,-1
 314 73 l 2,23,24
 379 73 379 73 403 83.5 c 128,-1,25
 427 94 427 94 450 134 c 1,26,-1
 475 134 l 1,27,-1
 421 0 l 1,28,-1
 25 0 l 1,29,-1
 25 14 l 1,0,-1
EndSplineSet
EndChar

StartChar: three
Encoding: 51 51 20
Width: 500
GlyphClass: 2
Flags: W
LayerCount: 2
Fore
SplineSet
199 361 m 2,0,1
 223 361 223 361 252.5 374.5 c 128,-1,2
 282 388 282 388 302 409 c 0,3,4
 343 452 343 452 343 507 c 0,5,6
 343 556 343 556 312.5 588 c 128,-1,7
 282 620 282 620 235 620 c 0,8,9
 195 620 195 620 167 601 c 128,-1,10
 139 582 139 582 111 536 c 1,11,-1
 96 545 l 1,12,13
 122 619 122 619 163 652.5 c 128,-1,14
 204 686 204 686 268 686 c 0,15,16
 333 686 333 686 376.5 645.5 c 128,-1,17
 420 605 420 605 420 544 c 0,18,19
 420 499 420 499 398 462.5 c 128,-1,20
 376 426 376 426 324 386 c 1,21,22
 382 356 382 356 408.5 316 c 128,-1,23
 435 276 435 276 435 220 c 0,24,25
 435 123 435 123 362 55 c 128,-1,26
 289 -13 289 -13 186 -13 c 0,27,28
 128 -13 128 -13 83.5 9.5 c 128,-1,29
 39 32 39 32 39 62 c 0,30,31
 39 77 39 77 49.5 88 c 128,-1,32
 60 99 60 99 75 99 c 0,33,34
 94 99 94 99 134 71 c 0,35,36
 186 33 186 33 238 33 c 0,37,38
 291 33 291 33 324.5 70.5 c 128,-1,39
 358 108 358 108 358 167 c 0,40,41
 358 238 358 238 314 287 c 0,42,43
 272 336 272 336 197 336 c 2,44,-1
 188 336 l 1,45,-1
 188 361 l 1,46,-1
 199 361 l 2,0,1
EndSplineSet
EndChar

StartChar: four
Encoding: 52 52 21
Width: 500
GlyphClass: 2
Flags: W
LayerCount: 2
Fore
SplineSet
288 183 m 1,0,-1
 16 183 l 1,1,-1
 16 247 l 1,2,-1
 319 680 l 1,3,-1
 370 680 l 1,4,-1
 370 247 l 1,5,-1
 469 247 l 1,6,-1
 469 183 l 1,7,-1
 370 183 l 1,8,-1
 370 0 l 1,9,-1
 288 0 l 1,10,-1
 288 183 l 1,0,-1
70 247 m 1,11,-1
 288 247 l 1,12,-1
 288 556 l 1,13,-1
 70 247 l 1,11,-1
EndSplineSet
EndChar

StartChar: five
Encoding: 53 53 22
Width: 500
GlyphClass: 2
Flags: W
LayerCount: 2
Fore
SplineSet
201 596 m 1,0,-1
 157 494 l 1,1,2
 217 479 217 479 251.5 464 c 128,-1,3
 286 449 286 449 315 425 c 0,4,5
 408 349 408 349 408 233 c 0,6,7
 408 133 408 133 335 60 c 128,-1,8
 262 -13 262 -13 162 -13 c 0,9,10
 108 -13 108 -13 68.5 10 c 128,-1,11
 29 33 29 33 29 65 c 0,12,13
 29 79 29 79 39 90 c 128,-1,14
 49 101 49 101 63 101 c 0,15,16
 74 101 74 101 87 95 c 0,17,18
 91 94 91 94 120 74 c 0,19,20
 164 44 164 44 212 44 c 0,21,22
 265 44 265 44 303 88 c 128,-1,23
 341 132 341 132 341 193 c 0,24,25
 341 248 341 248 309 296.5 c 128,-1,26
 277 345 277 345 220 376 c 0,27,28
 160 408 160 408 77 411 c 1,29,-1
 192 673 l 1,30,-1
 378 673 l 2,31,32
 396 673 396 673 406 678 c 128,-1,33
 416 683 416 683 428 699 c 1,34,-1
 443 691 l 1,35,-1
 398 596 l 1,36,-1
 201 596 l 1,0,-1
EndSplineSet
EndChar

StartChar: six
Encoding: 54 54 23
Width: 500
GlyphClass: 2
Flags: W
LayerCount: 2
Fore
SplineSet
433 667 m 1,0,1
 357 657 357 657 303.5 625 c 128,-1,2
 250 593 250 593 207 531 c 0,3,4
 157 457 157 457 139 377 c 1,5,6
 203 419 203 419 270 419 c 0,7,8
 357 419 357 419 412 362 c 128,-1,9
 467 305 467 305 467 216 c 0,10,11
 467 122 467 122 404 54.5 c 128,-1,12
 341 -13 341 -13 252 -13 c 0,13,14
 160 -13 160 -13 98 66.5 c 128,-1,15
 36 146 36 146 36 265 c 0,16,17
 36 359 36 359 74.5 448 c 128,-1,18
 113 537 113 537 180 597 c 0,19,20
 281 685 281 685 413 685 c 2,21,-1
 433 685 l 1,22,-1
 433 667 l 1,0,1
130 335 m 0,23,24
 124 303 124 303 124 255 c 0,25,26
 124 149 124 149 163 86 c 128,-1,27
 202 23 202 23 267 23 c 0,28,29
 318 23 318 23 348.5 62 c 128,-1,30
 379 101 379 101 379 166 c 0,31,32
 379 242 379 242 348 302 c 0,33,34
 315 371 315 371 241 371 c 0,35,36
 201 371 201 371 157 349 c 0,37,38
 156 349 156 349 137 338 c 0,39,40
 132 336 132 336 130 335 c 0,23,24
EndSplineSet
EndChar

StartChar: seven
Encoding: 55 55 24
Width: 500
GlyphClass: 2
Flags: W
LayerCount: 2
Fore
SplineSet
207 -7 m 1,0,1
 182 1 182 1 150 9 c 1,2,-1
 360 592 l 1,3,-1
 176 592 l 2,4,5
 142 592 142 592 125.5 587 c 128,-1,6
 109 582 109 582 93 567 c 0,7,8
 70 543 70 543 54 509 c 1,9,-1
 24 509 l 1,10,-1
 86 673 l 1,11,-1
 448 673 l 1,12,-1
 207 -7 l 1,0,1
EndSplineSet
EndChar

StartChar: eight
Encoding: 56 56 25
Width: 500
GlyphClass: 2
Flags: W
LayerCount: 2
Fore
SplineSet
196 334 m 1,0,1
 127 389 127 389 98 426 c 0,2,3
 62 472 62 472 62 526 c 0,4,5
 62 595 62 595 114 640.5 c 128,-1,6
 166 686 166 686 245 686 c 0,7,8
 321 686 321 686 373.5 641 c 128,-1,9
 426 596 426 596 426 531 c 0,10,11
 426 441 426 441 292 367 c 1,12,13
 375 302 375 302 407.5 255 c 128,-1,14
 440 208 440 208 440 155 c 0,15,16
 440 82 440 82 385.5 34.5 c 128,-1,17
 331 -13 331 -13 248 -13 c 0,18,19
 163 -13 163 -13 108.5 31.5 c 128,-1,20
 54 76 54 76 54 144 c 0,21,22
 54 216 54 216 118 275 c 0,23,24
 142 298 142 298 196 334 c 1,0,1
224 313 m 1,25,26
 131 240 131 240 131 157 c 0,27,28
 131 95 131 95 164 60 c 128,-1,29
 197 25 197 25 256 25 c 0,30,31
 304 25 304 25 336 52.5 c 128,-1,32
 368 80 368 80 368 122 c 0,33,34
 368 161 368 161 343.5 196 c 128,-1,35
 319 231 319 231 247 294 c 2,36,-1
 224 313 l 1,25,26
266 388 m 1,37,38
 317 424 317 424 337.5 455.5 c 128,-1,39
 358 487 358 487 358 530 c 0,40,41
 358 582 358 582 325.5 616 c 128,-1,42
 293 650 293 650 244 650 c 0,43,44
 198 650 198 650 165.5 621.5 c 128,-1,45
 133 593 133 593 133 553 c 0,46,47
 133 500 133 500 195 444 c 0,48,49
 223 420 223 420 247 402 c 0,50,51
 258 393 258 393 266 388 c 1,37,38
EndSplineSet
EndChar

StartChar: nine
Encoding: 57 57 26
Width: 500
GlyphClass: 2
Flags: W
LayerCount: 2
Fore
SplineSet
46 8 m 1,0,1
 118 13 118 13 170 42 c 0,2,3
 298 114 298 114 352 291 c 1,4,5
 279 253 279 253 224 253 c 0,6,7
 138 253 138 253 84.5 309.5 c 128,-1,8
 31 366 31 366 31 457 c 0,9,10
 31 556 31 556 90.5 621 c 128,-1,11
 150 686 150 686 240 686 c 0,12,13
 355 686 355 686 412 590 c 0,14,15
 460 511 460 511 460 410 c 0,16,17
 460 299 460 299 408 201 c 128,-1,18
 356 103 356 103 268 45 c 128,-1,19
 180 -13 180 -13 81 -13 c 0,20,21
 61 -13 61 -13 46 -12 c 1,22,-1
 46 8 l 1,0,1
362 331 m 0,23,24
 372 381 372 381 372 431 c 0,25,26
 372 529 372 529 334.5 590 c 128,-1,27
 297 651 297 651 236 651 c 0,28,29
 186 651 186 651 156 611 c 128,-1,30
 126 571 126 571 126 504 c 0,31,32
 126 409 126 409 158.5 353.5 c 128,-1,33
 191 298 191 298 247 298 c 0,34,35
 285 298 285 298 335 319 c 0,36,37
 344 322 344 322 355 328 c 0,38,39
 360 330 360 330 362 331 c 0,23,24
EndSplineSet
EndChar

StartChar: colon
Encoding: 58 58 27
Width: 278
GlyphClass: 2
Flags: W
LayerCount: 2
Fore
SplineSet
177 83 m 0,0,1
 193 66 193 66 193 43 c 128,-1,2
 193 20 193 20 176.5 3.5 c 128,-1,3
 160 -13 160 -13 137 -13 c 128,-1,4
 114 -13 114 -13 97.5 3.5 c 128,-1,5
 81 20 81 20 81 43 c 128,-1,6
 81 66 81 66 97.5 83 c 128,-1,7
 114 100 114 100 137 100 c 128,-1,8
 160 100 160 100 177 83 c 0,0,1
177 447 m 0,9,10
 193 430 193 430 193 407 c 128,-1,11
 193 384 193 384 176.5 367 c 128,-1,12
 160 350 160 350 137 350 c 128,-1,13
 114 350 114 350 97.5 367 c 128,-1,14
 81 384 81 384 81 407 c 128,-1,15
 81 430 81 430 97.5 446.5 c 128,-1,16
 114 463 114 463 137 463 c 128,-1,17
 160 463 160 463 177 447 c 0,9,10
EndSplineSet
EndChar

StartChar: semicolon
Encoding: 59 59 28
Width: 278
GlyphClass: 2
Flags: W
LayerCount: 2
Fore
SplineSet
154 463 m 0,0,1
 178 463 178 463 194.5 446.5 c 128,-1,2
 211 430 211 430 211 407 c 0,3,4
 211 383 211 383 194.5 366.5 c 128,-1,5
 178 350 178 350 154 350 c 0,6,7
 131 350 131 350 115 366.5 c 128,-1,8
 99 383 99 383 99 407 c 0,9,10
 99 430 99 430 115 446.5 c 128,-1,11
 131 463 131 463 154 463 c 0,0,1
173 -8 m 1,12,13
 154 -13 154 -13 143 -13 c 0,14,15
 121 -13 121 -13 105.5 4 c 128,-1,16
 90 21 90 21 90 45 c 128,-1,17
 90 69 90 69 105.5 85.5 c 128,-1,18
 121 102 121 102 144 102 c 0,19,20
 177 102 177 102 199 77 c 128,-1,21
 221 52 221 52 221 15 c 0,22,23
 221 -47 221 -47 166 -89 c 0,24,25
 130 -115 130 -115 83 -120 c 1,26,-1
 83 -104 l 1,27,28
 123 -93 123 -93 146 -69 c 0,29,30
 172 -41 172 -41 173 -8 c 1,12,13
EndSplineSet
EndChar

StartChar: less
Encoding: 60 60 29
Width: 549
GlyphClass: 2
Flags: W
LayerCount: 2
Fore
SplineSet
523 460 m 1,0,-1
 105 261 l 1,1,-1
 523 62 l 1,2,-1
 523 0 l 1,3,-1
 26 233 l 1,4,-1
 26 288 l 1,5,-1
 523 522 l 1,6,-1
 523 460 l 1,0,-1
EndSplineSet
EndChar

StartChar: equal
Encoding: 61 61 30
Width: 549
GlyphClass: 2
Flags: W
LayerCount: 2
Fore
SplineSet
537 336 m 1,0,-1
 11 336 l 1,1,-1
 11 391 l 1,2,-1
 537 391 l 1,3,-1
 537 336 l 1,0,-1
537 142 m 1,4,-1
 11 142 l 1,5,-1
 11 197 l 1,6,-1
 537 197 l 1,7,-1
 537 142 l 1,4,-1
EndSplineSet
EndChar

StartChar: greater
Encoding: 62 62 31
Width: 549
GlyphClass: 2
Flags: W
LayerCount: 2
Fore
SplineSet
523 288 m 1,0,-1
 523 233 l 1,1,-1
 26 0 l 1,2,-1
 26 62 l 1,3,-1
 444 261 l 1,4,-1
 26 460 l 1,5,-1
 26 522 l 1,6,-1
 523 288 l 1,0,-1
EndSplineSet
EndChar

StartChar: question
Encoding: 63 63 32
Width: 444
GlyphClass: 2
Flags: W
LayerCount: 2
Fore
SplineSet
221 176 m 1,0,1
 223 253 223 253 230.5 287.5 c 128,-1,2
 238 322 238 322 266 377 c 0,3,4
 297 439 297 439 304 460 c 0,5,6
 317 498 317 498 317 532 c 0,7,8
 317 588 317 588 291.5 620.5 c 128,-1,9
 266 653 266 653 221 653 c 0,10,11
 185 653 185 653 160.5 633.5 c 128,-1,12
 136 614 136 614 136 586 c 0,13,14
 136 571 136 571 154 546 c 0,15,16
 168 529 168 529 168 512 c 128,-1,17
 168 495 168 495 155.5 483 c 128,-1,18
 143 471 143 471 125 471 c 0,19,20
 101 471 101 471 85.5 492.5 c 128,-1,21
 70 514 70 514 70 546 c 0,22,23
 70 604 70 604 119 645 c 128,-1,24
 168 686 168 686 239 686 c 0,25,26
 315 686 315 686 363.5 644 c 128,-1,27
 412 602 412 602 412 536 c 0,28,29
 412 458 412 458 340 375 c 2,30,-1
 298 330 l 2,31,32
 263 290 263 290 250 237 c 0,33,34
 244 211 244 211 243 176 c 1,35,-1
 221 176 l 1,0,1
279 83 m 0,36,37
 295 66 295 66 295 43 c 128,-1,38
 295 20 295 20 278.5 3.5 c 128,-1,39
 262 -13 262 -13 239 -13 c 128,-1,40
 216 -13 216 -13 199.5 3.5 c 128,-1,41
 183 20 183 20 183 43 c 128,-1,42
 183 66 183 66 199.5 82.5 c 128,-1,43
 216 99 216 99 239 99 c 128,-1,44
 262 99 262 99 279 83 c 0,36,37
EndSplineSet
EndChar

StartChar: at
Encoding: 64 64 33
Width: 549
GlyphClass: 2
Flags: W
LayerCount: 2
Fore
SplineSet
529 442 m 1,0,1
 483 356 483 356 385 356 c 0,2,3
 354 356 354 356 320 366 c 2,4,-1
 223 396 l 2,5,6
 181 408 181 408 159 408 c 0,7,8
 130 408 130 408 112 396.5 c 128,-1,9
 94 385 94 385 60 345 c 1,10,-1
 17 379 l 1,11,12
 74 463 74 463 160 463 c 0,13,14
 195 463 195 463 285 435 c 0,15,16
 362 411 362 411 384 411 c 0,17,18
 418 411 418 411 447 432 c 0,19,20
 462 443 462 443 489 475 c 1,21,-1
 529 442 l 1,0,1
537 190 m 1,22,-1
 11 190 l 1,23,-1
 11 245 l 1,24,-1
 537 245 l 1,25,-1
 537 190 l 1,22,-1
537 0 m 1,26,-1
 11 0 l 1,27,-1
 11 55 l 1,28,-1
 537 55 l 1,29,-1
 537 0 l 1,26,-1
EndSplineSet
EndChar

StartChar: A
Encoding: 65 65 34
Width: 722
GlyphClass: 2
Flags: W
LayerCount: 2
Fore
SplineSet
211 255 m 1,0,-1
 426 255 l 1,1,-1
 317 501 l 1,2,-1
 211 255 l 1,0,-1
582 142 m 1,3,-1
 604 94 l 2,4,5
 621 58 621 58 635.5 45.5 c 128,-1,6
 650 33 650 33 684 26 c 1,7,-1
 684 0 l 1,8,-1
 446 0 l 1,9,-1
 446 26 l 1,10,11
 471 29 471 29 482 38.5 c 128,-1,12
 493 48 493 48 493 67 c 128,-1,13
 493 86 493 86 478 121 c 2,14,-1
 439 214 l 1,15,-1
 196 214 l 1,16,-1
 166 141 l 2,17,18
 143 90 143 90 143 67 c 0,19,20
 143 29 143 29 198 26 c 1,21,-1
 198 0 l 1,22,-1
 4 0 l 1,23,-1
 4 26 l 1,24,25
 51 34 51 34 69.5 52.5 c 128,-1,26
 88 71 88 71 118 142 c 2,27,-1
 341 673 l 1,28,-1
 353 673 l 1,29,-1
 582 142 l 1,3,-1
EndSplineSet
EndChar

StartChar: B
Encoding: 66 66 35
Width: 667
GlyphClass: 2
Flags: W
LayerCount: 2
Fore
SplineSet
222 56 m 2,0,1
 222 48 222 48 227 45 c 0,2,3
 240 40 240 40 295 40 c 0,4,5
 469 40 469 40 469 186 c 128,-1,6
 469 332 469 332 292 332 c 2,7,-1
 222 332 l 1,8,-1
 222 56 l 2,0,1
292 370 m 2,9,10
 368 370 368 370 411 406.5 c 128,-1,11
 454 443 454 443 454 506 c 0,12,13
 454 546 454 546 434.5 577.5 c 128,-1,14
 415 609 415 609 383 622 c 0,15,16
 354 634 354 634 283 634 c 0,17,18
 239 634 239 634 229 632 c 0,19,20
 222 632 222 632 222 621 c 2,21,-1
 222 370 l 1,22,-1
 292 370 l 2,9,10
29 26 m 1,23,-1
 32 26 l 2,24,25
 84 26 84 26 105 57 c 0,26,27
 120 80 120 80 120 142 c 2,28,-1
 120 531 l 2,29,30
 120 594 120 594 105 615 c 0,31,32
 85 646 85 646 32 646 c 2,33,-1
 29 646 l 1,34,-1
 29 673 l 1,35,-1
 301 673 l 2,36,37
 410 673 410 673 463 646 c 0,38,39
 557 597 557 597 557 494 c 0,40,41
 557 439 557 439 518.5 400 c 128,-1,42
 480 361 480 361 414 350 c 1,43,44
 478 337 478 337 514 316 c 0,45,46
 592 270 592 270 592 184 c 0,47,48
 592 77 592 77 492 26 c 0,49,50
 441 0 441 0 355 0 c 2,51,-1
 29 0 l 1,52,-1
 29 26 l 1,23,-1
EndSplineSet
EndChar

StartChar: C
Encoding: 67 67 36
Width: 722
GlyphClass: 2
Flags: W
LayerCount: 2
Fore
SplineSet
385 26 m 1,0,-1
 401 26 l 2,1,2
 458 26 458 26 458 60 c 0,3,4
 458 80 458 80 419 142 c 2,5,-1
 328 279 l 1,6,-1
 193 95 l 2,7,8
 176 72 176 72 176 58 c 0,9,10
 176 26 176 26 225 26 c 2,11,-1
 239 26 l 1,12,-1
 239 0 l 1,13,-1
 -9 0 l 1,14,-1
 -9 26 l 1,15,16
 54 32 54 32 90 57 c 0,17,18
 109 70 109 70 122 84 c 128,-1,19
 135 98 135 98 168 141 c 2,20,-1
 308 321 l 1,21,-1
 172 531 l 2,22,23
 144 574 144 574 133 588.5 c 128,-1,24
 122 603 122 603 104 616 c 0,25,26
 70 642 70 642 4 647 c 1,27,-1
 4 673 l 1,28,-1
 329 673 l 1,29,-1
 329 647 l 1,30,-1
 308 647 l 2,31,32
 256 647 256 647 256 611 c 0,33,34
 256 595 256 595 295 531 c 2,35,-1
 373 409 l 1,36,-1
 467 531 l 2,37,38
 477 545 477 545 501 578 c 0,39,40
 517 601 517 601 517 615 c 0,41,42
 517 647 517 647 467 647 c 2,43,-1
 453 647 l 1,44,-1
 453 673 l 1,45,-1
 704 673 l 1,46,-1
 704 647 l 1,47,48
 639 642 639 642 603.5 620 c 128,-1,49
 568 598 568 598 519 531 c 2,50,-1
 399 370 l 1,51,-1
 541 141 l 2,52,53
 581 77 581 77 607 57 c 0,54,55
 639 31 639 31 704 26 c 1,56,-1
 704 0 l 1,57,-1
 385 0 l 1,58,-1
 385 26 l 1,0,-1
EndSplineSet
EndChar

StartChar: D
Encoding: 68 68 37
Width: 612
GlyphClass: 2
Flags: W
LayerCount: 2
Fore
SplineSet
327 687 m 1,0,-1
 608 0 l 1,1,-1
 6 0 l 1,2,-1
 327 687 l 1,0,-1
479 51 m 1,3,-1
 290 509 l 1,4,-1
 77 51 l 1,5,-1
 479 51 l 1,3,-1
EndSplineSet
EndChar

StartChar: E
Encoding: 69 69 38
Width: 611
GlyphClass: 2
Flags: W
LayerCount: 2
Fore
SplineSet
32 26 m 1,0,-1
 35 26 l 2,1,2
 87 26 87 26 108 57 c 0,3,4
 123 78 123 78 123 142 c 2,5,-1
 123 531 l 2,6,7
 123 594 123 594 108 616 c 0,8,9
 87 647 87 647 35 647 c 2,10,-1
 32 647 l 1,11,-1
 32 673 l 1,12,-1
 546 673 l 1,13,-1
 556 511 l 1,14,-1
 530 511 l 1,15,16
 520 576 520 576 488 604 c 128,-1,17
 456 632 456 632 390 632 c 2,18,-1
 225 632 l 1,19,-1
 225 370 l 1,20,-1
 367 370 l 2,21,22
 408 370 408 370 428.5 376.5 c 128,-1,23
 449 383 449 383 460 399 c 0,24,25
 476 422 476 422 476 469 c 2,26,-1
 476 470 l 1,27,-1
 501 470 l 1,28,-1
 501 232 l 1,29,-1
 476 232 l 1,30,31
 474 292 474 292 453 310.5 c 128,-1,32
 432 329 432 329 367 329 c 2,33,-1
 225 329 l 1,34,-1
 225 92 l 2,35,36
 225 59 225 59 232.5 50 c 128,-1,37
 240 41 240 41 267 41 c 2,38,-1
 397 41 l 2,39,40
 477 41 477 41 518 67.5 c 128,-1,41
 559 94 559 94 587 165 c 1,42,-1
 591 173 l 1,43,-1
 617 173 l 1,44,-1
 564 0 l 1,45,-1
 32 0 l 1,46,-1
 32 26 l 1,0,-1
EndSplineSet
EndChar

StartChar: F
Encoding: 70 70 39
Width: 763
GlyphClass: 2
Flags: W
LayerCount: 2
Fore
SplineSet
335 549 m 1,0,1
 333 583 333 583 329 598 c 128,-1,2
 325 613 325 613 313 624 c 0,3,4
 287 646 287 646 238 647 c 1,5,-1
 238 673 l 1,6,-1
 530 673 l 1,7,-1
 530 647 l 1,8,9
 474 646 474 646 449 619 c 0,10,11
 434 600 434 600 433 549 c 1,12,-1
 440 549 l 2,13,14
 535 548 535 548 604 520 c 0,15,16
 669 493 669 493 705 445 c 128,-1,17
 741 397 741 397 741 336 c 0,18,19
 741 242 741 242 660 185.5 c 128,-1,20
 579 129 579 129 443 129 c 2,21,-1
 433 129 l 1,22,23
 434 91 434 91 438 75.5 c 128,-1,24
 442 60 442 60 455 49 c 0,25,26
 481 26 481 26 530 26 c 1,27,-1
 530 0 l 1,28,-1
 238 0 l 1,29,-1
 238 26 l 1,30,31
 293 26 293 26 318 54 c 0,32,33
 334 74 334 74 335 129 c 1,34,-1
 324 129 l 2,35,36
 226 129 226 129 155 160 c 0,37,38
 93 187 93 187 59.5 233 c 128,-1,39
 26 279 26 279 26 336 c 0,40,41
 26 401 26 401 67 451.5 c 128,-1,42
 108 502 108 502 182 527 c 0,43,44
 245 548 245 548 328 549 c 2,45,-1
 335 549 l 1,0,1
335 512 m 1,46,47
 252 504 252 504 205 476 c 0,48,49
 134 431 134 431 134 343 c 0,50,51
 134 179 134 179 335 167 c 1,52,-1
 335 512 l 1,46,47
433 167 m 1,53,54
 517 175 517 175 562 203 c 0,55,56
 633 248 633 248 633 336 c 0,57,58
 633 500 633 500 433 512 c 1,59,-1
 433 167 l 1,53,54
EndSplineSet
EndChar

StartChar: G
Encoding: 71 71 40
Width: 603
GlyphClass: 2
Flags: W
LayerCount: 2
Fore
SplineSet
217 142 m 2,0,1
 217 76 217 76 231 57 c 0,2,3
 254 26 254 26 315 26 c 2,4,-1
 325 26 l 1,5,-1
 325 0 l 1,6,-1
 24 0 l 1,7,-1
 24 26 l 1,8,-1
 27 26 l 2,9,10
 79 26 79 26 100 57 c 0,11,12
 115 78 115 78 115 142 c 2,13,-1
 115 531 l 2,14,15
 115 594 115 594 100 616 c 0,16,17
 79 647 79 647 27 647 c 2,18,-1
 24 647 l 1,19,-1
 24 673 l 1,20,-1
 598 673 l 1,21,-1
 609 511 l 1,22,-1
 583 511 l 1,23,24
 573 576 573 576 541 604 c 128,-1,25
 509 632 509 632 443 632 c 2,26,-1
 217 632 l 1,27,-1
 217 142 l 2,0,1
EndSplineSet
EndChar

StartChar: H
Encoding: 72 72 41
Width: 722
GlyphClass: 2
Flags: W
LayerCount: 2
Fore
SplineSet
536 364 m 1,0,-1
 536 531 l 2,1,2
 536 593 536 593 522 616 c 0,3,4
 499 647 499 647 448 647 c 2,5,-1
 445 647 l 1,6,-1
 445 673 l 1,7,-1
 729 673 l 1,8,-1
 729 647 l 1,9,-1
 726 647 l 2,10,11
 674 647 674 647 653 616 c 0,12,13
 638 594 638 594 638 531 c 2,14,-1
 638 142 l 2,15,16
 638 78 638 78 653 57 c 0,17,18
 674 26 674 26 726 26 c 2,19,-1
 729 26 l 1,20,-1
 729 0 l 1,21,-1
 445 0 l 1,22,-1
 445 26 l 1,23,-1
 448 26 l 2,24,25
 499 26 499 26 522 57 c 0,26,27
 536 79 536 79 536 142 c 2,28,-1
 536 322 l 1,29,-1
 232 322 l 1,30,-1
 232 142 l 2,31,32
 232 79 232 79 246 57 c 0,33,34
 269 26 269 26 320 26 c 2,35,-1
 323 26 l 1,36,-1
 323 0 l 1,37,-1
 39 0 l 1,38,-1
 39 26 l 1,39,-1
 42 26 l 2,40,41
 94 26 94 26 115 57 c 0,42,43
 130 78 130 78 130 142 c 2,44,-1
 130 531 l 2,45,46
 130 594 130 594 115 616 c 0,47,48
 94 647 94 647 42 647 c 2,49,-1
 39 647 l 1,50,-1
 39 673 l 1,51,-1
 323 673 l 1,52,-1
 323 647 l 1,53,-1
 320 647 l 2,54,55
 269 647 269 647 246 616 c 0,56,57
 232 593 232 593 232 531 c 2,58,-1
 232 364 l 1,59,-1
 536 364 l 1,0,-1
EndSplineSet
EndChar

StartChar: I
Encoding: 73 73 42
Width: 333
GlyphClass: 2
Flags: W
LayerCount: 2
Fore
SplineSet
316 0 m 1,0,-1
 32 0 l 1,1,-1
 32 26 l 1,2,-1
 35 26 l 2,3,4
 87 26 87 26 108 57 c 0,5,6
 123 78 123 78 123 142 c 2,7,-1
 123 531 l 2,8,9
 123 594 123 594 108 616 c 0,10,11
 87 647 87 647 35 647 c 2,12,-1
 32 647 l 1,13,-1
 32 673 l 1,14,-1
 316 673 l 1,15,-1
 316 647 l 1,16,-1
 313 647 l 2,17,18
 262 647 262 647 239 616 c 0,19,20
 225 593 225 593 225 531 c 2,21,-1
 225 142 l 2,22,23
 225 79 225 79 239 57 c 0,24,25
 262 26 262 26 313 26 c 2,26,-1
 316 26 l 1,27,-1
 316 0 l 1,0,-1
EndSplineSet
EndChar

StartChar: J
Encoding: 74 74 43
Width: 631
GlyphClass: 2
Flags: W
LayerCount: 2
Fore
SplineSet
623 267 m 1,0,1
 594 279 594 279 585 283 c 2,2,-1
 555 296 l 2,3,4
 551 298 551 298 548 299 c 1,5,6
 547 216 547 216 519 144 c 0,7,8
 460 -13 460 -13 299 -13 c 0,9,10
 224 -13 224 -13 178 31.5 c 128,-1,11
 132 76 132 76 132 149 c 0,12,13
 132 195 132 195 141 264 c 2,14,-1
 148 316 l 2,15,16
 151 338 151 338 151 352 c 0,17,18
 151 371 151 371 138.5 383 c 128,-1,19
 126 395 126 395 107 395 c 0,20,21
 91 395 91 395 79 382.5 c 128,-1,22
 67 370 67 370 45 330 c 1,23,-1
 18 330 l 1,24,-1
 25 349 l 2,25,26
 68 463 68 463 144 463 c 0,27,28
 185 463 185 463 212 436.5 c 128,-1,29
 239 410 239 410 239 370 c 0,30,31
 239 342 239 342 235 310 c 2,32,-1
 228 251 l 2,33,34
 223 221 223 221 222 192 c 0,35,36
 220 173 220 173 220 153 c 0,37,38
 220 105 220 105 238 69 c 0,39,40
 263 23 263 23 321 23 c 0,41,42
 388 23 388 23 428 89 c 0,43,44
 471 162 471 162 471 281 c 0,45,46
 471 286 471 286 470.5 302 c 128,-1,47
 470 318 470 318 470 329 c 1,48,49
 362 374 362 374 304 436 c 128,-1,50
 246 498 246 498 246 569 c 0,51,52
 246 620 246 620 276 653 c 128,-1,53
 306 686 306 686 352 686 c 0,54,55
 407 686 407 686 456 634 c 0,56,57
 500 589 500 589 521 523 c 0,58,59
 538 467 538 467 546 371 c 2,60,-1
 548 354 l 1,61,62
 560 351 560 351 565 348 c 2,63,-1
 591 339 l 2,64,65
 603 336 603 336 615 332 c 2,66,-1
 623 330 l 1,67,-1
 623 267 l 1,0,1
468 403 m 2,68,69
 458 483 458 483 448 523 c 128,-1,70
 438 563 438 563 420 596 c 0,71,72
 389 650 389 650 342 650 c 0,73,74
 314 650 314 650 297 630.5 c 128,-1,75
 280 611 280 611 280 580 c 0,76,77
 280 524 280 524 331.5 470.5 c 128,-1,78
 383 417 383 417 470 382 c 1,79,-1
 468 403 l 2,68,69
EndSplineSet
EndChar

StartChar: K
Encoding: 75 75 44
Width: 722
GlyphClass: 2
Flags: W
LayerCount: 2
Fore
SplineSet
228 336 m 1,0,1
 257 362 257 362 315 419 c 0,2,3
 374 477 374 477 414 521 c 0,4,5
 487 605 487 605 487 620 c 0,6,7
 487 646 487 646 430 647 c 2,8,-1
 407 647 l 1,9,-1
 407 673 l 1,10,-1
 678 673 l 1,11,-1
 678 647 l 1,12,-1
 670 647 l 2,13,14
 622 647 622 647 593 631.5 c 128,-1,15
 564 616 564 616 514 564 c 2,16,-1
 457 506 l 1,17,-1
 386 429 l 2,18,19
 380 424 380 424 360 404 c 2,20,-1
 343 387 l 1,21,-1
 599 92 l 2,22,23
 651 33 651 33 722 26 c 1,24,-1
 722 0 l 1,25,-1
 407 0 l 1,26,-1
 407 26 l 1,27,-1
 440 26 l 2,28,29
 485 26 485 26 485 50 c 0,30,31
 485 73 485 73 422 146 c 0,32,33
 326 260 326 260 267 318 c 1,34,-1
 228 285 l 1,35,-1
 228 142 l 2,36,37
 228 79 228 79 242 57 c 0,38,39
 265 26 265 26 316 26 c 2,40,-1
 319 26 l 1,41,-1
 319 0 l 1,42,-1
 35 0 l 1,43,-1
 35 26 l 1,44,-1
 38 26 l 2,45,46
 90 26 90 26 111 57 c 0,47,48
 126 78 126 78 126 142 c 2,49,-1
 126 531 l 2,50,51
 126 594 126 594 111 616 c 0,52,53
 90 647 90 647 38 647 c 2,54,-1
 35 647 l 1,55,-1
 35 673 l 1,56,-1
 319 673 l 1,57,-1
 319 647 l 1,58,-1
 316 647 l 2,59,60
 265 647 265 647 242 616 c 0,61,62
 228 593 228 593 228 531 c 2,63,-1
 228 336 l 1,0,1
EndSplineSet
EndChar

StartChar: L
Encoding: 76 76 45
Width: 686
GlyphClass: 2
Flags: W
LayerCount: 2
Fore
SplineSet
162 142 m 2,0,1
 139 88 139 88 139 67 c 0,2,3
 139 29 139 29 194 26 c 1,4,-1
 194 0 l 1,5,-1
 6 0 l 1,6,-1
 6 26 l 1,7,8
 49 35 49 35 67 54 c 128,-1,9
 85 73 85 73 114 142 c 2,10,-1
 343 687 l 1,11,-1
 578 142 l 1,12,-1
 600 94 l 2,13,14
 617 58 617 58 631.5 45.5 c 128,-1,15
 646 33 646 33 680 26 c 1,16,-1
 680 0 l 1,17,-1
 442 0 l 1,18,-1
 442 26 l 1,19,20
 467 29 467 29 478 38.5 c 128,-1,21
 489 48 489 48 489 67 c 128,-1,22
 489 86 489 86 474 121 c 2,23,-1
 466 142 l 1,24,-1
 313 501 l 1,25,-1
 162 142 l 2,0,1
EndSplineSet
EndChar

StartChar: M
Encoding: 77 77 46
Width: 889
GlyphClass: 2
Flags: W
LayerCount: 2
Fore
SplineSet
163 541 m 1,0,-1
 163 142 l 2,1,2
 163 78 163 78 177 57 c 0,3,4
 200 26 200 26 251 26 c 2,5,-1
 254 26 l 1,6,-1
 254 0 l 1,7,-1
 28 0 l 1,8,-1
 28 26 l 1,9,-1
 31 26 l 2,10,11
 83 26 83 26 104 57 c 0,12,13
 119 78 119 78 119 142 c 2,14,-1
 119 531 l 2,15,16
 119 594 119 594 104 616 c 0,17,18
 83 647 83 647 31 647 c 2,19,-1
 28 647 l 1,20,-1
 28 673 l 1,21,-1
 215 673 l 1,22,-1
 460 170 l 1,23,-1
 713 673 l 1,24,-1
 887 673 l 1,25,-1
 887 647 l 1,26,-1
 884 647 l 2,27,28
 833 647 833 647 810 616 c 0,29,30
 796 594 796 594 796 531 c 2,31,-1
 796 142 l 2,32,33
 796 79 796 79 810 57 c 0,34,35
 833 26 833 26 884 26 c 2,36,-1
 887 26 l 1,37,-1
 887 0 l 1,38,-1
 603 0 l 1,39,-1
 603 26 l 1,40,-1
 606 26 l 2,41,42
 657 26 657 26 680 57 c 0,43,44
 694 79 694 79 694 142 c 2,45,-1
 694 541 l 1,46,-1
 424 1 l 1,47,-1
 163 541 l 1,0,-1
EndSplineSet
EndChar

StartChar: N
Encoding: 78 78 47
Width: 722
GlyphClass: 2
Flags: W
LayerCount: 2
Fore
SplineSet
258 0 m 1,0,-1
 29 0 l 1,1,-1
 29 26 l 1,2,-1
 34 26 l 2,3,4
 87 26 87 26 107 57 c 0,5,6
 117 71 117 71 119.5 85.5 c 128,-1,7
 122 100 122 100 122 142 c 2,8,-1
 122 532 l 2,9,10
 122 595 122 595 107 616 c 0,11,12
 86 647 86 647 34 647 c 2,13,-1
 30 647 l 1,14,-1
 30 673 l 1,15,-1
 189 673 l 1,16,-1
 587 160 l 1,17,-1
 587 531 l 2,18,19
 587 595 587 595 573 616 c 0,20,21
 550 647 550 647 499 647 c 2,22,-1
 496 647 l 1,23,-1
 496 673 l 1,24,-1
 720 673 l 1,25,-1
 720 647 l 1,26,-1
 715 647 l 2,27,28
 666 647 666 647 643 616 c 0,29,30
 629 594 629 594 629 531 c 2,31,-1
 629 0 l 1,32,-1
 584 0 l 1,33,-1
 165 532 l 1,34,-1
 165 142 l 2,35,36
 165 77 165 77 179 57 c 0,37,38
 200 26 200 26 253 26 c 2,39,-1
 258 26 l 1,40,-1
 258 0 l 1,0,-1
EndSplineSet
EndChar

StartChar: O
Encoding: 79 79 48
Width: 722
GlyphClass: 2
Flags: W
LayerCount: 2
Fore
SplineSet
41 337 m 0,0,1
 41 488 41 488 136.5 587 c 128,-1,2
 232 686 232 686 378 686 c 128,-1,3
 524 686 524 686 619.5 587 c 128,-1,4
 715 488 715 488 715 336 c 128,-1,5
 715 184 715 184 619.5 85.5 c 128,-1,6
 524 -13 524 -13 377 -13 c 0,7,8
 231 -13 231 -13 136 86 c 128,-1,9
 41 185 41 185 41 337 c 0,0,1
370 647 m 0,10,11
 272 647 272 647 215.5 565.5 c 128,-1,12
 159 484 159 484 159 342 c 0,13,14
 159 199 159 199 220.5 112.5 c 128,-1,15
 282 26 282 26 383 26 c 0,16,17
 461 26 461 26 511 71 c 0,18,19
 597 152 597 152 597 328 c 0,20,21
 597 473 597 473 535 560 c 128,-1,22
 473 647 473 647 370 647 c 0,10,11
EndSplineSet
EndChar

StartChar: P
Encoding: 80 80 49
Width: 768
GlyphClass: 2
Flags: W
LayerCount: 2
Fore
SplineSet
25 26 m 1,0,-1
 28 26 l 2,1,2
 80 26 80 26 101 57 c 0,3,4
 116 78 116 78 116 142 c 2,5,-1
 116 531 l 2,6,7
 116 594 116 594 101 615 c 0,8,9
 81 646 81 646 28 646 c 2,10,-1
 25 646 l 1,11,-1
 25 673 l 1,12,-1
 745 673 l 1,13,-1
 745 646 l 1,14,-1
 742 646 l 2,15,16
 690 646 690 646 668 615 c 0,17,18
 654 593 654 593 654 531 c 2,19,-1
 654 142 l 2,20,21
 654 79 654 79 668 57 c 0,22,23
 691 26 691 26 742 26 c 2,24,-1
 745 26 l 1,25,-1
 745 0 l 1,26,-1
 461 0 l 1,27,-1
 461 26 l 1,28,-1
 464 26 l 2,29,30
 516 26 516 26 537 57 c 0,31,32
 552 78 552 78 552 142 c 2,33,-1
 552 520 l 2,34,35
 552 551 552 551 551.5 566 c 128,-1,36
 551 581 551 581 545 596.5 c 128,-1,37
 539 612 539 612 533 617 c 128,-1,38
 527 622 527 622 508 626.5 c 128,-1,39
 489 631 489 631 470.5 631.5 c 128,-1,40
 452 632 452 632 413 632 c 0,41,42
 345 632 345 632 315 631 c 0,43,44
 258 630 258 630 238 614 c 128,-1,45
 218 598 218 598 218 552 c 2,46,-1
 218 142 l 2,47,48
 218 79 218 79 232 57 c 0,49,50
 255 26 255 26 306 26 c 2,51,-1
 309 26 l 1,52,-1
 309 0 l 1,53,-1
 25 0 l 1,54,-1
 25 26 l 1,0,-1
EndSplineSet
EndChar

StartChar: Q
Encoding: 81 81 50
Width: 741
GlyphClass: 2
Flags: W
LayerCount: 2
Fore
SplineSet
504 228 m 1,0,-1
 480 228 l 1,1,2
 477 275 477 275 460.5 289.5 c 128,-1,3
 444 304 444 304 395 304 c 2,4,-1
 362 304 l 2,5,6
 313 304 313 304 296.5 289.5 c 128,-1,7
 280 275 280 275 275 228 c 1,8,-1
 251 228 l 1,9,-1
 251 457 l 1,10,-1
 275 457 l 1,11,12
 279 413 279 413 296.5 397.5 c 128,-1,13
 314 382 314 382 360 382 c 2,14,-1
 394 382 l 2,15,16
 442 382 442 382 459 397 c 128,-1,17
 476 412 476 412 480 457 c 1,18,-1
 504 457 l 1,19,-1
 504 228 l 1,0,-1
41 337 m 0,20,21
 41 488 41 488 136.5 587 c 128,-1,22
 232 686 232 686 378 686 c 128,-1,23
 524 686 524 686 619.5 587 c 128,-1,24
 715 488 715 488 715 336 c 128,-1,25
 715 184 715 184 619.5 85.5 c 128,-1,26
 524 -13 524 -13 377 -13 c 0,27,28
 231 -13 231 -13 136 86 c 128,-1,29
 41 185 41 185 41 337 c 0,20,21
370 647 m 0,30,31
 272 647 272 647 215.5 565.5 c 128,-1,32
 159 484 159 484 159 342 c 0,33,34
 159 199 159 199 220.5 112.5 c 128,-1,35
 282 26 282 26 383 26 c 0,36,37
 461 26 461 26 511 71 c 0,38,39
 597 152 597 152 597 328 c 0,40,41
 597 473 597 473 535 560 c 128,-1,42
 473 647 473 647 370 647 c 0,30,31
EndSplineSet
EndChar

StartChar: R
Encoding: 82 82 51
Width: 556
GlyphClass: 2
Flags: W
LayerCount: 2
Fore
SplineSet
221 359 m 1,0,1
 270 347 270 347 302 347 c 0,2,3
 364 347 364 347 399 374 c 0,4,5
 447 414 447 414 447 493 c 0,6,7
 447 561 447 561 411 597 c 128,-1,8
 375 633 375 633 313 633 c 2,9,-1
 306 633 l 1,10,-1
 262 632 l 2,11,12
 237 632 237 632 229 628 c 128,-1,13
 221 624 221 624 221 612 c 2,14,-1
 221 359 l 1,0,1
337 0 m 1,15,-1
 28 0 l 1,16,-1
 28 26 l 1,17,-1
 31 26 l 2,18,19
 83 26 83 26 104 57 c 0,20,21
 119 78 119 78 119 142 c 2,22,-1
 119 531 l 2,23,24
 119 594 119 594 104 616 c 0,25,26
 83 647 83 647 31 647 c 2,27,-1
 28 647 l 1,28,-1
 28 673 l 1,29,-1
 274 673 l 2,30,31
 347 673 347 673 372 671 c 0,32,33
 462 663 462 663 512.5 616 c 128,-1,34
 563 569 563 569 563 491 c 0,35,36
 563 399 563 399 499 349 c 0,37,38
 442 303 442 303 329 303 c 0,39,40
 272 303 272 303 221 315 c 1,41,-1
 221 142 l 2,42,43
 221 76 221 76 235 57 c 0,44,45
 259 26 259 26 322 26 c 2,46,-1
 337 26 l 1,47,-1
 337 0 l 1,15,-1
EndSplineSet
EndChar

StartChar: S
Encoding: 83 83 52
Width: 592
GlyphClass: 2
Flags: W
LayerCount: 2
Fore
SplineSet
329 369 m 1,0,-1
 118 83 l 1,1,-1
 385 83 l 2,2,3
 472 83 472 83 505.5 101.5 c 128,-1,4
 539 120 539 120 563 180 c 1,5,-1
 589 180 l 1,6,-1
 535 0 l 1,7,-1
 5 0 l 1,8,-1
 240 320 l 1,9,-1
 22 673 l 1,10,-1
 516 673 l 1,11,-1
 526 510 l 1,12,-1
 500 510 l 1,13,14
 487 584 487 584 455 608 c 128,-1,15
 423 632 423 632 336 632 c 2,16,-1
 167 632 l 1,17,-1
 329 369 l 1,0,-1
EndSplineSet
EndChar

StartChar: T
Encoding: 84 84 53
Width: 611
GlyphClass: 2
Flags: W
LayerCount: 2
Fore
SplineSet
479 0 m 1,0,-1
 161 0 l 1,1,-1
 161 26 l 1,2,-1
 181 26 l 2,3,4
 233 26 233 26 254 57 c 0,5,6
 269 78 269 78 269 142 c 2,7,-1
 269 628 l 1,8,-1
 204 628 l 2,9,10
 127 628 127 628 95.5 603.5 c 128,-1,11
 64 579 64 579 59 515 c 1,12,-1
 33 515 l 1,13,-1
 44 673 l 1,14,-1
 596 673 l 1,15,-1
 607 515 l 1,16,-1
 582 515 l 1,17,18
 575 580 575 580 546.5 604 c 128,-1,19
 518 628 518 628 445 628 c 2,20,-1
 371 628 l 1,21,-1
 371 142 l 2,22,23
 371 78 371 78 385 57 c 0,24,25
 408 26 408 26 459 26 c 2,26,-1
 479 26 l 1,27,-1
 479 0 l 1,0,-1
EndSplineSet
EndChar

StartChar: U
Encoding: 85 85 54
Width: 690
GlyphClass: 2
Flags: W
LayerCount: 2
Fore
SplineSet
396 142 m 2,0,1
 396 77 396 77 410 57 c 0,2,3
 431 26 431 26 484 26 c 2,4,-1
 487 26 l 1,5,-1
 487 0 l 1,6,-1
 203 0 l 1,7,-1
 203 26 l 1,8,-1
 206 26 l 2,9,10
 258 26 258 26 279 57 c 0,11,12
 294 78 294 78 294 142 c 2,13,-1
 294 291 l 1,14,-1
 148 531 l 2,15,16
 107 598 107 598 79.5 618.5 c 128,-1,17
 52 639 52 639 -8 647 c 1,18,-1
 -8 673 l 1,19,-1
 301 673 l 1,20,-1
 301 647 l 1,21,-1
 282 647 l 2,22,23
 227 647 227 647 227 614 c 0,24,25
 227 598 227 598 238 578 c 0,26,27
 241 573 241 573 252 554 c 128,-1,28
 263 535 263 535 265 531 c 2,29,-1
 379 347 l 1,30,-1
 497 531 l 2,31,32
 531 586 531 586 531 612 c 0,33,34
 531 631 531 631 518.5 639 c 128,-1,35
 506 647 506 647 476 647 c 2,36,-1
 465 647 l 1,37,-1
 465 673 l 1,38,-1
 694 673 l 1,39,-1
 694 647 l 1,40,41
 636 639 636 639 609.5 618.5 c 128,-1,42
 583 598 583 598 542 531 c 2,43,-1
 396 291 l 1,44,-1
 396 142 l 2,0,1
EndSplineSet
EndChar

StartChar: V
Encoding: 86 86 55
Width: 439
GlyphClass: 2
Flags: W
LayerCount: 2
Fore
SplineSet
239 433 m 0,0,1
 177 433 177 433 129.5 375 c 128,-1,2
 82 317 82 317 82 241 c 0,3,4
 82 181 82 181 114.5 139 c 128,-1,5
 147 97 147 97 194 97 c 0,6,7
 198 97 198 97 240 99 c 0,8,9
 242 100 242 100 252 100 c 2,10,-1
 265 101 l 2,11,12
 281 102 281 102 310 102 c 0,13,14
 359 102 359 102 390 75 c 0,15,16
 436 34 436 34 436 -37 c 0,17,18
 436 -113 436 -113 387.5 -167.5 c 128,-1,19
 339 -222 339 -222 271 -222 c 0,20,21
 239 -222 239 -222 214.5 -203 c 128,-1,22
 190 -184 190 -184 190 -159 c 0,23,24
 190 -138 190 -138 205.5 -125.5 c 128,-1,25
 221 -113 221 -113 247 -113 c 0,26,27
 262 -113 262 -113 279 -118 c 2,28,-1
 294 -122 l 1,29,-1
 311 -128 l 2,30,31
 320 -131 320 -131 328 -131 c 0,32,33
 355 -131 355 -131 373.5 -108.5 c 128,-1,34
 392 -86 392 -86 392 -54 c 0,35,36
 392 -2 392 -2 339 -2 c 0,37,38
 337 -2 337 -2 329 -2.5 c 128,-1,39
 321 -3 321 -3 316 -3 c 0,40,41
 313 -3 313 -3 309 -3.5 c 128,-1,42
 305 -4 305 -4 298 -4.5 c 128,-1,43
 291 -5 291 -5 286 -5 c 2,44,-1
 274 -5 l 2,45,46
 267 -5 267 -5 263 -6 c 2,47,-1
 230 -6 l 2,48,49
 221 -7 221 -7 211 -7 c 0,50,51
 138 -7 138 -7 89 55 c 128,-1,52
 40 117 40 117 40 209 c 0,53,54
 40 333 40 333 118.5 423 c 128,-1,55
 197 513 197 513 304 513 c 0,56,57
 353 513 353 513 384.5 497 c 128,-1,58
 416 481 416 481 416 456 c 0,59,60
 416 416 416 416 359 416 c 0,61,62
 342 416 342 416 327 419 c 2,63,-1
 278 429 l 2,64,65
 257 433 257 433 239 433 c 0,0,1
EndSplineSet
EndChar

StartChar: W
Encoding: 87 87 56
Width: 768
GlyphClass: 2
Flags: W
LayerCount: 2
Fore
SplineSet
34 0 m 1,0,-1
 34 153 l 1,1,-1
 58 153 l 1,2,3
 68 90 68 90 127 90 c 2,4,-1
 273 90 l 1,5,-1
 270 128 l 1,6,7
 221 146 221 146 190 166 c 0,8,9
 132 203 132 203 100 260 c 128,-1,10
 68 317 68 317 68 382 c 0,11,12
 68 488 68 488 145 578 c 0,13,14
 238 686 238 686 385 686 c 128,-1,15
 532 686 532 686 625 578 c 0,16,17
 702 490 702 490 702 382 c 0,18,19
 702 317 702 317 670 260 c 128,-1,20
 638 203 638 203 580 166 c 0,21,22
 553 147 553 147 500 128 c 1,23,-1
 497 90 l 1,24,-1
 643 90 l 2,25,26
 702 90 702 90 712 153 c 1,27,-1
 736 153 l 1,28,-1
 736 0 l 1,29,-1
 444 0 l 1,30,-1
 462 154 l 1,31,32
 521 188 521 188 555.5 250 c 128,-1,33
 590 312 590 312 590 382 c 0,34,35
 590 466 590 466 549 540 c 0,36,37
 522 589 522 589 479.5 615.5 c 128,-1,38
 437 642 437 642 385 642 c 0,39,40
 334 642 334 642 291 615.5 c 128,-1,41
 248 589 248 589 221 540 c 0,42,43
 180 466 180 466 180 382 c 0,44,45
 180 312 180 312 214.5 250 c 128,-1,46
 249 188 249 188 308 154 c 1,47,-1
 326 0 l 1,48,-1
 34 0 l 1,0,-1
EndSplineSet
EndChar

StartChar: X
Encoding: 88 88 57
Width: 645
GlyphClass: 2
Flags: W
LayerCount: 2
Fore
SplineSet
570 505 m 1,0,-1
 544 505 l 1,1,2
 534 559 534 559 514 574 c 128,-1,3
 494 589 494 589 432 589 c 2,4,-1
 207 589 l 2,5,6
 143 589 143 589 123 574 c 128,-1,7
 103 559 103 559 94 505 c 1,8,-1
 68 505 l 1,9,-1
 78 673 l 1,10,-1
 560 673 l 1,11,-1
 570 505 l 1,0,-1
599 180 m 1,12,-1
 560 0 l 1,13,-1
 78 0 l 1,14,-1
 40 180 l 1,15,-1
 66 180 l 1,16,17
 85 118 85 118 113.5 101 c 128,-1,18
 142 84 142 84 226 84 c 2,19,-1
 398 84 l 2,20,21
 491 84 491 84 521.5 101 c 128,-1,22
 552 118 552 118 571 180 c 1,23,-1
 599 180 l 1,12,-1
446 228 m 1,24,-1
 422 228 l 1,25,26
 419 274 419 274 402.5 289 c 128,-1,27
 386 304 386 304 336 304 c 2,28,-1
 304 304 l 2,29,30
 255 304 255 304 238 289.5 c 128,-1,31
 221 275 221 275 217 228 c 1,32,-1
 193 228 l 1,33,-1
 193 457 l 1,34,-1
 217 457 l 1,35,36
 220 413 220 413 237 397.5 c 128,-1,37
 254 382 254 382 301 382 c 2,38,-1
 335 382 l 2,39,40
 383 382 383 382 400 397 c 128,-1,41
 417 412 417 412 422 457 c 1,42,-1
 446 457 l 1,43,-1
 446 228 l 1,24,-1
EndSplineSet
EndChar

StartChar: Y
Encoding: 89 89 58
Width: 795
GlyphClass: 2
Flags: W
LayerCount: 2
Fore
SplineSet
447 157 m 2,0,1
 447 76 447 76 467 52 c 0,2,3
 489 28 489 28 536 28 c 2,4,-1
 555 28 l 1,5,-1
 555 0 l 1,6,-1
 241 0 l 1,7,-1
 241 28 l 1,8,-1
 260 28 l 2,9,10
 307 28 307 28 329 52 c 0,11,12
 349 75 349 75 349 157 c 2,13,-1
 349 271 l 1,14,-1
 343 271 l 2,15,16
 215 271 215 271 151 311 c 0,17,18
 111 337 111 337 88.5 378.5 c 128,-1,19
 66 420 66 420 66 466 c 2,20,-1
 66 470 l 1,21,-1
 68 562 l 2,22,23
 68 624 68 624 48 647 c 0,24,25
 41 657 41 657 15 663 c 1,26,-1
 15 686 l 1,27,28
 105 677 105 677 140 635.5 c 128,-1,29
 175 594 175 594 179 490 c 0,30,31
 182 416 182 416 191 386 c 0,32,33
 210 326 210 326 283 315 c 0,34,35
 303 311 303 311 349 311 c 1,36,-1
 349 531 l 2,37,38
 349 599 349 599 330.5 622 c 128,-1,39
 312 645 312 645 256 647 c 1,40,-1
 256 673 l 1,41,-1
 540 673 l 1,42,-1
 540 647 l 1,43,44
 484 645 484 645 465.5 622 c 128,-1,45
 447 599 447 599 447 531 c 2,46,-1
 447 311 l 1,47,48
 529 311 529 311 562 331 c 0,49,50
 592 350 592 350 602.5 380.5 c 128,-1,51
 613 411 613 411 617 490 c 0,52,53
 621 594 621 594 656 635.5 c 128,-1,54
 691 677 691 677 781 686 c 1,55,-1
 781 663 l 1,56,57
 756 657 756 657 748 647 c 0,58,59
 728 624 728 624 728 562 c 2,60,-1
 730 470 l 1,61,-1
 730 466 l 2,62,63
 730 413 730 413 702 368 c 128,-1,64
 674 323 674 323 624 299 c 0,65,66
 564 271 564 271 455 271 c 2,67,-1
 447 271 l 1,68,-1
 447 157 l 2,0,1
EndSplineSet
EndChar

StartChar: Z
Encoding: 90 90 59
Width: 611
GlyphClass: 2
Flags: W
LayerCount: 2
Fore
SplineSet
195 41 m 1,0,-1
 425 41 l 2,1,2
 448 41 448 41 484 45 c 0,3,4
 531 50 531 50 563.5 82.5 c 128,-1,5
 596 115 596 115 610 171 c 1,6,-1
 636 171 l 1,7,-1
 599 0 l 1,8,-1
 44 0 l 1,9,-1
 465 630 l 1,10,-1
 283 630 l 2,11,12
 194 630 194 630 164.5 605 c 128,-1,13
 135 580 135 580 125 497 c 1,14,-1
 99 497 l 1,15,-1
 116 673 l 1,16,-1
 618 673 l 1,17,-1
 195 41 l 1,0,-1
EndSplineSet
EndChar

StartChar: bracketleft
Encoding: 91 91 60
Width: 333
GlyphClass: 2
Flags: W
LayerCount: 2
Fore
SplineSet
86 -165 m 1,0,-1
 86 673 l 1,1,-1
 299 673 l 1,2,-1
 299 639 l 1,3,-1
 200 639 l 2,4,5
 183 639 183 639 178 633.5 c 128,-1,6
 173 628 173 628 173 610 c 2,7,-1
 173 -108 l 2,8,9
 173 -121 173 -121 178 -126 c 128,-1,10
 183 -131 183 -131 196 -131 c 2,11,-1
 299 -131 l 1,12,-1
 299 -165 l 1,13,-1
 86 -165 l 1,0,-1
EndSplineSet
EndChar

StartChar: backslash
Encoding: 92 92 61
Width: 863
GlyphClass: 2
Flags: W
LayerCount: 2
Fore
SplineSet
225 112 m 0,0,1
 250 112 250 112 268.5 93.5 c 128,-1,2
 287 75 287 75 287 49 c 0,3,4
 287 24 287 24 268.5 5.5 c 128,-1,5
 250 -13 250 -13 225 -13 c 128,-1,6
 200 -13 200 -13 181.5 5.5 c 128,-1,7
 163 24 163 24 163 49 c 0,8,9
 163 75 163 75 181 93.5 c 128,-1,10
 199 112 199 112 225 112 c 0,0,1
367 371 m 0,11,12
 367 396 367 396 385.5 414.5 c 128,-1,13
 404 433 404 433 429 433 c 128,-1,14
 454 433 454 433 472.5 414.5 c 128,-1,15
 491 396 491 396 491 371 c 0,16,17
 491 345 491 345 473 326.5 c 128,-1,18
 455 308 455 308 429 308 c 128,-1,19
 403 308 403 308 385 326.5 c 128,-1,20
 367 345 367 345 367 371 c 0,11,12
639 112 m 0,21,22
 664 112 664 112 682.5 93.5 c 128,-1,23
 701 75 701 75 701 49 c 0,24,25
 701 24 701 24 682.5 5.5 c 128,-1,26
 664 -13 664 -13 639 -13 c 128,-1,27
 614 -13 614 -13 595.5 5.5 c 128,-1,28
 577 24 577 24 577 49 c 0,29,30
 577 75 577 75 595 93.5 c 128,-1,31
 613 112 613 112 639 112 c 0,21,22
EndSplineSet
EndChar

StartChar: bracketright
Encoding: 93 93 62
Width: 333
GlyphClass: 2
Flags: W
LayerCount: 2
Fore
SplineSet
33 -131 m 1,0,-1
 130 -131 l 2,1,2
 148 -131 148 -131 153.5 -126 c 128,-1,3
 159 -121 159 -121 159 -104 c 2,4,-1
 159 610 l 2,5,6
 159 628 159 628 154 633.5 c 128,-1,7
 149 639 149 639 132 639 c 2,8,-1
 33 639 l 1,9,-1
 33 673 l 1,10,-1
 246 673 l 1,11,-1
 246 -165 l 1,12,-1
 33 -165 l 1,13,-1
 33 -131 l 1,0,-1
EndSplineSet
EndChar

StartChar: asciicircum
Encoding: 94 94 63
Width: 658
GlyphClass: 2
Flags: W
LayerCount: 2
Fore
SplineSet
361 56 m 1,0,-1
 652 56 l 1,1,-1
 652 0 l 1,2,-1
 15 0 l 1,3,-1
 15 56 l 1,4,-1
 306 56 l 1,5,-1
 306 673 l 1,6,-1
 361 673 l 1,7,-1
 361 56 l 1,0,-1
EndSplineSet
EndChar

StartChar: underscore
Encoding: 95 95 64
Width: 500
GlyphClass: 2
Flags: W
LayerCount: 2
Fore
SplineSet
502 -206 m 1,0,-1
 502 -252 l 1,1,-1
 -2 -252 l 1,2,-1
 -2 -206 l 1,3,-1
 502 -206 l 1,0,-1
EndSplineSet
EndChar

StartChar: grave
Encoding: 96 96 65
Width: 500
GlyphClass: 2
Flags: W
LayerCount: 2
Fore
SplineSet
1090 913 m 1,0,-1
 1090 857 l 1,1,-1
 480 857 l 1,2,-1
 480 913 l 1,3,-1
 1090 913 l 1,0,-1
EndSplineSet
EndChar

StartChar: a
Encoding: 97 97 66
Width: 631
GlyphClass: 2
Flags: W
LayerCount: 2
Fore
SplineSet
585 500 m 1,0,-1
 472 185 l 1,1,2
 481 133 481 133 503 97.5 c 128,-1,3
 525 62 525 62 550 62 c 0,4,5
 569 62 569 62 581.5 87 c 128,-1,6
 594 112 594 112 596 151 c 1,7,-1
 622 151 l 1,8,-1
 622 138 l 2,9,10
 620 59 620 59 600.5 23 c 128,-1,11
 581 -13 581 -13 542 -13 c 0,12,13
 518 -13 518 -13 502 2 c 128,-1,14
 486 17 486 17 467 59 c 0,15,16
 451 93 451 93 444 121 c 1,17,18
 382 -13 382 -13 250 -13 c 0,19,20
 152 -13 152 -13 96.5 55.5 c 128,-1,21
 41 124 41 124 41 244 c 0,22,23
 41 391 41 391 125 463 c 0,24,25
 183 513 183 513 257 513 c 0,26,27
 396 513 396 513 435 328 c 1,28,-1
 496 500 l 1,29,-1
 585 500 l 1,0,-1
395 299 m 2,30,31
 365 470 365 470 258 470 c 0,32,33
 214 470 214 470 187 427 c 0,34,35
 146 360 146 360 146 250 c 0,36,37
 146 139 146 139 180 74 c 0,38,39
 192 52 192 52 213.5 38.5 c 128,-1,40
 235 25 235 25 258 25 c 0,41,42
 332 25 332 25 383 176 c 2,43,-1
 406 241 l 1,44,-1
 395 299 l 2,30,31
EndSplineSet
EndChar

StartChar: b
Encoding: 98 98 67
Width: 549
GlyphClass: 2
Flags: W
LayerCount: 2
Fore
SplineSet
352 433 m 1,0,1
 515 365 515 365 515 203 c 0,2,3
 515 107 515 107 459 47 c 128,-1,4
 403 -13 403 -13 314 -13 c 0,5,6
 232 -13 232 -13 159 42 c 1,7,-1
 159 -117 l 2,8,9
 159 -193 159 -193 143 -222 c 1,10,-1
 61 -222 l 1,11,12
 70 -189 70 -189 73 -158 c 0,13,14
 79 -98 79 -98 79 -62 c 2,15,-1
 79 574 l 2,16,17
 79 645 79 645 133 692.5 c 128,-1,18
 187 740 187 740 268 740 c 0,19,20
 348 740 348 740 406 692 c 128,-1,21
 464 644 464 644 464 577 c 0,22,23
 464 493 464 493 352 433 c 1,0,1
159 99 m 1,24,25
 213 37 213 37 294 37 c 0,26,27
 345 37 345 37 377 74 c 0,28,29
 411 112 411 112 411 195 c 0,30,31
 411 257 411 257 392 311 c 128,-1,32
 373 365 373 365 339 396 c 0,33,34
 331 403 331 403 313 403 c 0,35,36
 299 403 299 403 283 400 c 0,37,38
 268 397 268 397 262 397 c 0,39,40
 218 397 218 397 218 428 c 0,41,42
 218 443 218 443 230.5 453 c 128,-1,43
 243 463 243 463 262 463 c 0,44,45
 274 463 274 463 287 460 c 2,46,-1
 289 460 l 2,47,48
 291 459 291 459 292 459 c 2,49,-1
 304 456 l 2,50,51
 308 455 308 455 314 455 c 0,52,53
 334 455 334 455 351 490 c 128,-1,54
 368 525 368 525 368 566 c 0,55,56
 368 626 368 626 337.5 664.5 c 128,-1,57
 307 703 307 703 260 703 c 0,58,59
 215 703 215 703 187 670 c 128,-1,60
 159 637 159 637 159 584 c 2,61,-1
 159 99 l 1,24,25
EndSplineSet
EndChar

StartChar: c
Encoding: 99 99 68
Width: 549
GlyphClass: 2
Flags: W
LayerCount: 2
Fore
SplineSet
495 500 m 1,0,-1
 292 128 l 1,1,-1
 311 49 l 2,2,3
 334 -44 334 -44 356 -80 c 128,-1,4
 378 -116 378 -116 413 -116 c 0,5,6
 441 -116 441 -116 462 -98 c 0,7,8
 481 -81 481 -81 495 -32 c 1,9,-1
 498 -25 l 1,10,-1
 522 -25 l 1,11,12
 518 -100 518 -100 493 -145 c 0,13,14
 476 -174 476 -174 450.5 -192 c 128,-1,15
 425 -210 425 -210 399 -210 c 0,16,17
 351 -210 351 -210 321 -160 c 0,18,19
 300 -125 300 -125 283 -37 c 2,20,-1
 278 -14 l 1,21,-1
 262 74 l 1,22,-1
 120 -191 l 1,23,-1
 14 -191 l 1,24,-1
 232 208 l 1,25,-1
 202 331 l 2,26,27
 193 371 193 371 179 394 c 0,28,29
 152 434 152 434 113 434 c 0,30,31
 85 434 85 434 64.5 407 c 128,-1,32
 44 380 44 380 39 335 c 1,33,-1
 12 335 l 1,34,35
 19 419 19 419 49 466 c 128,-1,36
 79 513 79 513 124 513 c 0,37,38
 164 513 164 513 194 481 c 0,39,40
 215 458 215 458 226 412 c 2,41,-1
 262 263 l 1,42,-1
 391 500 l 1,43,-1
 495 500 l 1,0,-1
EndSplineSet
EndChar

StartChar: d
Encoding: 100 100 69
Width: 494
GlyphClass: 2
Flags: W
LayerCount: 2
Fore
SplineSet
158 535 m 2,0,1
 124 567 124 567 110.5 590 c 128,-1,2
 97 613 97 613 97 641 c 0,3,4
 97 687 97 687 137.5 713.5 c 128,-1,5
 178 740 178 740 248 740 c 0,6,7
 328 740 328 740 384.5 711 c 128,-1,8
 441 682 441 682 441 641 c 0,9,10
 441 623 441 623 427.5 611 c 128,-1,11
 414 599 414 599 394 599 c 0,12,13
 364 599 364 599 324 639 c 2,14,-1
 314 650 l 2,15,16
 286 678 286 678 266.5 688 c 128,-1,17
 247 698 247 698 219 698 c 0,18,19
 189 698 189 698 168 681 c 128,-1,20
 147 664 147 664 147 639 c 0,21,22
 147 607 147 607 206 562 c 0,23,24
 226 546 226 546 277 515 c 0,25,26
 345 475 345 475 372 452 c 0,27,28
 481 361 481 361 481 232 c 0,29,30
 481 133 481 133 412 61 c 0,31,32
 341 -13 341 -13 250 -13 c 0,33,34
 164 -13 164 -13 102 51.5 c 128,-1,35
 40 116 40 116 40 205 c 0,36,37
 40 261 40 261 67.5 311 c 128,-1,38
 95 361 95 361 144 395 c 0,39,40
 182 421 182 421 256 444 c 1,41,-1
 158 535 l 2,0,1
284 418 m 1,42,43
 148 388 148 388 148 227 c 0,44,45
 148 141 148 141 180.5 87.5 c 128,-1,46
 213 34 213 34 266 34 c 128,-1,47
 319 34 319 34 351 79.5 c 128,-1,48
 383 125 383 125 383 199 c 0,49,50
 383 284 383 284 340 352 c 0,51,52
 322 379 322 379 303 400 c 2,53,-1
 292 411 l 2,54,55
 289 414 289 414 286 416 c 2,56,-1
 284 418 l 1,42,43
EndSplineSet
EndChar

StartChar: e
Encoding: 101 101 70
Width: 439
GlyphClass: 2
Flags: W
LayerCount: 2
Fore
SplineSet
130 261 m 1,0,1
 94 278 94 278 76 290 c 0,2,3
 36 319 36 319 36 372 c 0,4,5
 36 427 36 427 89 468 c 0,6,7
 146 513 146 513 237 513 c 0,8,9
 308 513 308 513 353 487 c 128,-1,10
 398 461 398 461 398 421 c 0,11,12
 398 400 398 400 384 385.5 c 128,-1,13
 370 371 370 371 350 371 c 0,14,15
 314 371 314 371 299 414 c 2,16,-1
 291 437 l 2,17,18
 284 456 284 456 265.5 467 c 128,-1,19
 247 478 247 478 224 478 c 0,20,21
 184 478 184 478 156.5 447 c 128,-1,22
 129 416 129 416 129 371 c 0,23,24
 129 331 129 331 152 306.5 c 128,-1,25
 175 282 175 282 213 282 c 0,26,27
 227 282 227 282 236 283 c 2,28,-1
 251 285 l 1,29,-1
 257 285 l 1,30,-1
 263 286 l 2,31,32
 293 288 293 288 298 288 c 0,33,34
 332 288 332 288 332 264 c 0,35,36
 332 250 332 250 317 241 c 128,-1,37
 302 232 302 232 280 232 c 0,38,39
 262 232 262 232 245 236 c 0,40,41
 230 239 230 239 216 239 c 0,42,43
 177 239 177 239 153 212.5 c 128,-1,44
 129 186 129 186 129 142 c 128,-1,45
 129 98 129 98 158 73 c 0,46,47
 198 37 198 37 274 37 c 0,48,49
 327 37 327 37 357 57.5 c 128,-1,50
 387 78 387 78 403 125 c 1,51,-1
 427 116 l 1,52,53
 398 -13 398 -13 234 -13 c 0,54,55
 141 -13 141 -13 81.5 28.5 c 128,-1,56
 22 70 22 70 22 135 c 0,57,58
 22 182 22 182 53 216 c 0,59,60
 77 242 77 242 130 261 c 1,0,1
EndSplineSet
EndChar

StartChar: f
Encoding: 102 102 71
Width: 521
GlyphClass: 2
Flags: W
LayerCount: 2
Fore
SplineSet
279 -169 m 2,0,1
 279 -173 279 -173 280 -190 c 128,-1,2
 281 -207 281 -207 282 -222 c 1,3,-1
 235 -211 l 1,4,5
 237 -189 237 -189 237 -160 c 0,6,7
 238 -142 238 -142 238 -110 c 2,8,-1
 238 -9 l 1,9,10
 144 -1 144 -1 85.5 68.5 c 128,-1,11
 27 138 27 138 27 242 c 0,12,13
 27 345 27 345 87 421 c 128,-1,14
 147 497 147 497 236 507 c 1,15,-1
 238 508 l 1,16,-1
 238 597 l 2,17,18
 238 625 238 625 237 641 c 0,19,20
 237 666 237 666 235 686 c 1,21,-1
 282 667 l 1,22,23
 279 632 279 632 279 588 c 2,24,-1
 279 508 l 1,25,26
 374 500 374 500 432 433 c 128,-1,27
 490 366 490 366 490 263 c 0,28,29
 490 156 490 156 431 80.5 c 128,-1,30
 372 5 372 5 279 -8 c 1,31,-1
 279 -169 l 2,0,1
238 473 m 1,32,33
 185 471 185 471 154.5 421.5 c 128,-1,34
 124 372 124 372 124 287 c 0,35,36
 124 161 124 161 175 83 c 0,37,38
 195 50 195 50 238 33 c 1,39,-1
 238 473 l 1,32,33
279 27 m 1,40,41
 334 30 334 30 363 79.5 c 128,-1,42
 392 129 392 129 392 218 c 0,43,44
 392 314 392 314 362 380 c 128,-1,45
 332 446 332 446 279 466 c 1,46,-1
 279 27 l 1,40,41
EndSplineSet
EndChar

StartChar: g
Encoding: 103 103 72
Width: 411
GlyphClass: 2
Flags: W
LayerCount: 2
Fore
SplineSet
484 500 m 1,0,-1
 281 67 l 1,1,-1
 282 56 l 1,2,3
 298 -39 298 -39 298 -88 c 0,4,5
 298 -148 298 -148 279.5 -183.5 c 128,-1,6
 261 -219 261 -219 229 -219 c 0,7,8
 206 -219 206 -219 191.5 -197.5 c 128,-1,9
 177 -176 177 -176 177 -141 c 0,10,11
 177 -95 177 -95 202 -23 c 2,12,-1
 236 73 l 1,13,-1
 224 156 l 2,14,15
 208 280 208 280 164 374 c 0,16,17
 137 432 137 432 99 432 c 0,18,19
 53 432 53 432 35 379 c 0,20,21
 30 363 30 363 27 323 c 1,22,-1
 5 323 l 1,23,-1
 5 336 l 2,24,25
 7 399 7 399 12.5 426 c 128,-1,26
 18 453 18 453 34 477 c 0,27,28
 59 513 59 513 107 513 c 0,29,30
 158 513 158 513 185.5 469.5 c 128,-1,31
 213 426 213 426 236 311 c 2,32,-1
 266 156 l 1,33,-1
 377 500 l 1,34,-1
 484 500 l 1,0,-1
EndSplineSet
EndChar

StartChar: h
Encoding: 104 104 73
Width: 603
GlyphClass: 2
Flags: W
LayerCount: 2
Fore
SplineSet
120 356 m 2,0,1
 120 397 120 397 105.5 423 c 128,-1,2
 91 449 91 449 68 449 c 0,3,4
 33 449 33 449 24 358 c 1,5,-1
 0 358 l 1,6,7
 0 409 0 409 15 440 c 0,8,9
 29 470 29 470 55.5 487.5 c 128,-1,10
 82 505 82 505 113 505 c 0,11,12
 162 505 162 505 188 468 c 0,13,14
 201 448 201 448 207 411 c 1,15,16
 248 467 248 467 283 490 c 128,-1,17
 318 513 318 513 362 513 c 0,18,19
 424 513 424 513 464.5 472.5 c 128,-1,20
 505 432 505 432 505 369 c 2,21,-1
 505 -122 l 2,22,23
 505 -155 505 -155 527 -222 c 1,24,-1
 434 -222 l 1,25,26
 414 -151 414 -151 414 -99 c 2,27,-1
 414 340 l 2,28,29
 414 388 414 388 389.5 415.5 c 128,-1,30
 365 443 365 443 322 443 c 0,31,32
 259 443 259 443 207 364 c 1,33,-1
 207 0 l 1,34,-1
 119 0 l 1,35,-1
 120 356 l 2,0,1
EndSplineSet
EndChar

StartChar: i
Encoding: 105 105 74
Width: 329
GlyphClass: 2
Flags: W
LayerCount: 2
Fore
SplineSet
174 131 m 2,0,1
 174 39 174 39 224 39 c 0,2,3
 259 39 259 39 271 101 c 1,4,-1
 273 108 l 1,5,-1
 301 107 l 1,6,7
 290 62 290 62 275 38 c 0,8,9
 240 -13 240 -13 179 -13 c 0,10,11
 133 -13 133 -13 108 20 c 0,12,13
 88 48 88 48 88 116 c 2,14,-1
 88 357 l 2,15,16
 88 360 88 360 87.5 372 c 128,-1,17
 87 384 87 384 87 389 c 0,18,19
 84 438 84 438 39 438 c 0,20,21
 28 438 28 438 0 435 c 1,22,-1
 0 460 l 1,23,24
 103 482 103 482 175 513 c 1,25,-1
 174 131 l 2,0,1
EndSplineSet
EndChar

StartChar: j
Encoding: 106 106 75
Width: 603
GlyphClass: 2
Flags: W
LayerCount: 2
Fore
SplineSet
249 485 m 1,0,1
 146 445 146 445 146 283 c 0,2,3
 146 178 146 178 181.5 115.5 c 128,-1,4
 217 53 217 53 282 44 c 1,5,-1
 273 334 l 1,6,-1
 273 356 l 2,7,8
 273 427 273 427 307.5 470 c 128,-1,9
 342 513 342 513 398 513 c 0,10,11
 474 513 474 513 530.5 439.5 c 128,-1,12
 587 366 587 366 587 268 c 0,13,14
 587 160 587 160 517 81.5 c 128,-1,15
 447 3 447 3 349 1 c 1,16,-1
 349 -222 l 1,17,-1
 282 -222 l 1,18,-1
 282 1 l 1,19,20
 176 6 176 6 106 83 c 128,-1,21
 36 160 36 160 36 270 c 0,22,23
 36 401 36 401 135 470 c 0,24,25
 185 504 185 504 249 508 c 1,26,-1
 249 485 l 1,0,1
349 42 m 1,27,28
 417 47 417 47 458 100 c 128,-1,29
 499 153 499 153 499 235 c 0,30,31
 499 310 499 310 464.5 373 c 128,-1,32
 430 436 430 436 389 436 c 0,33,34
 336 436 336 436 336 332 c 0,35,36
 336 316 336 316 337 305 c 2,37,-1
 349 42 l 1,27,28
EndSplineSet
EndChar

StartChar: k
Encoding: 107 107 76
Width: 549
GlyphClass: 2
Flags: W
LayerCount: 2
Fore
SplineSet
229 319 m 2,0,1
 230 320 230 320 236.5 326 c 128,-1,2
 243 332 243 332 248 337 c 0,3,4
 286 376 286 376 336.5 419 c 128,-1,5
 387 462 387 462 414 479 c 0,6,7
 447 501 447 501 483 501 c 0,8,9
 516 501 516 501 537 485.5 c 128,-1,10
 558 470 558 470 558 445 c 0,11,12
 558 423 558 423 540.5 407.5 c 128,-1,13
 523 392 523 392 497 392 c 0,14,15
 479 392 479 392 464 403 c 2,16,-1
 453 412 l 2,17,18
 437 425 437 425 426 425 c 0,19,20
 403 425 403 425 336 362 c 2,21,-1
 276 306 l 1,22,-1
 431 111 l 1,23,-1
 448 91 l 2,24,25
 476 57 476 57 485.5 47.5 c 128,-1,26
 495 38 495 38 511 31 c 0,27,28
 529 24 529 24 549 24 c 2,29,-1
 558 24 l 1,30,-1
 558 0 l 1,31,-1
 321 0 l 1,32,-1
 321 20 l 1,33,-1
 326 20 l 2,34,35
 350 22 350 22 357.5 25.5 c 128,-1,36
 365 29 365 29 365 39 c 0,37,38
 365 46 365 46 351 62 c 2,39,-1
 197 250 l 1,40,-1
 197 0 l 1,41,-1
 119 0 l 1,42,-1
 119 357 l 2,43,44
 119 360 119 360 118.5 372 c 128,-1,45
 118 384 118 384 118 389 c 0,46,47
 115 438 115 438 70 438 c 0,48,49
 60 438 60 438 33 435 c 1,50,-1
 33 460 l 1,51,52
 57 465 57 465 110 479 c 0,53,54
 164 496 164 496 197 513 c 1,55,-1
 197 290 l 1,56,-1
 229 319 l 2,0,1
EndSplineSet
EndChar

StartChar: l
Encoding: 108 108 77
Width: 549
GlyphClass: 2
Flags: W
LayerCount: 2
Fore
SplineSet
51 569 m 1,0,1
 59 658 59 658 84 699 c 128,-1,2
 109 740 109 740 155 740 c 0,3,4
 205 740 205 740 240 691 c 0,5,6
 263 656 263 656 288 560 c 0,7,8
 310 478 310 478 323 403 c 0,9,10
 326 386 326 386 327 384 c 2,11,-1
 359 230 l 2,12,13
 376 142 376 142 400 108 c 0,14,15
 423 75 423 75 460 75 c 0,16,17
 515 75 515 75 527 156 c 1,18,-1
 548 156 l 1,19,20
 547 91 547 91 532 55 c 0,21,22
 506 -13 506 -13 445 -13 c 0,23,24
 381 -13 381 -13 349 65 c 0,25,26
 336 98 336 98 324 160 c 0,27,28
 310 224 310 224 301 280 c 2,29,-1
 288 358 l 1,30,-1
 118 0 l 1,31,-1
 24 0 l 1,32,-1
 255 498 l 1,33,34
 241 557 241 557 230 590 c 0,35,36
 207 660 207 660 156 660 c 0,37,38
 122 660 122 660 101 636 c 128,-1,39
 80 612 80 612 75 569 c 1,40,-1
 51 569 l 1,0,1
EndSplineSet
EndChar

StartChar: m
Encoding: 109 109 78
Width: 576
GlyphClass: 2
Flags: W
LayerCount: 2
Fore
SplineSet
441 131 m 2,0,1
 441 90 441 90 455 65 c 128,-1,2
 469 40 469 40 491 40 c 0,3,4
 509 40 509 40 523 60 c 128,-1,5
 537 80 537 80 540 109 c 1,6,-1
 567 108 l 1,7,8
 556 50 556 50 525 18.5 c 128,-1,9
 494 -13 494 -13 448 -13 c 0,10,11
 400 -13 400 -13 377 21 c 0,12,13
 364 38 364 38 354 80 c 1,14,15
 274 -13 274 -13 199 -13 c 0,16,17
 153 -13 153 -13 101 33 c 1,18,-1
 101 20 l 2,19,20
 101 -10 101 -10 112 -53 c 0,21,22
 131 -118 131 -118 131 -145 c 0,23,24
 131 -178 131 -178 117.5 -198.5 c 128,-1,25
 104 -219 104 -219 83 -219 c 0,26,27
 61 -219 61 -219 47 -199 c 128,-1,28
 33 -179 33 -179 33 -147 c 0,29,30
 33 -124 33 -124 41 -92 c 2,31,-1
 50 -56 l 2,32,33
 62 -11 62 -11 62 20 c 2,34,-1
 62 500 l 1,35,-1
 150 500 l 1,36,-1
 150 169 l 2,37,38
 150 117 150 117 174 87.5 c 128,-1,39
 198 58 198 58 241 58 c 0,40,41
 303 58 303 58 353 131 c 1,42,-1
 353 500 l 1,43,-1
 442 500 l 1,44,-1
 441 131 l 2,0,1
EndSplineSet
EndChar

StartChar: n
Encoding: 110 110 79
Width: 521
GlyphClass: 2
Flags: W
LayerCount: 2
Fore
SplineSet
-9 488 m 1,0,1
 62 492 62 492 125 513 c 1,2,-1
 280 121 l 1,3,-1
 356 267 l 2,4,5
 381 315 381 315 381 351 c 0,6,7
 381 367 381 367 374 401 c 2,8,-1
 366 441 l 2,9,10
 364 453 364 453 364 458 c 0,11,12
 364 480 364 480 380 496.5 c 128,-1,13
 396 513 396 513 418 513 c 0,14,15
 441 513 441 513 458 495.5 c 128,-1,16
 475 478 475 478 475 454 c 0,17,18
 475 422 475 422 448 360 c 0,19,20
 423 306 423 306 400 263 c 2,21,-1
 332 136 l 1,22,-1
 296 62 l 2,23,24
 290 48 290 48 270 0 c 2,25,-1
 265 -13 l 1,26,-1
 235 -13 l 1,27,-1
 74 396 l 2,28,29
 57 440 57 440 45 449 c 128,-1,30
 33 458 33 458 -9 459 c 1,31,-1
 -9 488 l 1,0,1
EndSplineSet
EndChar

StartChar: o
Encoding: 111 111 80
Width: 549
GlyphClass: 2
Flags: W
LayerCount: 2
Fore
SplineSet
35 242 m 0,0,1
 35 356 35 356 104 434.5 c 128,-1,2
 173 513 173 513 273 513 c 128,-1,3
 373 513 373 513 437 442.5 c 128,-1,4
 501 372 501 372 501 263 c 0,5,6
 501 147 501 147 432 67 c 128,-1,7
 363 -13 363 -13 262 -13 c 0,8,9
 164 -13 164 -13 99.5 59.5 c 128,-1,10
 35 132 35 132 35 242 c 0,0,1
251 476 m 0,11,12
 197 476 197 476 165.5 425.5 c 128,-1,13
 134 375 134 375 134 287 c 0,14,15
 134 160 134 160 185 80 c 0,16,17
 221 24 221 24 284 24 c 0,18,19
 340 24 340 24 371 74.5 c 128,-1,20
 402 125 402 125 402 217 c 0,21,22
 402 333 402 333 360 404.5 c 128,-1,23
 318 476 318 476 251 476 c 0,11,12
EndSplineSet
EndChar

StartChar: p
Encoding: 112 112 81
Width: 549
GlyphClass: 2
Flags: W
LayerCount: 2
Fore
SplineSet
10 348 m 1,0,1
 24 394 24 394 37 419 c 128,-1,2
 50 444 50 444 71 465 c 0,3,4
 93 486 93 486 113 493 c 128,-1,5
 133 500 133 500 173 500 c 2,6,-1
 523 500 l 1,7,-1
 523 411 l 1,8,-1
 397 411 l 1,9,10
 392 367 392 367 391 344 c 0,11,12
 385 262 385 262 385 185 c 0,13,14
 385 144 385 144 397 120 c 0,15,16
 415 85 415 85 449 85 c 0,17,18
 498 85 498 85 506 158 c 1,19,-1
 530 158 l 1,20,21
 526 95 526 95 509 61 c 0,22,23
 473 -13 473 -13 412 -13 c 0,24,25
 366 -13 366 -13 339 34.5 c 128,-1,26
 312 82 312 82 312 163 c 0,27,28
 312 267 312 267 333 411 c 1,29,-1
 224 411 l 1,30,-1
 210 259 l 2,31,32
 210 256 210 256 209 250.5 c 128,-1,33
 208 245 208 245 207 234 c 128,-1,34
 206 223 206 223 204 209 c 0,35,36
 195 130 195 130 189 92 c 0,37,38
 174 -13 174 -13 112 -13 c 0,39,40
 89 -13 89 -13 73 3 c 128,-1,41
 57 19 57 19 57 42 c 0,42,43
 57 71 57 71 98 108 c 0,44,45
 144 153 144 153 148 189 c 2,46,-1
 174 411 l 1,47,-1
 128 411 l 2,48,49
 94 411 94 411 74.5 400 c 128,-1,50
 55 389 55 389 36 358 c 2,51,-1
 30 348 l 1,52,-1
 10 348 l 1,0,1
EndSplineSet
EndChar

StartChar: q
Encoding: 113 113 82
Width: 521
GlyphClass: 2
Flags: W
LayerCount: 2
Fore
SplineSet
264 686 m 0,0,1
 330 686 330 686 393 628 c 0,2,3
 485 539 485 539 485 336 c 0,4,5
 485 120 485 120 380 34 c 0,6,7
 324 -13 324 -13 264 -13 c 0,8,9
 196 -13 196 -13 135 45 c 0,10,11
 43 132 43 132 43 336 c 0,12,13
 43 553 43 553 148 639 c 0,14,15
 206 686 206 686 264 686 c 0,0,1
146 312 m 1,16,-1
 146 309 l 2,17,18
 149 120 149 120 205 58 c 0,19,20
 234 26 234 26 264 26 c 0,21,22
 297 26 297 26 328 65 c 0,23,24
 378 129 378 129 382 309 c 1,25,-1
 382 312 l 1,26,-1
 146 312 l 1,16,-1
382 371 m 1,27,28
 377 557 377 557 322 617 c 0,29,30
 293 649 293 649 264 649 c 0,31,32
 230 649 230 649 199 610 c 0,33,34
 149 546 149 546 146 371 c 2,35,-1
 146 368 l 1,36,-1
 382 368 l 1,37,-1
 382 371 l 1,27,28
EndSplineSet
EndChar

StartChar: r
Encoding: 114 114 83
Width: 549
GlyphClass: 2
Flags: W
LayerCount: 2
Fore
SplineSet
150 -128 m 2,0,1
 149 -189 149 -189 144 -220 c 1,2,-1
 50 -220 l 1,3,4
 60 -178 60 -178 60 -120 c 2,5,-1
 60 272 l 2,6,7
 60 325 60 325 68 356 c 128,-1,8
 76 387 76 387 97 412 c 0,9,10
 138 463 138 463 195 494 c 0,11,12
 228 513 228 513 274 513 c 0,13,14
 368 513 368 513 429 443.5 c 128,-1,15
 490 374 490 374 490 267 c 0,16,17
 490 155 490 155 423 71 c 128,-1,18
 356 -13 356 -13 267 -13 c 0,19,20
 190 -13 190 -13 150 46 c 1,21,-1
 150 -128 l 2,0,1
150 155 m 1,22,-1
 150 143 l 2,23,24
 151 109 151 109 170 85 c 0,25,26
 206 36 206 36 261 36 c 0,27,28
 322 36 322 36 360 86 c 128,-1,29
 398 136 398 136 398 217 c 0,30,31
 398 313 398 313 346.5 383 c 128,-1,32
 295 453 295 453 224 453 c 0,33,34
 190 453 190 453 167 421 c 128,-1,35
 144 389 144 389 144 341 c 2,36,-1
 144 322 l 1,37,-1
 150 155 l 1,22,-1
EndSplineSet
EndChar

StartChar: s
Encoding: 115 115 84
Width: 603
GlyphClass: 2
Flags: W
LayerCount: 2
Fore
SplineSet
370 413 m 1,0,1
 533 318 533 318 533 200 c 0,2,3
 533 115 533 115 461 49 c 0,4,5
 393 -13 393 -13 289 -13 c 0,6,7
 176 -13 176 -13 101 73 c 0,8,9
 30 153 30 153 30 255 c 0,10,11
 30 325 30 325 69.5 381.5 c 128,-1,12
 109 438 109 438 182 471 c 0,13,14
 249 500 249 500 361 500 c 2,15,-1
 588 500 l 1,16,-1
 588 413 l 1,17,-1
 370 413 l 1,0,1
291 413 m 2,18,19
 221 413 221 413 178 369 c 128,-1,20
 135 325 135 325 135 254 c 0,21,22
 135 162 135 162 184.5 96 c 128,-1,23
 234 30 234 30 304 30 c 0,24,25
 359 30 359 30 393 78 c 128,-1,26
 427 126 427 126 427 204 c 0,27,28
 427 262 427 262 407.5 303 c 128,-1,29
 388 344 388 344 333 401 c 2,30,-1
 322 413 l 1,31,-1
 291 413 l 2,18,19
EndSplineSet
EndChar

StartChar: t
Encoding: 116 116 85
Width: 439
GlyphClass: 2
Flags: W
LayerCount: 2
Fore
SplineSet
10 309 m 1,0,1
 33 404 33 404 76 452 c 0,2,3
 120 500 120 500 191 500 c 2,4,-1
 418 500 l 1,5,-1
 418 404 l 1,6,-1
 254 404 l 1,7,8
 250 376 250 376 248 334 c 0,9,10
 247 318 247 318 245 294 c 128,-1,11
 243 270 243 270 243 262 c 0,12,13
 237 210 237 210 237 178 c 0,14,15
 237 139 237 139 260 111.5 c 128,-1,16
 283 84 283 84 316 84 c 0,17,18
 339 84 339 84 351 101.5 c 128,-1,19
 363 119 363 119 369 161 c 1,20,-1
 394 161 l 1,21,22
 391 94 391 94 376 57 c 0,23,24
 364 26 364 26 337 6.5 c 128,-1,25
 310 -13 310 -13 280 -13 c 0,26,27
 234 -13 234 -13 207.5 32 c 128,-1,28
 181 77 181 77 181 154 c 0,29,30
 181 190 181 190 187 274 c 0,31,32
 188 301 188 301 199 382 c 2,33,-1
 202 404 l 1,34,-1
 129 404 l 2,35,36
 93 404 93 404 75 382 c 0,37,38
 52 353 52 353 36 309 c 1,39,-1
 10 309 l 1,0,1
EndSplineSet
EndChar

StartChar: u
Encoding: 117 117 86
Width: 576
GlyphClass: 2
Flags: W
LayerCount: 2
Fore
SplineSet
7 364 m 1,0,1
 10 373 10 373 11 375.5 c 128,-1,2
 12 378 12 378 12 379 c 0,3,4
 33 445 33 445 53 473 c 0,5,6
 81 513 81 513 129 513 c 0,7,8
 179 513 179 513 200.5 475.5 c 128,-1,9
 222 438 222 438 223 351 c 2,10,-1
 226 175 l 2,11,12
 227 110 227 110 254.5 69 c 128,-1,13
 282 28 282 28 325 28 c 0,14,15
 384 28 384 28 416 96 c 0,16,17
 453 172 453 172 453 267 c 0,18,19
 453 368 453 368 409 429 c 0,20,21
 386 460 386 460 335 488 c 1,22,-1
 343 513 l 1,23,24
 431 479 431 479 473 430 c 0,25,26
 535 359 535 359 535 249 c 0,27,28
 535 130 535 130 472 54 c 0,29,30
 414 -13 414 -13 311 -13 c 0,31,32
 232 -13 232 -13 187.5 37 c 128,-1,33
 143 87 143 87 141 178 c 2,34,-1
 138 340 l 2,35,36
 137 393 137 393 129 413 c 128,-1,37
 121 433 121 433 100 433 c 0,38,39
 57 433 57 433 37 364 c 1,40,-1
 7 364 l 1,0,1
EndSplineSet
EndChar

StartChar: v
Encoding: 118 118 87
Width: 713
GlyphClass: 2
Flags: W
LayerCount: 2
Fore
SplineSet
506 493 m 1,0,1
 579 474 579 474 623 402.5 c 128,-1,2
 667 331 667 331 667 230 c 0,3,4
 667 127 667 127 615.5 57 c 128,-1,5
 564 -13 564 -13 487 -13 c 0,6,7
 396 -13 396 -13 346 88 c 1,8,9
 296 -13 296 -13 205 -13 c 0,10,11
 129 -13 129 -13 77 57 c 128,-1,12
 25 127 25 127 25 230 c 0,13,14
 25 330 25 330 68 401.5 c 128,-1,15
 111 473 111 473 184 493 c 1,16,-1
 181 493 l 2,17,18
 127 492 127 492 96 481.5 c 128,-1,19
 65 471 65 471 29 442 c 1,20,-1
 12 442 l 1,21,22
 37 513 37 513 85 553 c 0,23,24
 123 583 123 583 171 583 c 2,25,-1
 671 583 l 1,26,-1
 671 493 l 1,27,-1
 506 493 l 1,0,1
281 493 m 1,28,29
 223 477 223 477 191 440 c 0,30,31
 163 409 163 409 147 354.5 c 128,-1,32
 131 300 131 300 131 238 c 0,33,34
 131 134 131 134 162 75 c 0,35,36
 171 58 171 58 189 47 c 128,-1,37
 207 36 207 36 226 36 c 0,38,39
 250 36 250 36 271.5 51 c 128,-1,40
 293 66 293 66 304 91 c 0,41,42
 313 112 313 112 322 159 c 1,43,-1
 318 169 l 1,44,45
 292 246 292 246 292 307 c 0,46,47
 292 359 292 359 306.5 388.5 c 128,-1,48
 321 418 321 418 346 418 c 128,-1,49
 371 418 371 418 385 388.5 c 128,-1,50
 399 359 399 359 399 307 c 0,51,52
 399 244 399 244 374 169 c 1,53,-1
 370 159 l 1,54,55
 379 112 379 112 388 91 c 0,56,57
 399 66 399 66 420.5 51.5 c 128,-1,58
 442 37 442 37 466 37 c 0,59,60
 510 37 510 37 530 75 c 0,61,62
 561 134 561 134 561 238 c 0,63,64
 561 306 561 306 542.5 362.5 c 128,-1,65
 524 419 524 419 492 450 c 0,66,67
 461 478 461 478 411 493 c 1,68,-1
 281 493 l 1,28,29
EndSplineSet
EndChar

StartChar: w
Encoding: 119 119 88
Width: 686
GlyphClass: 2
Flags: W
LayerCount: 2
Fore
SplineSet
363 88 m 1,0,1
 312 -13 312 -13 222 -13 c 0,2,3
 146 -13 146 -13 94 57 c 128,-1,4
 42 127 42 127 42 231 c 0,5,6
 42 324 42 324 79 395 c 128,-1,7
 116 466 116 466 178 493 c 0,8,9
 222 512 222 512 298 513 c 1,10,-1
 298 487 l 1,11,12
 240 470 240 470 208 436 c 0,13,14
 180 405 180 405 164 351.5 c 128,-1,15
 148 298 148 298 148 237 c 0,16,17
 148 132 148 132 179 75 c 0,18,19
 188 58 188 58 206 47 c 128,-1,20
 224 36 224 36 243 36 c 0,21,22
 318 36 318 36 339 159 c 1,23,-1
 335 169 l 1,24,25
 310 243 310 243 310 306 c 0,26,27
 310 358 310 358 324 388 c 128,-1,28
 338 418 338 418 363 418 c 128,-1,29
 388 418 388 418 402 388.5 c 128,-1,30
 416 359 416 359 416 307 c 0,31,32
 416 244 416 244 391 169 c 1,33,-1
 387 159 l 1,34,35
 408 37 408 37 484 37 c 0,36,37
 527 37 527 37 547 75 c 0,38,39
 578 134 578 134 578 237 c 0,40,41
 578 304 578 304 559.5 359.5 c 128,-1,42
 541 415 541 415 509 445 c 0,43,44
 478 474 478 474 428 487 c 1,45,-1
 428 513 l 1,46,47
 513 512 513 512 559 488 c 0,48,49
 617 458 617 458 650.5 389 c 128,-1,50
 684 320 684 320 684 231 c 0,51,52
 684 127 684 127 632.5 57 c 128,-1,53
 581 -13 581 -13 504 -13 c 0,54,55
 414 -13 414 -13 363 88 c 1,0,1
EndSplineSet
EndChar

StartChar: x
Encoding: 120 120 89
Width: 493
GlyphClass: 2
Flags: W
LayerCount: 2
Fore
SplineSet
173 746 m 1,0,1
 121 731 121 731 121 699 c 0,2,3
 121 679 121 679 135.5 666.5 c 128,-1,4
 150 654 150 654 173 653 c 1,5,6
 261 733 261 733 316 733 c 0,7,8
 360 733 360 733 360 703 c 0,9,10
 360 665 360 665 304 638 c 0,11,12
 267 619 267 619 193 616 c 1,13,14
 137 574 137 574 137 527 c 0,15,16
 137 503 137 503 149.5 484.5 c 128,-1,17
 162 466 162 466 193 444 c 1,18,-1
 208 450 l 1,19,20
 287 486 287 486 339 486 c 0,21,22
 409 486 409 486 409 450 c 0,23,24
 409 424 409 424 375 409 c 128,-1,25
 341 394 341 394 282 394 c 0,26,27
 242 394 242 394 202 407 c 1,28,29
 156 381 156 381 127 351 c 0,30,31
 76 297 76 297 76 228 c 0,32,33
 76 189 76 189 95.5 156 c 128,-1,34
 115 123 115 123 148 110 c 0,35,36
 175 98 175 98 243 98 c 2,37,-1
 329 98 l 2,38,39
 389 98 389 98 420 75 c 0,40,41
 469 38 469 38 469 -29 c 0,42,43
 469 -100 469 -100 424 -159 c 0,44,45
 378 -222 378 -222 308 -222 c 0,46,47
 272 -222 272 -222 248.5 -205.5 c 128,-1,48
 225 -189 225 -189 225 -164 c 0,49,50
 225 -145 225 -145 236.5 -133.5 c 128,-1,51
 248 -122 248 -122 267 -122 c 0,52,53
 272 -122 272 -122 283.5 -123.5 c 128,-1,54
 295 -125 295 -125 299 -125 c 2,55,-1
 308 -127 l 2,56,57
 346 -132 346 -132 353 -132 c 0,58,59
 381 -132 381 -132 399 -113.5 c 128,-1,60
 417 -95 417 -95 417 -66 c 128,-1,61
 417 -37 417 -37 397.5 -18.5 c 128,-1,62
 378 0 378 0 349 0 c 2,63,-1
 304 -2 l 1,64,-1
 293 -2 l 2,65,66
 283 -3 283 -3 260 -3 c 0,67,68
 172 -3 172 -3 128 19 c 0,69,70
 83 42 83 42 55 91.5 c 128,-1,71
 27 141 27 141 27 201 c 0,72,73
 27 293 27 293 85 362 c 0,74,75
 103 384 103 384 152 423 c 1,76,77
 99 475 99 475 99 529 c 0,78,79
 99 579 99 579 136 616 c 1,80,81
 66 636 66 636 66 689 c 0,82,83
 66 720 66 720 91 743 c 128,-1,84
 116 766 116 766 150 766 c 0,85,86
 163 766 163 766 173 764 c 1,87,-1
 173 746 l 1,0,1
EndSplineSet
EndChar

StartChar: y
Encoding: 121 121 90
Width: 686
GlyphClass: 2
Flags: W
LayerCount: 2
Fore
SplineSet
389 40 m 1,0,1
 448 53 448 53 472 104 c 0,2,3
 483 127 483 127 489 188 c 2,4,-1
 509 377 l 2,5,6
 516 436 516 436 551.5 474.5 c 128,-1,7
 587 513 587 513 636 513 c 0,8,9
 659 513 659 513 701 500 c 1,10,-1
 701 481 l 1,11,12
 673 476 673 476 663 472 c 0,13,14
 628 459 628 459 622 424 c 2,15,-1
 617 388 l 1,16,-1
 603 225 l 2,17,18
 595 136 595 136 537 73.5 c 128,-1,19
 479 11 479 11 389 -3 c 1,20,-1
 389 -222 l 1,21,-1
 324 -222 l 1,22,-1
 324 -3 l 1,23,24
 234 11 234 11 176 73.5 c 128,-1,25
 118 136 118 136 110 225 c 2,26,-1
 96 388 l 2,27,28
 96 389 96 389 95.5 390.5 c 128,-1,29
 95 392 95 392 94.5 395 c 128,-1,30
 94 398 94 398 94 401 c 2,31,-1
 90 424 l 2,32,33
 86 450 86 450 69.5 461.5 c 128,-1,34
 53 473 53 473 12 481 c 1,35,-1
 12 500 l 1,36,37
 54 513 54 513 76 513 c 0,38,39
 125 513 125 513 161 474.5 c 128,-1,40
 197 436 197 436 204 377 c 2,41,-1
 224 188 l 2,42,43
 231 118 231 118 247 93 c 0,44,45
 272 51 272 51 324 40 c 1,46,-1
 324 500 l 1,47,-1
 389 500 l 1,48,-1
 389 40 l 1,0,1
EndSplineSet
EndChar

StartChar: z
Encoding: 122 122 91
Width: 494
GlyphClass: 2
Flags: W
LayerCount: 2
Fore
SplineSet
215 615 m 1,0,1
 344 731 344 731 396 731 c 0,2,3
 413 731 413 731 424 722 c 128,-1,4
 435 713 435 713 435 699 c 0,5,6
 435 660 435 660 371 621 c 0,7,8
 322 593 322 593 254 586 c 1,9,10
 191 530 191 530 150.5 436.5 c 128,-1,11
 110 343 110 343 110 253 c 0,12,13
 110 183 110 183 143 140.5 c 128,-1,14
 176 98 176 98 230 98 c 2,15,-1
 249 98 l 2,16,17
 253 99 253 99 261 99 c 2,18,-1
 294 99 l 2,19,20
 378 99 378 99 422.5 62.5 c 128,-1,21
 467 26 467 26 467 -44 c 0,22,23
 467 -123 467 -123 420.5 -172.5 c 128,-1,24
 374 -222 374 -222 301 -222 c 0,25,26
 263 -222 263 -222 238.5 -206.5 c 128,-1,27
 214 -191 214 -191 214 -167 c 0,28,29
 214 -147 214 -147 230.5 -133.5 c 128,-1,30
 247 -120 247 -120 270 -120 c 0,31,32
 283 -120 283 -120 304 -126 c 2,33,-1
 343 -136 l 2,34,35
 349 -138 349 -138 359 -138 c 0,36,37
 385 -138 385 -138 405.5 -116 c 128,-1,38
 426 -94 426 -94 426 -65 c 128,-1,39
 426 -36 426 -36 405.5 -19 c 128,-1,40
 385 -2 385 -2 350 -2 c 0,41,42
 329 -2 329 -2 315 -3 c 2,43,-1
 303 -4 l 1,44,-1
 292 -4 l 2,45,46
 291 -4 291 -4 284.5 -4.5 c 128,-1,47
 278 -5 278 -5 272 -5 c 0,48,49
 262 -6 262 -6 250 -6 c 0,50,51
 190 -6 190 -6 140 32 c 0,52,53
 97 66 97 66 78.5 111 c 128,-1,54
 60 156 60 156 60 230 c 0,55,56
 60 328 60 328 90.5 410 c 128,-1,57
 121 492 121 492 192 586 c 1,58,59
 142 598 142 598 122 614.5 c 128,-1,60
 102 631 102 631 102 660 c 0,61,62
 102 700 102 700 133 726 c 128,-1,63
 164 752 164 752 215 756 c 1,64,-1
 215 736 l 1,65,66
 162 714 162 714 162 674 c 0,67,68
 162 631 162 631 215 615 c 1,0,1
EndSplineSet
EndChar

StartChar: braceleft
Encoding: 123 123 92
Width: 480
GlyphClass: 2
Flags: W
LayerCount: 2
Fore
SplineSet
140 277 m 1,0,1
 198 266 198 266 224 250 c 0,2,3
 266 224 266 224 266 165 c 2,4,-1
 266 -48 l 2,5,6
 266 -84 266 -84 275.5 -99.5 c 128,-1,7
 285 -115 285 -115 314 -126 c 0,8,9
 347 -140 347 -140 397 -141 c 1,10,-1
 397 -165 l 1,11,12
 387 -165 387 -165 374.5 -165.5 c 128,-1,13
 362 -166 362 -166 359 -166 c 0,14,15
 260 -166 260 -166 219.5 -137.5 c 128,-1,16
 179 -109 179 -109 179 -39 c 2,17,-1
 179 175 l 2,18,19
 179 204 179 204 171.5 218 c 128,-1,20
 164 232 164 232 144 243 c 0,21,22
 114 258 114 258 58 265 c 1,23,-1
 58 289 l 1,24,25
 119 299 119 299 147 315 c 0,26,27
 166 325 166 325 172.5 339 c 128,-1,28
 179 353 179 353 179 379 c 2,29,-1
 179 557 l 2,30,31
 179 621 179 621 227 648 c 0,32,33
 254 664 254 664 293 669 c 0,34,35
 314 673 314 673 382 673 c 2,36,-1
 396 673 l 1,37,-1
 396 649 l 1,38,39
 338 645 338 645 306 631 c 0,40,41
 283 620 283 620 274.5 604.5 c 128,-1,42
 266 589 266 589 266 556 c 2,43,-1
 266 384 l 2,44,45
 266 331 266 331 227 306 c 0,46,47
 202 289 202 289 140 277 c 1,0,1
EndSplineSet
EndChar

StartChar: bar
Encoding: 124 124 93
Width: 200
GlyphClass: 2
Flags: W
LayerCount: 2
Fore
SplineSet
135 673 m 1,0,-1
 135 -177 l 1,1,-1
 65 -177 l 1,2,-1
 65 673 l 1,3,-1
 135 673 l 1,0,-1
EndSplineSet
EndChar

StartChar: braceright
Encoding: 125 125 94
Width: 480
GlyphClass: 2
Flags: W
LayerCount: 2
Fore
SplineSet
335 277 m 1,0,1
 274 289 274 289 249 306 c 0,2,3
 209 332 209 332 209 384 c 2,4,-1
 209 556 l 2,5,6
 209 591 209 591 200 606.5 c 128,-1,7
 191 622 191 622 165 633 c 0,8,9
 136 645 136 645 80 649 c 1,10,-1
 80 673 l 1,11,-1
 99 673 l 2,12,13
 164 673 164 673 197 667 c 128,-1,14
 230 661 230 661 255 645 c 0,15,16
 297 617 297 617 297 557 c 2,17,-1
 297 379 l 2,18,19
 297 353 297 353 303.5 339 c 128,-1,20
 310 325 310 325 329 315 c 0,21,22
 357 299 357 299 418 289 c 1,23,-1
 418 265 l 1,24,25
 362 258 362 258 332 243 c 0,26,27
 312 232 312 232 304.5 218 c 128,-1,28
 297 204 297 204 297 175 c 2,29,-1
 297 -39 l 2,30,31
 297 -109 297 -109 256 -137.5 c 128,-1,32
 215 -166 215 -166 114 -166 c 0,33,34
 112 -166 112 -166 100 -165.5 c 128,-1,35
 88 -165 88 -165 79 -165 c 1,36,-1
 79 -141 l 1,37,38
 129 -140 129 -140 166 -125 c 0,39,40
 192 -114 192 -114 200.5 -98.5 c 128,-1,41
 209 -83 209 -83 209 -48 c 2,42,-1
 209 165 l 2,43,44
 209 224 209 224 251 250 c 0,45,46
 278 266 278 266 335 277 c 1,0,1
EndSplineSet
EndChar

StartChar: asciitilde
Encoding: 126 126 95
Width: 549
Flags: W
LayerCount: 2
Fore
SplineSet
489 325 m 1,0,-1
 529 292 l 1,1,2
 482 206 482 206 385 206 c 0,3,4
 361 206 361 206 345.5 209.5 c 128,-1,5
 330 213 330 213 271 231 c 0,6,7
 203 252 203 252 189 255 c 128,-1,8
 175 258 175 258 159 258 c 0,9,10
 130 258 130 258 112 246.5 c 128,-1,11
 94 235 94 235 60 196 c 1,12,-1
 17 229 l 1,13,14
 75 313 75 313 160 313 c 0,15,16
 195 313 195 313 285 286 c 0,17,18
 363 261 363 261 384 261 c 0,19,20
 414 261 414 261 434.5 274 c 128,-1,21
 455 287 455 287 489 325 c 1,0,-1
EndSplineSet
EndChar

StartChar: uni00A0
Encoding: 160 160 96
Width: 713
Flags: W
LayerCount: 2
Fore
SplineSet
20 -69 m 1,0,-1
 668 -69 l 1,1,-1
 668 -125 l 1,2,-1
 20 -125 l 1,3,-1
 20 -69 l 1,0,-1
20 0 m 1,4,-1
 20 56 l 1,5,-1
 328 56 l 2,6,7
 438 56 438 56 475 63 c 0,8,9
 546 75 546 75 584 127 c 0,10,11
 619 174 619 174 619 235 c 0,12,13
 619 282 619 282 597.5 322 c 128,-1,14
 576 362 576 362 538 386 c 0,15,16
 503 408 503 408 433 413 c 0,17,18
 411 414 411 414 328 414 c 2,19,-1
 20 414 l 1,20,-1
 20 470 l 1,21,-1
 326 470 l 2,22,23
 449 470 449 470 488 463 c 0,24,25
 576 448 576 448 629 372 c 0,26,27
 673 311 673 311 673 235 c 256,28,29
 673 159 673 159 629 98 c 0,30,31
 576 22 576 22 488 7 c 0,32,33
 449 0 449 0 326 0 c 2,34,-1
 20 0 l 1,4,-1
EndSplineSet
EndChar

StartChar: exclamdown
Encoding: 161 161 97
Width: 686
Flags: W
LayerCount: 2
Fore
SplineSet
10 62 m 1,0,-1
 111 124 l 2,1,2
 132 138 132 138 151 138 c 0,3,4
 168 138 168 138 190 126 c 2,5,-1
 337 48 l 2,6,7
 367 32 367 32 387 32 c 0,8,9
 408 32 408 32 431.5 40 c 128,-1,10
 455 48 455 48 471 61 c 0,11,12
 500 85 500 85 500 126 c 0,13,14
 500 162 500 162 477 203 c 2,15,-1
 394 355 l 2,16,17
 372 395 372 395 372 431 c 0,18,19
 372 472 372 472 402 508 c 2,20,-1
 467 584 l 1,21,22
 381 622 381 622 338.5 634.5 c 128,-1,23
 296 647 296 647 253 647 c 0,24,25
 185 647 185 647 142 611.5 c 128,-1,26
 99 576 99 576 99 521 c 0,27,28
 99 482 99 482 117 449.5 c 128,-1,29
 135 417 135 417 167 398 c 0,30,31
 198 380 198 380 257 376 c 1,32,-1
 255 350 l 1,33,34
 175 354 175 354 134 381 c 0,35,36
 98 404 98 404 77.5 444 c 128,-1,37
 57 484 57 484 57 530 c 0,38,39
 57 592 57 592 94 645 c 0,40,41
 131 697 131 697 196 720 c 0,42,43
 242 736 242 736 294 736 c 0,44,45
 353 736 353 736 412.5 717.5 c 128,-1,46
 472 699 472 699 564 651 c 1,47,-1
 472 544 l 2,48,49
 447 516 447 516 447 492 c 0,50,51
 447 460 447 460 477 405 c 2,52,-1
 563 244 l 2,53,54
 578 216 578 216 578 182 c 0,55,56
 578 98 578 98 492 38 c 2,57,-1
 444 3 l 2,58,59
 362 -54 362 -54 335 -54 c 0,60,61
 320 -54 320 -54 295 -41 c 2,62,-1
 133 48 l 2,63,64
 104 63 104 63 90 63 c 256,65,66
 76 63 76 63 55 55 c 2,67,-1
 28 43 l 1,68,-1
 10 62 l 1,0,-1
EndSplineSet
EndChar

StartChar: cent
Encoding: 162 162 98
Width: 247
Flags: W
LayerCount: 2
Fore
SplineSet
27 486 m 1,0,-1
 129 696 l 2,1,2
 148 735 148 735 172 735 c 0,3,4
 194 735 194 735 211 721 c 128,-1,5
 228 707 228 707 228 689 c 256,6,7
 228 671 228 671 208 649 c 2,8,-1
 42 476 l 1,9,-1
 27 486 l 1,0,-1
EndSplineSet
EndChar

StartChar: sterling
Encoding: 163 163 99
Width: 549
Flags: W
LayerCount: 2
Fore
SplineSet
526 55 m 1,0,-1
 526 0 l 1,1,-1
 29 0 l 1,2,-1
 29 55 l 1,3,-1
 526 55 l 1,0,-1
526 639 m 1,4,-1
 526 577 l 1,5,-1
 108 378 l 1,6,-1
 526 179 l 1,7,-1
 526 117 l 1,8,-1
 29 350 l 1,9,-1
 29 405 l 1,10,-1
 526 639 l 1,4,-1
EndSplineSet
EndChar

StartChar: yen
Encoding: 165 165 100
Width: 549
Flags: W
LayerCount: 2
Fore
SplineSet
236 267 m 1,0,-1
 17 486 l 1,1,-1
 56 525 l 1,2,-1
 275 305 l 1,3,-1
 494 525 l 1,4,-1
 533 486 l 1,5,-1
 314 267 l 1,6,-1
 533 47 l 1,7,-1
 494 9 l 1,8,-1
 275 228 l 1,9,-1
 56 9 l 1,10,-1
 17 47 l 1,11,-1
 236 267 l 1,0,-1
EndSplineSet
EndChar

StartChar: section
Encoding: 167 167 101
Width: 167
Flags: W
LayerCount: 2
Fore
SplineSet
-180 0 m 1,0,-1
 290 673 l 1,1,-1
 340 673 l 1,2,-1
 -131 0 l 1,3,-1
 -180 0 l 1,0,-1
EndSplineSet
EndChar

StartChar: dieresis
Encoding: 168 168 102
Width: 987
GlyphClass: 2
Flags: W
LayerCount: 2
Fore
SplineSet
199 168 m 2,0,1
 212 153 212 153 253 106 c 0,2,3
 302 47 302 47 321 23 c 1,4,-1
 283 -15 l 1,5,6
 244 31 244 31 171 112 c 0,7,8
 105 180 105 180 69 214 c 0,9,10
 57 226 57 226 32 248 c 1,11,12
 62 273 62 273 106 317 c 0,13,14
 166 378 166 378 221 439 c 0,15,16
 264 489 264 489 283 511 c 1,17,-1
 321 473 l 1,18,19
 293 436 293 436 253 390 c 0,20,21
 206 335 206 335 168 293 c 2,22,-1
 152 276 l 1,23,-1
 942 276 l 1,24,-1
 942 220 l 1,25,-1
 152 220 l 1,26,-1
 199 168 l 2,0,1
EndSplineSet
EndChar

StartChar: copyright
Encoding: 169 169 103
Width: 753
GlyphClass: 2
Flags: W
LayerCount: 2
Fore
SplineSet
320 43 m 2,0,1
 304 66 304 66 273 106 c 0,2,3
 253 133 253 133 234 157 c 0,4,5
 216 179 216 179 208 191 c 0,6,7
 156 258 156 258 136.5 300.5 c 128,-1,8
 117 343 117 343 117 393 c 0,9,10
 117 453 117 453 148.5 490.5 c 128,-1,11
 180 528 180 528 231 528 c 0,12,13
 276 528 276 528 305.5 503.5 c 128,-1,14
 335 479 335 479 355 425 c 0,15,16
 363 401 363 401 374 401 c 0,17,18
 381 401 381 401 384.5 405.5 c 128,-1,19
 388 410 388 410 393 425 c 0,20,21
 413 479 413 479 442.5 503.5 c 128,-1,22
 472 528 472 528 518 528 c 0,23,24
 568 528 568 528 599.5 490.5 c 128,-1,25
 631 453 631 453 631 393 c 0,26,27
 631 343 631 343 612.5 301.5 c 128,-1,28
 594 260 594 260 541 191 c 2,29,-1
 475 106 l 2,30,31
 449 73 449 73 428 43 c 2,32,-1
 374 -33 l 1,33,-1
 320 43 l 2,0,1
EndSplineSet
EndChar

StartChar: ordfeminine
Encoding: 170 170 104
AltUni2: 00f0bb.ffffffff.0
Width: 549
Flags: W
LayerCount: 2
Fore
SplineSet
489 408 m 1,0,-1
 527 375 l 1,1,2
 481 289 481 289 385 289 c 0,3,4
 361 289 361 289 345.5 292.5 c 128,-1,5
 330 296 330 296 271 314 c 0,6,7
 203 335 203 335 189 338 c 128,-1,8
 175 341 175 341 159 341 c 0,9,10
 129 341 129 341 110.5 329.5 c 128,-1,11
 92 318 92 318 57 278 c 1,12,-1
 14 312 l 1,13,14
 73 396 73 396 160 396 c 0,15,16
 195 396 195 396 285 369 c 0,17,18
 362 344 362 344 384 344 c 0,19,20
 414 344 414 344 434.5 356.5 c 128,-1,21
 455 369 455 369 489 408 c 1,0,-1
489 251 m 1,22,-1
 527 217 l 1,23,24
 481 132 481 132 385 132 c 0,25,26
 361 132 361 132 346 135.5 c 128,-1,27
 331 139 331 139 271 157 c 0,28,29
 203 177 203 177 189 180.5 c 128,-1,30
 175 184 175 184 159 184 c 0,31,32
 129 184 129 184 110.5 172.5 c 128,-1,33
 92 161 92 161 57 121 c 1,34,-1
 14 155 l 1,35,36
 73 239 73 239 160 239 c 0,37,38
 195 239 195 239 285 211 c 0,39,40
 363 187 363 187 384 187 c 0,41,42
 414 187 414 187 434.5 199.5 c 128,-1,43
 455 212 455 212 489 251 c 1,22,-1
EndSplineSet
EndChar

StartChar: guillemotleft
Encoding: 171 171 105
Width: 768
Flags: W
LayerCount: 2
Fore
SplineSet
732 0 m 1,0,-1
 675 0 l 1,1,-1
 675 184 l 2,2,3
 675 251 675 251 657 291 c 0,4,5
 625 364 625 364 555 406 c 0,6,7
 479 451 479 451 386 451 c 256,8,9
 293 451 293 451 218 406 c 0,10,11
 161 372 161 372 129.5 319 c 128,-1,12
 98 266 98 266 98 203 c 2,13,-1
 97 0 l 1,14,-1
 40 0 l 1,15,-1
 40 194 l 2,16,17
 40 312 40 312 116 396 c 0,18,19
 217 507 217 507 386 507 c 0,20,21
 503 507 503 507 591 451 c 0,22,23
 663 404 663 404 697 337.5 c 128,-1,24
 731 271 731 271 732 176 c 2,25,-1
 732 0 l 1,0,-1
EndSplineSet
EndChar

StartChar: logicalnot
Encoding: 172 172 106
Width: 795
Flags: W
LayerCount: 2
Fore
SplineSet
73 33 m 1,0,-1
 165 114 l 2,1,2
 176 124 176 124 184 124 c 0,3,4
 191 124 191 124 202 116 c 2,5,-1
 275 65 l 1,6,7
 304 110 304 110 315.5 142.5 c 128,-1,8
 327 175 327 175 334 228 c 0,9,10
 341 292 341 292 341 338 c 2,11,-1
 340 396 l 2,12,13
 340 452 340 452 331.5 509.5 c 128,-1,14
 323 567 323 567 312 593 c 0,15,16
 294 632 294 632 261 651 c 0,17,18
 229 669 229 669 191 669 c 0,19,20
 137 669 137 669 100 636 c 0,21,22
 63 602 63 602 63 556 c 0,23,24
 63 519 63 519 88 493 c 0,25,26
 101 480 101 480 160 449 c 2,27,-1
 214 422 l 2,28,29
 257 400 257 400 257 367 c 0,30,31
 257 350 257 350 247 334 c 2,32,-1
 211 281 l 1,33,-1
 186 299 l 1,34,35
 205 315 205 315 205 327 c 0,36,37
 205 343 205 343 166 363 c 2,38,-1
 118 386 l 2,39,40
 71 410 71 410 52 438 c 0,41,42
 26 478 26 478 26 530 c 0,43,44
 26 583 26 583 52 629 c 0,45,46
 87 691 87 691 158 716 c 0,47,48
 196 729 196 729 238 729 c 0,49,50
 300 729 300 729 339 704 c 128,-1,51
 378 679 378 679 406 620 c 1,52,-1
 533 713 l 2,53,54
 557 730 557 730 569 730 c 0,55,56
 580 730 580 730 597 715 c 2,57,-1
 752 582 l 1,58,-1
 571 453 l 1,59,60
 601 411 601 411 614 383 c 128,-1,61
 627 355 627 355 639 306 c 0,62,63
 661 218 661 218 672 131 c 0,64,65
 677 86 677 86 704 86 c 0,66,67
 715 86 715 86 742 97 c 1,68,-1
 759 74 l 1,69,-1
 649 -14 l 1,70,71
 619 1 619 1 604.5 16.5 c 128,-1,72
 590 32 590 32 580 59 c 0,73,74
 571 83 571 83 567 108 c 128,-1,75
 563 133 563 133 552 224 c 0,76,77
 539 330 539 330 518 367 c 0,78,79
 504 391 504 391 479 391 c 2,80,-1
 470 391 l 1,81,-1
 457 413 l 1,82,-1
 649 546 l 1,83,-1
 565 622 l 2,84,85
 539 646 539 646 517 646 c 0,86,87
 502 646 502 646 483 634 c 2,88,-1
 418 592 l 1,89,90
 437 460 437 460 437 394 c 2,91,-1
 436 323 l 2,92,93
 436 249 436 249 424 206 c 128,-1,94
 412 163 412 163 380 123 c 0,95,96
 313 39 313 39 223 -16 c 1,97,98
 203 0 203 0 194 7 c 0,99,100
 159 35 159 35 139 35 c 0,101,102
 122 35 122 35 92 17 c 1,103,-1
 73 33 l 1,0,-1
EndSplineSet
EndChar

StartChar: registered
Encoding: 174 174 107
Width: 753
GlyphClass: 2
Flags: W
LayerCount: 2
Fore
SplineSet
142 257 m 1,0,-1
 374 550 l 1,1,-1
 600 257 l 1,2,-1
 374 -36 l 1,3,-1
 142 257 l 1,0,-1
EndSplineSet
EndChar

StartChar: macron
Encoding: 175 175 108
Width: 384
Flags: W
LayerCount: 2
Fore
SplineSet
450 926 m 1,0,-1
 450 465 l 2,1,2
 450 218 450 218 362 20 c 0,3,4
 312 -91 312 -91 245 -163 c 128,-1,5
 178 -235 178 -235 68 -293 c 1,6,-1
 54 -283 l 1,7,8
 160 -217 160 -217 248 -85 c 0,9,10
 309 5 309 5 346 130 c 0,11,12
 398 307 398 307 398 495 c 2,13,-1
 398 926 l 1,14,-1
 450 926 l 1,0,-1
EndSplineSet
EndChar

StartChar: degree
Encoding: 176 176 109
Width: 620
Flags: W
LayerCount: 2
Fore
SplineSet
10 643 m 1,0,-1
 -2 675 l 1,1,2
 39 686 39 686 74 686 c 0,3,4
 170 686 170 686 232 634 c 0,5,6
 265 606 265 606 280.5 567.5 c 128,-1,7
 296 529 296 529 302 461 c 0,8,9
 305 417 305 417 307 371 c 1,10,11
 317 458 317 458 325 494.5 c 128,-1,12
 333 531 333 531 350 568 c 0,13,14
 384 643 384 643 448 671 c 0,15,16
 483 687 483 687 521 687 c 0,17,18
 566 687 566 687 590 663 c 0,19,20
 610 644 610 644 610 615 c 0,21,22
 610 587 610 587 594 571 c 128,-1,23
 578 555 578 555 550 555 c 0,24,25
 532 555 532 555 519 562.5 c 128,-1,26
 506 570 506 570 489 591 c 0,27,28
 476 607 476 607 469.5 611.5 c 128,-1,29
 463 616 463 616 453 616 c 0,30,31
 404 616 404 616 373.5 532 c 128,-1,32
 343 448 343 448 343 314 c 2,33,-1
 343 142 l 2,34,35
 343 102 343 102 345.5 86.5 c 128,-1,36
 348 71 348 71 357 57 c 0,37,38
 378 26 378 26 431 26 c 2,39,-1
 436 26 l 1,40,-1
 436 0 l 1,41,-1
 149 0 l 1,42,-1
 149 26 l 1,43,-1
 154 26 l 2,44,45
 206 26 206 26 227 57 c 0,46,47
 236 71 236 71 239 86.5 c 128,-1,48
 242 102 242 102 242 142 c 2,49,-1
 242 310 l 2,50,51
 242 429 242 429 215 520 c 0,52,53
 194 592 194 592 145 623 c 0,54,55
 106 647 106 647 57 647 c 0,56,57
 38 647 38 647 10 643 c 1,0,-1
EndSplineSet
EndChar

StartChar: plusminus
Encoding: 177 177 110
Width: 549
GlyphClass: 2
Flags: W
LayerCount: 2
Fore
SplineSet
535 55 m 1,0,-1
 535 0 l 1,1,-1
 11 0 l 1,2,-1
 11 55 l 1,3,-1
 535 55 l 1,0,-1
302 423 m 1,4,-1
 539 423 l 1,5,-1
 539 368 l 1,6,-1
 302 368 l 1,7,-1
 302 129 l 1,8,-1
 247 129 l 1,9,-1
 247 368 l 1,10,-1
 10 368 l 1,11,-1
 10 423 l 1,12,-1
 247 423 l 1,13,-1
 247 662 l 1,14,-1
 302 662 l 1,15,-1
 302 423 l 1,4,-1
EndSplineSet
EndChar

StartChar: acute
Encoding: 180 180 111
Width: 1042
GlyphClass: 2
Flags: W
LayerCount: 2
Fore
SplineSet
888 294 m 2,0,1
 859 324 859 324 795 400 c 0,2,3
 758 444 758 444 735 474 c 1,4,-1
 773 512 l 1,5,6
 911 350 911 350 1024 248 c 1,7,8
 911 146 911 146 773 -16 c 1,9,-1
 735 22 l 1,10,11
 775 73 775 73 803 106 c 0,12,13
 835 145 835 145 888 202 c 2,14,-1
 905 220 l 1,15,-1
 143 220 l 1,16,-1
 160 202 l 2,17,18
 199 159 199 159 253 96 c 0,19,20
 290 52 290 52 313 22 c 1,21,-1
 275 -16 l 1,22,23
 137 146 137 146 24 248 c 1,24,25
 137 350 137 350 275 512 c 1,26,-1
 313 474 l 1,27,28
 285 438 285 438 245 390 c 0,29,30
 199 337 199 337 160 294 c 2,31,-1
 143 276 l 1,32,-1
 905 276 l 1,33,-1
 888 294 l 2,0,1
EndSplineSet
EndChar

StartChar: mu
Encoding: 181 181 112
Width: 713
Flags: W
LayerCount: 2
Fore
SplineSet
351 264 m 1,0,1
 269 361 269 361 188 361 c 0,2,3
 146 361 146 361 111 336 c 0,4,5
 77 311 77 311 77 264 c 0,6,7
 77 211 77 211 121 185 c 0,8,9
 153 167 153 167 188 167 c 0,10,11
 268 167 268 167 351 264 c 1,0,1
418 264 m 1,12,13
 511 166 511 166 621 166 c 2,14,-1
 630 166 l 1,15,-1
 639 114 l 1,16,-1
 605 114 l 2,17,18
 548 114 548 114 511.5 127 c 128,-1,19
 475 140 475 140 434 176 c 0,20,21
 409 198 409 198 385 227 c 1,22,23
 373 209 373 209 354 191 c 0,24,25
 312 150 312 150 273.5 132 c 128,-1,26
 235 114 235 114 190 114 c 0,27,28
 121 114 121 114 72 157 c 0,29,30
 27 197 27 197 27 264 c 0,31,32
 27 340 27 340 87 382 c 0,33,34
 132 413 132 413 190 413 c 0,35,36
 235 413 235 413 273.5 395 c 128,-1,37
 312 377 312 377 354 337 c 0,38,39
 373 318 373 318 385 301 c 1,40,41
 440 365 440 365 488 389.5 c 128,-1,42
 536 414 536 414 607 414 c 0,43,44
 617 414 617 414 639 413 c 1,45,-1
 630 361 l 1,46,-1
 621 361 l 2,47,48
 511 361 511 361 418 264 c 1,12,13
EndSplineSet
EndChar

StartChar: paragraph
Encoding: 182 182 113
Width: 500
Flags: W
LayerCount: 2
Fore
SplineSet
116 422 m 1,0,-1
 219 422 l 1,1,2
 239 530 239 530 271 593 c 0,3,4
 318 687 318 687 406 687 c 0,5,6
 444 687 444 687 469 669 c 128,-1,7
 494 651 494 651 494 624 c 0,8,9
 494 603 494 603 480 589 c 128,-1,10
 466 575 466 575 445 575 c 0,11,12
 427 575 427 575 415.5 585 c 128,-1,13
 404 595 404 595 404 611 c 0,14,15
 404 622 404 622 409 632 c 0,16,17
 416 644 416 644 416 648 c 0,18,19
 416 661 416 661 396 661 c 0,20,21
 361 661 361 661 341 614 c 0,22,23
 332 593 332 593 326.5 560 c 128,-1,24
 321 527 321 527 307 422 c 1,25,-1
 432 422 l 1,26,-1
 422 390 l 1,27,-1
 303 390 l 1,28,-1
 301 372 l 2,29,30
 282 202 282 202 266.5 118.5 c 128,-1,31
 251 35 251 35 226 -38 c 0,32,33
 180 -174 180 -174 84 -174 c 0,34,35
 48 -174 48 -174 25 -155.5 c 128,-1,36
 2 -137 2 -137 2 -108 c 0,37,38
 2 -87 2 -87 16 -73.5 c 128,-1,39
 30 -60 30 -60 52 -60 c 0,40,41
 69 -60 69 -60 79.5 -70 c 128,-1,42
 90 -80 90 -80 90 -95 c 0,43,44
 90 -109 90 -109 78 -128 c 0,45,46
 75 -133 75 -133 75 -137 c 0,47,48
 75 -148 75 -148 92 -148 c 0,49,50
 121 -148 121 -148 140 -119 c 0,51,52
 156 -94 156 -94 164.5 -47 c 128,-1,53
 173 0 173 0 183 111 c 0,54,55
 194 239 194 239 214 390 c 1,56,-1
 106 390 l 1,57,-1
 116 422 l 1,0,-1
EndSplineSet
EndChar

StartChar: periodcentered
Encoding: 183 183 114
Width: 329
Flags: W
LayerCount: 2
Fore
SplineSet
254 757 m 1,0,-1
 306 733 l 1,1,-1
 91 303 l 1,2,-1
 306 -127 l 1,3,-1
 254 -152 l 1,4,-1
 25 303 l 1,5,-1
 254 757 l 1,0,-1
EndSplineSet
EndChar

StartChar: cedilla
Encoding: 184 184 115
Width: 494
Flags: W
LayerCount: 2
Fore
SplineSet
201 -75 m 1,0,-1
 201 619 l 2,1,2
 201 710 201 710 186.5 759 c 128,-1,3
 172 808 172 808 136 842 c 0,4,5
 90 885 90 885 17 904 c 1,6,-1
 17 926 l 1,7,8
 106 911 106 911 154 882 c 0,9,10
 208 849 208 849 231 796 c 0,11,12
 255 739 255 739 255 637 c 2,13,-1
 255 -75 l 1,14,-1
 201 -75 l 1,0,-1
EndSplineSet
EndChar

StartChar: ordmasculine
Encoding: 186 186 116
Width: 1000
Flags: W
LayerCount: 2
Fore
SplineSet
168 100 m 0,0,1
 190 100 190 100 206.5 83 c 128,-1,2
 223 66 223 66 223 43 c 256,3,4
 223 20 223 20 206.5 3.5 c 128,-1,5
 190 -13 190 -13 167 -13 c 256,6,7
 144 -13 144 -13 127.5 3.5 c 128,-1,8
 111 20 111 20 111 44 c 0,9,10
 111 67 111 67 127.5 83.5 c 128,-1,11
 144 100 144 100 168 100 c 0,0,1
501 100 m 0,12,13
 523 100 523 100 539.5 83 c 128,-1,14
 556 66 556 66 556 43 c 256,15,16
 556 20 556 20 539.5 3.5 c 128,-1,17
 523 -13 523 -13 500 -13 c 256,18,19
 477 -13 477 -13 460.5 3.5 c 128,-1,20
 444 20 444 20 444 44 c 0,21,22
 444 67 444 67 460.5 83.5 c 128,-1,23
 477 100 477 100 501 100 c 0,12,13
834 100 m 0,24,25
 856 100 856 100 872.5 83 c 128,-1,26
 889 66 889 66 889 43 c 256,27,28
 889 20 889 20 872.5 3.5 c 128,-1,29
 856 -13 856 -13 833 -13 c 256,30,31
 810 -13 810 -13 793.5 3.5 c 128,-1,32
 777 20 777 20 777 44 c 0,33,34
 777 67 777 67 793.5 83.5 c 128,-1,35
 810 100 810 100 834 100 c 0,24,25
EndSplineSet
EndChar

StartChar: guillemotright
Encoding: 187 187 117
Width: 768
Flags: W
LayerCount: 2
Fore
SplineSet
40 489 m 1,0,-1
 97 489 l 1,1,-1
 97 306 l 2,2,3
 97 238 97 238 115 198 c 0,4,5
 147 126 147 126 217 84 c 0,6,7
 293 39 293 39 386 39 c 256,8,9
 479 39 479 39 555 84 c 0,10,11
 612 118 612 118 643.5 170.5 c 128,-1,12
 675 223 675 223 675 286 c 2,13,-1
 675 489 l 1,14,-1
 732 489 l 1,15,-1
 732 295 l 2,16,17
 732 177 732 177 656 93 c 0,18,19
 555 -18 555 -18 386 -18 c 0,20,21
 269 -18 269 -18 181 38 c 0,22,23
 109 85 109 85 75 151.5 c 128,-1,24
 41 218 41 218 40 313 c 2,25,-1
 40 489 l 1,0,-1
EndSplineSet
EndChar

StartChar: questiondown
Encoding: 191 191 118
Width: 823
Flags: W
LayerCount: 2
Fore
SplineSet
471 319 m 1,0,-1
 544 491 l 1,1,-1
 500 491 l 2,2,3
 455 491 455 491 440 506 c 0,4,5
 416 529 416 529 416 577 c 0,6,7
 416 640 416 640 464 689 c 1,8,-1
 464 673 l 2,9,10
 464 646 464 646 476 635.5 c 128,-1,11
 488 625 488 625 520 625 c 2,12,-1
 595 625 l 2,13,14
 630 625 630 625 644 609 c 0,15,16
 661 589 661 589 661 546 c 0,17,18
 661 502 661 502 647 453 c 1,19,20
 641 491 641 491 607 491 c 2,21,-1
 583 491 l 1,22,-1
 536 375 l 2,23,24
 520 336 520 336 520 305 c 0,25,26
 520 279 520 279 531 255.5 c 128,-1,27
 542 232 542 232 571 195 c 2,28,-1
 613 142 l 2,29,30
 634 115 634 115 642 98.5 c 128,-1,31
 650 82 650 82 650 64 c 0,32,33
 650 33 650 33 632 0 c 1,34,-1
 307 410 l 1,35,36
 291 381 291 381 286 367.5 c 128,-1,37
 281 354 281 354 281 338 c 0,38,39
 281 314 281 314 292.5 289 c 128,-1,40
 304 264 304 264 332 226 c 0,41,42
 377 165 377 165 389.5 139.5 c 128,-1,43
 402 114 402 114 402 81 c 0,44,45
 402 28 402 28 370 11 c 0,46,47
 349 0 349 0 282 0 c 2,48,-1
 192 0 l 1,49,-1
 192 67 l 1,50,-1
 211 67 l 2,51,52
 249 67 249 67 249 97 c 0,53,54
 249 107 249 107 245.5 114.5 c 128,-1,55
 242 122 242 122 221 157 c 0,56,57
 189 210 189 210 189 241 c 0,58,59
 189 273 189 273 219 329 c 2,60,-1
 282 444 l 1,61,-1
 205 539 l 2,62,63
 175 577 175 577 175 605 c 0,64,65
 175 639 175 639 192 674 c 1,66,-1
 471 319 l 1,0,-1
EndSplineSet
EndChar

StartChar: Agrave
Encoding: 192 192 119
Width: 713
Flags: W
LayerCount: 2
Fore
SplineSet
538 470 m 1,0,-1
 690 470 l 1,1,-1
 690 414 l 1,2,-1
 512 414 l 1,3,-1
 349 56 l 1,4,-1
 690 56 l 1,5,-1
 690 0 l 1,6,-1
 323 1 l 1,7,-1
 291 -70 l 1,8,-1
 241 -70 l 1,9,-1
 273 1 l 1,10,11
 181 7 181 7 130 45 c 0,12,13
 86 79 86 79 61 129 c 256,14,15
 36 179 36 179 36 235 c 0,16,17
 36 311 36 311 80 372 c 0,18,19
 133 448 133 448 222 463 c 0,20,21
 260 470 260 470 384 470 c 2,22,-1
 488 470 l 1,23,-1
 520 540 l 1,24,-1
 570 540 l 1,25,-1
 538 470 l 1,0,-1
299 57 m 1,26,-1
 462 414 l 1,27,-1
 381 414 l 2,28,29
 271 414 271 414 234 408 c 0,30,31
 164 395 164 395 126 343 c 0,32,33
 91 296 91 296 91 235 c 0,34,35
 91 188 91 188 112.5 148 c 128,-1,36
 134 108 134 108 171 84 c 0,37,38
 213 58 213 58 299 57 c 1,26,-1
EndSplineSet
EndChar

StartChar: Aacute
Encoding: 193 193 120
Width: 384
Flags: W
LayerCount: 2
Fore
SplineSet
40 -79 m 1,0,-1
 40 925 l 1,1,-1
 92 925 l 1,2,-1
 92 -79 l 1,3,-1
 40 -79 l 1,0,-1
EndSplineSet
EndChar

StartChar: Acircumflex
Encoding: 194 194 121
Width: 713
Flags: W
LayerCount: 2
Fore
SplineSet
176 711 m 1,0,-1
 364 341 l 1,1,-1
 163 -11 l 1,2,-1
 491 -11 l 2,3,4
 570 -11 570 -11 605 4 c 0,5,6
 627 14 627 14 641 32.5 c 128,-1,7
 655 51 655 51 669 87 c 1,8,-1
 695 87 l 1,9,-1
 641 -123 l 1,10,-1
 14 -123 l 1,11,-1
 256 285 l 1,12,-1
 23 752 l 1,13,-1
 622 752 l 1,14,-1
 632 587 l 1,15,-1
 606 587 l 1,16,17
 599 630 599 630 588.5 652.5 c 128,-1,18
 578 675 578 675 561 687 c 0,19,20
 528 711 528 711 444 711 c 2,21,-1
 176 711 l 1,0,-1
EndSplineSet
EndChar

StartChar: Atilde
Encoding: 195 195 122
Width: 713
Flags: W
LayerCount: 2
Fore
SplineSet
690 470 m 1,0,-1
 690 414 l 1,1,-1
 381 414 l 2,2,3
 271 414 271 414 234 408 c 0,4,5
 164 395 164 395 126 343 c 0,6,7
 91 296 91 296 91 235 c 0,8,9
 91 188 91 188 112.5 148 c 128,-1,10
 134 108 134 108 171 84 c 0,11,12
 206 62 206 62 277 58 c 0,13,14
 298 56 298 56 381 56 c 2,15,-1
 690 56 l 1,16,-1
 690 0 l 1,17,-1
 384 0 l 2,18,19
 261 0 261 0 222 7 c 0,20,21
 133 22 133 22 80 98 c 0,22,23
 37 159 37 159 37 235 c 256,24,25
 37 311 37 311 80 372 c 0,26,27
 133 448 133 448 222 463 c 0,28,29
 261 470 261 470 384 470 c 2,30,-1
 690 470 l 1,0,-1
EndSplineSet
EndChar

StartChar: Adieresis
Encoding: 196 196 123
Width: 250
GlyphClass: 2
Flags: W
LayerCount: 2
Fore
SplineSet
165 83 m 0,0,1
 181 66 181 66 181 43 c 128,-1,2
 181 20 181 20 164.5 3.5 c 128,-1,3
 148 -13 148 -13 125 -13 c 128,-1,4
 102 -13 102 -13 85.5 3.5 c 128,-1,5
 69 20 69 20 69 43 c 128,-1,6
 69 66 69 66 85.5 83 c 128,-1,7
 102 100 102 100 125 100 c 128,-1,8
 148 100 148 100 165 83 c 0,0,1
EndSplineSet
EndChar

StartChar: Aring
Encoding: 197 197 124
Width: 250
GlyphClass: 2
Flags: W
LayerCount: 2
Fore
SplineSet
165 83 m 0,0,1
 181 66 181 66 181 43 c 128,-1,2
 181 20 181 20 164.5 3.5 c 128,-1,3
 148 -13 148 -13 125 -13 c 128,-1,4
 102 -13 102 -13 85.5 3.5 c 128,-1,5
 69 20 69 20 69 43 c 128,-1,6
 69 66 69 66 85.5 83 c 128,-1,7
 102 100 102 100 125 100 c 128,-1,8
 148 100 148 100 165 83 c 0,0,1
EndSplineSet
EndChar

StartChar: AE
Encoding: 198 198 125
Width: 987
GlyphClass: 2
Flags: W
LayerCount: 2
Fore
SplineSet
49 220 m 1,0,-1
 49 276 l 1,1,-1
 839 276 l 1,2,-1
 823 293 l 2,3,4
 772 351 772 351 730 399 c 0,5,6
 695 439 695 439 670 473 c 1,7,-1
 708 511 l 1,8,9
 742 471 742 471 820 384 c 0,10,11
 894 307 894 307 922 281 c 0,12,13
 936 267 936 267 959 248 c 1,14,15
 929 223 929 223 885 179 c 0,16,17
 822 114 822 114 770 56 c 0,18,19
 741 24 741 24 708 -15 c 1,20,-1
 670 23 l 1,21,22
 678 33 678 33 685 42 c 128,-1,23
 692 51 692 51 700.5 61 c 128,-1,24
 709 71 709 71 714 78 c 0,25,26
 719 84 719 84 733 100 c 128,-1,27
 747 116 747 116 754 125 c 0,28,29
 768 140 768 140 792 168 c 2,30,-1
 839 220 l 1,31,-1
 49 220 l 1,0,-1
EndSplineSet
EndChar

StartChar: Ccedilla
Encoding: 199 199 126
Width: 250
GlyphClass: 2
Flags: W
LayerCount: 2
Fore
SplineSet
165 83 m 0,0,1
 181 66 181 66 181 43 c 128,-1,2
 181 20 181 20 164.5 3.5 c 128,-1,3
 148 -13 148 -13 125 -13 c 128,-1,4
 102 -13 102 -13 85.5 3.5 c 128,-1,5
 69 20 69 20 69 43 c 128,-1,6
 69 66 69 66 85.5 83 c 128,-1,7
 102 100 102 100 125 100 c 128,-1,8
 148 100 148 100 165 83 c 0,0,1
EndSplineSet
EndChar

StartChar: Egrave
Encoding: 200 200 127
Width: 384
Flags: W
LayerCount: 2
Fore
SplineSet
0 -80 m 1,0,-1
 0 926 l 1,1,-1
 341 926 l 1,2,-1
 341 871 l 1,3,-1
 55 871 l 1,4,-1
 55 -80 l 1,5,-1
 0 -80 l 1,0,-1
EndSplineSet
EndChar

StartChar: Eacute
Encoding: 201 201 128
Width: 250
GlyphClass: 2
Flags: W
LayerCount: 2
Fore
SplineSet
165 83 m 0,0,1
 181 66 181 66 181 43 c 128,-1,2
 181 20 181 20 164.5 3.5 c 128,-1,3
 148 -13 148 -13 125 -13 c 128,-1,4
 102 -13 102 -13 85.5 3.5 c 128,-1,5
 69 20 69 20 69 43 c 128,-1,6
 69 66 69 66 85.5 83 c 128,-1,7
 102 100 102 100 125 100 c 128,-1,8
 148 100 148 100 165 83 c 0,0,1
EndSplineSet
EndChar

StartChar: Ecircumflex
Encoding: 202 202 129
Width: 384
Flags: W
LayerCount: 2
Fore
SplineSet
40 -293 m 1,0,-1
 40 168 l 2,1,2
 40 415 40 415 128 613 c 0,3,4
 178 724 178 724 243.5 794.5 c 128,-1,5
 309 865 309 865 422 926 c 1,6,-1
 436 915 l 1,7,8
 333 852 333 852 243 717 c 0,9,10
 184 629 184 629 147 500 c 0,11,12
 92 314 92 314 92 138 c 2,13,-1
 92 -293 l 1,14,-1
 40 -293 l 1,0,-1
EndSplineSet
EndChar

StartChar: Edieresis
Encoding: 203 203 130
Width: 384
Flags: W
LayerCount: 2
Fore
SplineSet
40 926 m 1,0,-1
 92 926 l 1,1,-1
 92 495 l 2,2,3
 92 258 92 258 170 54 c 0,4,5
 211 -54 211 -54 274.5 -134.5 c 128,-1,6
 338 -215 338 -215 436 -283 c 1,7,-1
 422 -293 l 1,8,9
 339 -247 339 -247 291.5 -208 c 128,-1,10
 244 -169 244 -169 203 -113 c 0,11,12
 141 -27 141 -27 100 92 c 0,13,14
 40 264 40 264 40 465 c 2,15,-1
 40 926 l 1,0,-1
EndSplineSet
EndChar

StartChar: Igrave
Encoding: 204 204 131
Width: 494
Flags: W
LayerCount: 2
Fore
SplineSet
255 935 m 1,0,-1
 255 674 l 2,1,2
 255 603 255 603 240 562 c 0,3,4
 220 510 220 510 182.5 480 c 128,-1,5
 145 450 145 450 74 431 c 1,6,7
 126 416 126 416 155.5 399.5 c 128,-1,8
 185 383 185 383 207 356 c 0,9,10
 234 324 234 324 244.5 286 c 128,-1,11
 255 248 255 248 255 187 c 2,12,-1
 255 -85 l 1,13,-1
 201 -85 l 1,14,-1
 201 166 l 2,15,16
 201 237 201 237 187.5 278.5 c 128,-1,17
 174 320 174 320 142 348 c 0,18,19
 97 388 97 388 14 400 c 1,20,-1
 14 461 l 1,21,22
 116 476 116 476 158.5 529.5 c 128,-1,23
 201 583 201 583 201 695 c 2,24,-1
 201 935 l 1,25,-1
 255 935 l 1,0,-1
EndSplineSet
EndChar

StartChar: Iacute
Encoding: 205 205 132
Width: 384
Flags: W
LayerCount: 2
Fore
SplineSet
0 925 m 1,0,-1
 55 925 l 1,1,-1
 55 -85 l 1,2,-1
 0 -85 l 1,3,-1
 0 925 l 1,0,-1
EndSplineSet
EndChar

StartChar: Icircumflex
Encoding: 206 206 133
Width: 384
Flags: W
LayerCount: 2
Fore
SplineSet
0 926 m 1,0,-1
 55 926 l 1,1,-1
 55 -25 l 1,2,-1
 340 -25 l 1,3,-1
 340 -80 l 1,4,-1
 0 -80 l 1,5,-1
 0 926 l 1,0,-1
EndSplineSet
EndChar

StartChar: Idieresis
Encoding: 207 207 134
Width: 494
Flags: W
LayerCount: 2
Fore
SplineSet
255 -75 m 1,0,-1
 201 -75 l 1,1,-1
 201 637 l 2,2,3
 201 773 201 773 248 834 c 0,4,5
 277 872 277 872 320.5 892.5 c 128,-1,6
 364 913 364 913 439 926 c 1,7,-1
 439 904 l 1,8,9
 337 878 337 878 296 815 c 128,-1,10
 255 752 255 752 255 619 c 2,11,-1
 255 -75 l 1,0,-1
EndSplineSet
EndChar

StartChar: Ntilde
Encoding: 209 209 135
Width: 250
GlyphClass: 2
Flags: W
LayerCount: 2
Fore
SplineSet
165 83 m 0,0,1
 181 66 181 66 181 43 c 128,-1,2
 181 20 181 20 164.5 3.5 c 128,-1,3
 148 -13 148 -13 125 -13 c 128,-1,4
 102 -13 102 -13 85.5 3.5 c 128,-1,5
 69 20 69 20 69 43 c 128,-1,6
 69 66 69 66 85.5 83 c 128,-1,7
 102 100 102 100 125 100 c 128,-1,8
 148 100 148 100 165 83 c 0,0,1
EndSplineSet
EndChar

StartChar: Ograve
Encoding: 210 210 136
Width: 329
Flags: W
LayerCount: 2
Fore
SplineSet
73 757 m 1,0,-1
 302 303 l 1,1,-1
 73 -152 l 1,2,-1
 21 -127 l 1,3,-1
 236 303 l 1,4,-1
 21 733 l 1,5,-1
 73 757 l 1,0,-1
EndSplineSet
EndChar

StartChar: Oacute
Encoding: 211 211 137
Width: 494
Flags: W
LayerCount: 2
Fore
SplineSet
255 926 m 1,0,-1
 255 237 l 2,1,2
 255 145 255 145 269.5 96.5 c 128,-1,3
 284 48 284 48 321 13 c 0,4,5
 367 -30 367 -30 439 -48 c 1,6,-1
 439 -70 l 1,7,8
 350 -56 350 -56 303 -27 c 0,9,10
 248 7 248 7 225 60 c 0,11,12
 201 116 201 116 201 219 c 2,13,-1
 201 926 l 1,14,-1
 255 926 l 1,0,-1
EndSplineSet
EndChar

StartChar: Ocircumflex
Encoding: 212 212 138
Width: 494
Flags: W
LayerCount: 2
Fore
SplineSet
201 925 m 1,0,-1
 255 925 l 1,1,-1
 255 -79 l 1,2,-1
 201 -79 l 1,3,-1
 201 925 l 1,0,-1
EndSplineSet
EndChar

StartChar: Otilde
Encoding: 213 213 139
Width: 713
Flags: W
LayerCount: 2
Fore
SplineSet
37 -69 m 1,0,-1
 685 -69 l 1,1,-1
 685 -125 l 1,2,-1
 37 -125 l 1,3,-1
 37 -69 l 1,0,-1
690 470 m 1,4,-1
 690 414 l 1,5,-1
 381 414 l 2,6,7
 271 414 271 414 234 408 c 0,8,9
 164 395 164 395 126 343 c 0,10,11
 91 296 91 296 91 235 c 0,12,13
 91 188 91 188 112.5 148 c 128,-1,14
 134 108 134 108 171 84 c 0,15,16
 206 62 206 62 277 58 c 0,17,18
 298 56 298 56 381 56 c 2,19,-1
 690 56 l 1,20,-1
 690 0 l 1,21,-1
 384 0 l 2,22,23
 261 0 261 0 222 7 c 0,24,25
 133 22 133 22 80 98 c 0,26,27
 37 159 37 159 37 235 c 256,28,29
 37 311 37 311 80 372 c 0,30,31
 133 448 133 448 222 463 c 0,32,33
 261 470 261 470 384 470 c 2,34,-1
 690 470 l 1,4,-1
EndSplineSet
EndChar

StartChar: Odieresis
Encoding: 214 214 140
Width: 250
GlyphClass: 2
Flags: W
LayerCount: 2
Fore
SplineSet
165 83 m 0,0,1
 181 66 181 66 181 43 c 128,-1,2
 181 20 181 20 164.5 3.5 c 128,-1,3
 148 -13 148 -13 125 -13 c 128,-1,4
 102 -13 102 -13 85.5 3.5 c 128,-1,5
 69 20 69 20 69 43 c 128,-1,6
 69 66 69 66 85.5 83 c 128,-1,7
 102 100 102 100 125 100 c 128,-1,8
 148 100 148 100 165 83 c 0,0,1
EndSplineSet
EndChar

StartChar: Oslash
Encoding: 216 216 141
Width: 603
GlyphClass: 2
Flags: W
LayerCount: 2
Fore
SplineSet
308 -22 m 1,0,1
 286 4 286 4 263 28 c 0,2,3
 172 121 172 121 63 214 c 2,4,-1
 45 229 l 1,5,-1
 83 267 l 1,6,7
 120 238 120 238 138 223 c 0,8,9
 142 220 142 220 157.5 206.5 c 128,-1,10
 173 193 173 193 185 183 c 0,11,12
 194 175 194 175 209 162 c 128,-1,13
 224 149 224 149 228 145 c 2,14,-1
 280 98 l 1,15,-1
 280 888 l 1,16,-1
 336 888 l 1,17,-1
 336 98 l 1,18,-1
 388 145 l 2,19,20
 390 147 390 147 450 199 c 0,21,22
 494 238 494 238 533 267 c 1,23,-1
 571 229 l 1,24,25
 508 177 508 177 444 117 c 0,26,27
 384 61 384 61 342 16 c 0,28,29
 333 6 333 6 308 -22 c 1,0,1
EndSplineSet
EndChar

StartChar: Ugrave
Encoding: 217 217 142
Width: 686
Flags: W
LayerCount: 2
Fore
SplineSet
332 -88 m 1,0,-1
 332 975 l 1,1,-1
 415 975 l 1,2,-1
 415 -88 l 1,3,-1
 332 -88 l 1,0,-1
EndSplineSet
EndChar

StartChar: Uacute
Encoding: 218 218 143
Width: 274
Flags: W
LayerCount: 2
Fore
SplineSet
180 576 m 2,0,-1
 180 232 l 2,1,2
 180 59 180 59 155 -29 c 0,3,4
 132 -107 132 -107 62 -107 c 0,5,6
 35 -107 35 -107 18.5 -95 c 128,-1,7
 2 -83 2 -83 2 -63 c 0,8,9
 2 -49 2 -49 12 -39.5 c 128,-1,10
 22 -30 22 -30 37 -30 c 0,11,12
 56 -30 56 -30 68 -52 c 0,13,14
 77 -69 77 -69 89 -69 c 0,15,16
 103 -69 103 -69 111.5 -53.5 c 128,-1,17
 120 -38 120 -38 120 -11 c 0,18,19
 120 15 120 15 117 63 c 0,20,21
 113 141 113 141 113 232 c 2,22,-1
 113 577 l 2,23,24
 113 750 113 750 138 838 c 0,25,26
 149 875 149 875 173 895.5 c 128,-1,27
 197 916 197 916 231 916 c 0,28,29
 258 916 258 916 274.5 904 c 128,-1,30
 291 892 291 892 291 871 c 0,31,32
 291 857 291 857 280.5 848 c 128,-1,33
 270 839 270 839 255 839 c 0,34,35
 243 839 243 839 235 845 c 128,-1,36
 227 851 227 851 214 872 c 0,37,38
 210 878 210 878 202 878 c 0,39,40
 172 878 172 878 172 816 c 0,41,42
 172 793 172 793 175 746 c 0,43,44
 180 675 180 675 180 576 c 2,0,-1
EndSplineSet
EndChar

StartChar: Ucircumflex
Encoding: 219 219 144
Width: 686
Flags: W
LayerCount: 2
Fore
SplineSet
332 -83 m 1,0,-1
 332 333 l 2,1,2
 332 621 332 621 448 790 c 0,3,4
 491 853 491 853 539 887.5 c 128,-1,5
 587 922 587 922 630 922 c 0,6,7
 667 922 667 922 691 899 c 128,-1,8
 715 876 715 876 715 842 c 0,9,10
 715 811 715 811 696.5 791 c 128,-1,11
 678 771 678 771 649 771 c 0,12,13
 623 771 623 771 605.5 786.5 c 128,-1,14
 588 802 588 802 588 825 c 256,15,16
 588 848 588 848 609 866 c 1,17,18
 600 869 600 869 594 869 c 0,19,20
 545 869 545 869 498 795 c 0,21,22
 463 742 463 742 441 646 c 0,23,24
 415 530 415 530 415 385 c 2,25,-1
 415 -83 l 1,26,-1
 332 -83 l 1,0,-1
EndSplineSet
EndChar

StartChar: Udieresis
Encoding: 220 220 145
Width: 250
GlyphClass: 2
Flags: W
LayerCount: 2
Fore
SplineSet
165 83 m 0,0,1
 181 66 181 66 181 43 c 128,-1,2
 181 20 181 20 164.5 3.5 c 128,-1,3
 148 -13 148 -13 125 -13 c 128,-1,4
 102 -13 102 -13 85.5 3.5 c 128,-1,5
 69 20 69 20 69 43 c 128,-1,6
 69 66 69 66 85.5 83 c 128,-1,7
 102 100 102 100 125 100 c 128,-1,8
 148 100 148 100 165 83 c 0,0,1
EndSplineSet
EndChar

StartChar: Yacute
Encoding: 221 221 146
Width: 603
Flags: W
LayerCount: 2
Fore
SplineSet
308 87 m 1,0,1
 325 107 325 107 346 127 c 0,2,3
 377 158 377 158 385 167 c 1,4,-1
 385 909 l 1,5,-1
 440 909 l 1,6,-1
 440 214 l 1,7,8
 452 225 452 225 538 293 c 1,9,-1
 572 250 l 1,10,11
 409 119 409 119 308 0 c 1,12,13
 201 126 201 126 44 250 c 1,14,-1
 78 293 l 1,15,16
 88 285 88 285 126 256 c 0,17,18
 146 240 146 240 176 214 c 1,19,-1
 176 909 l 1,20,-1
 231 909 l 1,21,-1
 231 167 l 1,22,-1
 237 161 l 2,23,24
 293 105 293 105 308 87 c 1,0,1
EndSplineSet
EndChar

StartChar: germandbls
Encoding: 223 223 147
Width: 753
GlyphClass: 2
Flags: W
LayerCount: 2
Fore
SplineSet
307 -26 m 1,0,1
 330 9 330 9 337.5 32 c 128,-1,2
 345 55 345 55 345 94 c 0,3,4
 345 138 345 138 333 138 c 0,5,6
 324 138 324 138 294 107 c 0,7,8
 244 57 244 57 191 57 c 0,9,10
 143 57 143 57 114.5 89 c 128,-1,11
 86 121 86 121 86 176 c 0,12,13
 86 236 86 236 116.5 273.5 c 128,-1,14
 147 311 147 311 195 311 c 0,15,16
 234 311 234 311 276 284 c 2,17,-1
 297 272 l 2,18,19
 308 264 308 264 320 264 c 0,20,21
 335 264 335 264 335 279 c 0,22,23
 335 287 335 287 329 293.5 c 128,-1,24
 323 300 323 300 302 315 c 0,25,26
 237 360 237 360 237 425 c 0,27,28
 237 475 237 475 276.5 509.5 c 128,-1,29
 316 544 316 544 373 544 c 0,30,31
 431 544 431 544 470 509.5 c 128,-1,32
 509 475 509 475 509 425 c 0,33,34
 509 360 509 360 444 315 c 0,35,36
 423 300 423 300 417 293.5 c 128,-1,37
 411 287 411 287 411 279 c 0,38,39
 411 264 411 264 426 264 c 0,40,41
 437 264 437 264 450 272 c 2,42,-1
 470 284 l 2,43,44
 514 311 514 311 551 311 c 0,45,46
 600 311 600 311 630 273.5 c 128,-1,47
 660 236 660 236 660 176 c 0,48,49
 660 121 660 121 632 89 c 128,-1,50
 604 57 604 57 555 57 c 0,51,52
 501 57 501 57 452 107 c 0,53,54
 421 138 421 138 413 138 c 0,55,56
 400 138 400 138 400 93 c 0,57,58
 400 55 400 55 407.5 32 c 128,-1,59
 415 9 415 9 439 -26 c 1,60,-1
 307 -26 l 1,0,1
EndSplineSet
EndChar

StartChar: agrave
Encoding: 224 224 148
Width: 250
GlyphClass: 2
Flags: W
LayerCount: 2
Fore
SplineSet
165 83 m 0,0,1
 181 66 181 66 181 43 c 128,-1,2
 181 20 181 20 164.5 3.5 c 128,-1,3
 148 -13 148 -13 125 -13 c 128,-1,4
 102 -13 102 -13 85.5 3.5 c 128,-1,5
 69 20 69 20 69 43 c 128,-1,6
 69 66 69 66 85.5 83 c 128,-1,7
 102 100 102 100 125 100 c 128,-1,8
 148 100 148 100 165 83 c 0,0,1
EndSplineSet
EndChar

StartChar: aacute
Encoding: 225 225 149
Width: 250
GlyphClass: 2
Flags: W
LayerCount: 2
Fore
SplineSet
165 83 m 0,0,1
 181 66 181 66 181 43 c 128,-1,2
 181 20 181 20 164.5 3.5 c 128,-1,3
 148 -13 148 -13 125 -13 c 128,-1,4
 102 -13 102 -13 85.5 3.5 c 128,-1,5
 69 20 69 20 69 43 c 128,-1,6
 69 66 69 66 85.5 83 c 128,-1,7
 102 100 102 100 125 100 c 128,-1,8
 148 100 148 100 165 83 c 0,0,1
EndSplineSet
EndChar

StartChar: acircumflex
Encoding: 226 226 150
Width: 250
GlyphClass: 2
Flags: W
LayerCount: 2
Fore
SplineSet
165 83 m 0,0,1
 181 66 181 66 181 43 c 128,-1,2
 181 20 181 20 164.5 3.5 c 128,-1,3
 148 -13 148 -13 125 -13 c 128,-1,4
 102 -13 102 -13 85.5 3.5 c 128,-1,5
 69 20 69 20 69 43 c 128,-1,6
 69 66 69 66 85.5 83 c 128,-1,7
 102 100 102 100 125 100 c 128,-1,8
 148 100 148 100 165 83 c 0,0,1
EndSplineSet
EndChar

StartChar: atilde
Encoding: 227 227 151
Width: 250
GlyphClass: 2
Flags: W
LayerCount: 2
Fore
SplineSet
165 83 m 0,0,1
 181 66 181 66 181 43 c 128,-1,2
 181 20 181 20 164.5 3.5 c 128,-1,3
 148 -13 148 -13 125 -13 c 128,-1,4
 102 -13 102 -13 85.5 3.5 c 128,-1,5
 69 20 69 20 69 43 c 128,-1,6
 69 66 69 66 85.5 83 c 128,-1,7
 102 100 102 100 125 100 c 128,-1,8
 148 100 148 100 165 83 c 0,0,1
EndSplineSet
EndChar

StartChar: adieresis
Encoding: 228 228 152
Width: 250
GlyphClass: 2
Flags: W
LayerCount: 2
Fore
SplineSet
165 83 m 0,0,1
 181 66 181 66 181 43 c 128,-1,2
 181 20 181 20 164.5 3.5 c 128,-1,3
 148 -13 148 -13 125 -13 c 128,-1,4
 102 -13 102 -13 85.5 3.5 c 128,-1,5
 69 20 69 20 69 43 c 128,-1,6
 69 66 69 66 85.5 83 c 128,-1,7
 102 100 102 100 125 100 c 128,-1,8
 148 100 148 100 165 83 c 0,0,1
EndSplineSet
EndChar

StartChar: aring
Encoding: 229 229 153
Width: 250
GlyphClass: 2
Flags: W
LayerCount: 2
Fore
SplineSet
165 83 m 0,0,1
 181 66 181 66 181 43 c 128,-1,2
 181 20 181 20 164.5 3.5 c 128,-1,3
 148 -13 148 -13 125 -13 c 128,-1,4
 102 -13 102 -13 85.5 3.5 c 128,-1,5
 69 20 69 20 69 43 c 128,-1,6
 69 66 69 66 85.5 83 c 128,-1,7
 102 100 102 100 125 100 c 128,-1,8
 148 100 148 100 165 83 c 0,0,1
EndSplineSet
EndChar

StartChar: ae
Encoding: 230 230 154
Width: 1000
Flags: W
LayerCount: 2
Fore
SplineSet
-60 220 m 1,0,-1
 -60 276 l 1,1,-1
 1050 276 l 1,2,-1
 1050 220 l 1,3,-1
 -60 220 l 1,0,-1
EndSplineSet
EndChar

StartChar: ccedilla
Encoding: 231 231 155
Width: 250
GlyphClass: 2
Flags: W
LayerCount: 2
Fore
SplineSet
165 83 m 0,0,1
 181 66 181 66 181 43 c 128,-1,2
 181 20 181 20 164.5 3.5 c 128,-1,3
 148 -13 148 -13 125 -13 c 128,-1,4
 102 -13 102 -13 85.5 3.5 c 128,-1,5
 69 20 69 20 69 43 c 128,-1,6
 69 66 69 66 85.5 83 c 128,-1,7
 102 100 102 100 125 100 c 128,-1,8
 148 100 148 100 165 83 c 0,0,1
EndSplineSet
EndChar

StartChar: egrave
Encoding: 232 232 156
Width: 250
GlyphClass: 2
Flags: W
LayerCount: 2
Fore
SplineSet
165 83 m 0,0,1
 181 66 181 66 181 43 c 128,-1,2
 181 20 181 20 164.5 3.5 c 128,-1,3
 148 -13 148 -13 125 -13 c 128,-1,4
 102 -13 102 -13 85.5 3.5 c 128,-1,5
 69 20 69 20 69 43 c 128,-1,6
 69 66 69 66 85.5 83 c 128,-1,7
 102 100 102 100 125 100 c 128,-1,8
 148 100 148 100 165 83 c 0,0,1
EndSplineSet
EndChar

StartChar: eacute
Encoding: 233 233 157
Width: 250
GlyphClass: 2
Flags: W
LayerCount: 2
Fore
SplineSet
165 83 m 0,0,1
 181 66 181 66 181 43 c 128,-1,2
 181 20 181 20 164.5 3.5 c 128,-1,3
 148 -13 148 -13 125 -13 c 128,-1,4
 102 -13 102 -13 85.5 3.5 c 128,-1,5
 69 20 69 20 69 43 c 128,-1,6
 69 66 69 66 85.5 83 c 128,-1,7
 102 100 102 100 125 100 c 128,-1,8
 148 100 148 100 165 83 c 0,0,1
EndSplineSet
EndChar

StartChar: ecircumflex
Encoding: 234 234 158
Width: 250
GlyphClass: 2
Flags: W
LayerCount: 2
Fore
SplineSet
165 83 m 0,0,1
 181 66 181 66 181 43 c 128,-1,2
 181 20 181 20 164.5 3.5 c 128,-1,3
 148 -13 148 -13 125 -13 c 128,-1,4
 102 -13 102 -13 85.5 3.5 c 128,-1,5
 69 20 69 20 69 43 c 128,-1,6
 69 66 69 66 85.5 83 c 128,-1,7
 102 100 102 100 125 100 c 128,-1,8
 148 100 148 100 165 83 c 0,0,1
EndSplineSet
EndChar

StartChar: edieresis
Encoding: 235 235 159
Width: 250
GlyphClass: 2
Flags: W
LayerCount: 2
Fore
SplineSet
165 83 m 0,0,1
 181 66 181 66 181 43 c 128,-1,2
 181 20 181 20 164.5 3.5 c 128,-1,3
 148 -13 148 -13 125 -13 c 128,-1,4
 102 -13 102 -13 85.5 3.5 c 128,-1,5
 69 20 69 20 69 43 c 128,-1,6
 69 66 69 66 85.5 83 c 128,-1,7
 102 100 102 100 125 100 c 128,-1,8
 148 100 148 100 165 83 c 0,0,1
EndSplineSet
EndChar

StartChar: igrave
Encoding: 236 236 160
Width: 250
GlyphClass: 2
Flags: W
LayerCount: 2
Fore
SplineSet
165 83 m 0,0,1
 181 66 181 66 181 43 c 128,-1,2
 181 20 181 20 164.5 3.5 c 128,-1,3
 148 -13 148 -13 125 -13 c 128,-1,4
 102 -13 102 -13 85.5 3.5 c 128,-1,5
 69 20 69 20 69 43 c 128,-1,6
 69 66 69 66 85.5 83 c 128,-1,7
 102 100 102 100 125 100 c 128,-1,8
 148 100 148 100 165 83 c 0,0,1
EndSplineSet
EndChar

StartChar: iacute
Encoding: 237 237 161
Width: 250
GlyphClass: 2
Flags: W
LayerCount: 2
Fore
SplineSet
165 83 m 0,0,1
 181 66 181 66 181 43 c 128,-1,2
 181 20 181 20 164.5 3.5 c 128,-1,3
 148 -13 148 -13 125 -13 c 128,-1,4
 102 -13 102 -13 85.5 3.5 c 128,-1,5
 69 20 69 20 69 43 c 128,-1,6
 69 66 69 66 85.5 83 c 128,-1,7
 102 100 102 100 125 100 c 128,-1,8
 148 100 148 100 165 83 c 0,0,1
EndSplineSet
EndChar

StartChar: icircumflex
Encoding: 238 238 162
Width: 250
GlyphClass: 2
Flags: W
LayerCount: 2
Fore
SplineSet
165 83 m 0,0,1
 181 66 181 66 181 43 c 128,-1,2
 181 20 181 20 164.5 3.5 c 128,-1,3
 148 -13 148 -13 125 -13 c 128,-1,4
 102 -13 102 -13 85.5 3.5 c 128,-1,5
 69 20 69 20 69 43 c 128,-1,6
 69 66 69 66 85.5 83 c 128,-1,7
 102 100 102 100 125 100 c 128,-1,8
 148 100 148 100 165 83 c 0,0,1
EndSplineSet
EndChar

StartChar: idieresis
Encoding: 239 239 163
Width: 250
GlyphClass: 2
Flags: W
LayerCount: 2
Fore
SplineSet
165 83 m 0,0,1
 181 66 181 66 181 43 c 128,-1,2
 181 20 181 20 164.5 3.5 c 128,-1,3
 148 -13 148 -13 125 -13 c 128,-1,4
 102 -13 102 -13 85.5 3.5 c 128,-1,5
 69 20 69 20 69 43 c 128,-1,6
 69 66 69 66 85.5 83 c 128,-1,7
 102 100 102 100 125 100 c 128,-1,8
 148 100 148 100 165 83 c 0,0,1
EndSplineSet
EndChar

StartChar: ntilde
Encoding: 241 241 164
Width: 250
GlyphClass: 2
Flags: W
LayerCount: 2
Fore
SplineSet
165 83 m 0,0,1
 181 66 181 66 181 43 c 128,-1,2
 181 20 181 20 164.5 3.5 c 128,-1,3
 148 -13 148 -13 125 -13 c 128,-1,4
 102 -13 102 -13 85.5 3.5 c 128,-1,5
 69 20 69 20 69 43 c 128,-1,6
 69 66 69 66 85.5 83 c 128,-1,7
 102 100 102 100 125 100 c 128,-1,8
 148 100 148 100 165 83 c 0,0,1
EndSplineSet
EndChar

StartChar: ograve
Encoding: 242 242 165
Width: 250
GlyphClass: 2
Flags: W
LayerCount: 2
Fore
SplineSet
165 83 m 0,0,1
 181 66 181 66 181 43 c 128,-1,2
 181 20 181 20 164.5 3.5 c 128,-1,3
 148 -13 148 -13 125 -13 c 128,-1,4
 102 -13 102 -13 85.5 3.5 c 128,-1,5
 69 20 69 20 69 43 c 128,-1,6
 69 66 69 66 85.5 83 c 128,-1,7
 102 100 102 100 125 100 c 128,-1,8
 148 100 148 100 165 83 c 0,0,1
EndSplineSet
EndChar

StartChar: oacute
Encoding: 243 243 166
Width: 250
GlyphClass: 2
Flags: W
LayerCount: 2
Fore
SplineSet
165 83 m 0,0,1
 181 66 181 66 181 43 c 128,-1,2
 181 20 181 20 164.5 3.5 c 128,-1,3
 148 -13 148 -13 125 -13 c 128,-1,4
 102 -13 102 -13 85.5 3.5 c 128,-1,5
 69 20 69 20 69 43 c 128,-1,6
 69 66 69 66 85.5 83 c 128,-1,7
 102 100 102 100 125 100 c 128,-1,8
 148 100 148 100 165 83 c 0,0,1
EndSplineSet
EndChar

StartChar: ocircumflex
Encoding: 244 244 167
Width: 250
GlyphClass: 2
Flags: W
LayerCount: 2
Fore
SplineSet
165 83 m 0,0,1
 181 66 181 66 181 43 c 128,-1,2
 181 20 181 20 164.5 3.5 c 128,-1,3
 148 -13 148 -13 125 -13 c 128,-1,4
 102 -13 102 -13 85.5 3.5 c 128,-1,5
 69 20 69 20 69 43 c 128,-1,6
 69 66 69 66 85.5 83 c 128,-1,7
 102 100 102 100 125 100 c 128,-1,8
 148 100 148 100 165 83 c 0,0,1
EndSplineSet
EndChar

StartChar: otilde
Encoding: 245 245 168
Width: 250
GlyphClass: 2
Flags: W
LayerCount: 2
Fore
SplineSet
165 83 m 0,0,1
 181 66 181 66 181 43 c 128,-1,2
 181 20 181 20 164.5 3.5 c 128,-1,3
 148 -13 148 -13 125 -13 c 128,-1,4
 102 -13 102 -13 85.5 3.5 c 128,-1,5
 69 20 69 20 69 43 c 128,-1,6
 69 66 69 66 85.5 83 c 128,-1,7
 102 100 102 100 125 100 c 128,-1,8
 148 100 148 100 165 83 c 0,0,1
EndSplineSet
EndChar

StartChar: odieresis
Encoding: 246 246 169
Width: 250
GlyphClass: 2
Flags: W
LayerCount: 2
Fore
SplineSet
165 83 m 0,0,1
 181 66 181 66 181 43 c 128,-1,2
 181 20 181 20 164.5 3.5 c 128,-1,3
 148 -13 148 -13 125 -13 c 128,-1,4
 102 -13 102 -13 85.5 3.5 c 128,-1,5
 69 20 69 20 69 43 c 128,-1,6
 69 66 69 66 85.5 83 c 128,-1,7
 102 100 102 100 125 100 c 128,-1,8
 148 100 148 100 165 83 c 0,0,1
EndSplineSet
EndChar

StartChar: divide
Encoding: 247 247 170
Width: 600
Flags: W
LayerCount: 2
Fore
SplineSet
154 317 m 1,0,-1
 203 132 l 1,1,-1
 396 700 l 1,2,-1
 606 700 l 2,3,4
 636 700 636 700 636 675 c 0,5,6
 636 664 636 664 627.5 656.5 c 128,-1,7
 619 649 619 649 606 649 c 2,8,-1
 439 649 l 1,9,-1
 198 -18 l 1,10,-1
 109 267 l 1,11,-1
 49 267 l 2,12,13
 19 267 19 267 19 291 c 2,14,-1
 19 293 l 2,15,16
 19 317 19 317 49 317 c 2,17,-1
 154 317 l 1,0,-1
EndSplineSet
EndChar

StartChar: oslash
Encoding: 248 248 171
Width: 658
Flags: W
LayerCount: 2
Fore
SplineSet
602 68 m 1,0,-1
 185 68 l 1,1,-1
 185 -16 l 1,2,-1
 15 96 l 1,3,-1
 185 208 l 1,4,-1
 185 124 l 1,5,-1
 547 124 l 1,6,-1
 547 629 l 1,7,-1
 602 629 l 1,8,-1
 602 68 l 1,0,-1
EndSplineSet
EndChar

StartChar: ugrave
Encoding: 249 249 172
Width: 250
GlyphClass: 2
Flags: W
LayerCount: 2
Fore
SplineSet
165 83 m 0,0,1
 181 66 181 66 181 43 c 128,-1,2
 181 20 181 20 164.5 3.5 c 128,-1,3
 148 -13 148 -13 125 -13 c 128,-1,4
 102 -13 102 -13 85.5 3.5 c 128,-1,5
 69 20 69 20 69 43 c 128,-1,6
 69 66 69 66 85.5 83 c 128,-1,7
 102 100 102 100 125 100 c 128,-1,8
 148 100 148 100 165 83 c 0,0,1
EndSplineSet
EndChar

StartChar: uacute
Encoding: 250 250 173
Width: 250
GlyphClass: 2
Flags: W
LayerCount: 2
Fore
SplineSet
165 83 m 0,0,1
 181 66 181 66 181 43 c 128,-1,2
 181 20 181 20 164.5 3.5 c 128,-1,3
 148 -13 148 -13 125 -13 c 128,-1,4
 102 -13 102 -13 85.5 3.5 c 128,-1,5
 69 20 69 20 69 43 c 128,-1,6
 69 66 69 66 85.5 83 c 128,-1,7
 102 100 102 100 125 100 c 128,-1,8
 148 100 148 100 165 83 c 0,0,1
EndSplineSet
EndChar

StartChar: ucircumflex
Encoding: 251 251 174
Width: 250
GlyphClass: 2
Flags: W
LayerCount: 2
Fore
SplineSet
165 83 m 0,0,1
 181 66 181 66 181 43 c 128,-1,2
 181 20 181 20 164.5 3.5 c 128,-1,3
 148 -13 148 -13 125 -13 c 128,-1,4
 102 -13 102 -13 85.5 3.5 c 128,-1,5
 69 20 69 20 69 43 c 128,-1,6
 69 66 69 66 85.5 83 c 128,-1,7
 102 100 102 100 125 100 c 128,-1,8
 148 100 148 100 165 83 c 0,0,1
EndSplineSet
EndChar

StartChar: udieresis
Encoding: 252 252 175
Width: 250
GlyphClass: 2
Flags: W
LayerCount: 2
Fore
SplineSet
165 83 m 0,0,1
 181 66 181 66 181 43 c 128,-1,2
 181 20 181 20 164.5 3.5 c 128,-1,3
 148 -13 148 -13 125 -13 c 128,-1,4
 102 -13 102 -13 85.5 3.5 c 128,-1,5
 69 20 69 20 69 43 c 128,-1,6
 69 66 69 66 85.5 83 c 128,-1,7
 102 100 102 100 125 100 c 128,-1,8
 148 100 148 100 165 83 c 0,0,1
EndSplineSet
EndChar

StartChar: yacute
Encoding: 253 253 176
Width: 987
Flags: W
LayerCount: 2
Fore
SplineSet
867 243 m 1,0,1
 847 261 847 261 827 281 c 2,2,-1
 787 321 l 1,3,-1
 45 321 l 1,4,-1
 45 375 l 1,5,-1
 740 375 l 1,6,7
 727 390 727 390 662 472 c 1,8,-1
 705 506 l 1,9,10
 836 344 836 344 954 243 c 1,11,12
 836 143 836 143 705 -19 c 1,13,-1
 662 15 l 1,14,15
 670 25 670 25 698 62 c 0,16,17
 714 82 714 82 740 111 c 1,18,-1
 45 111 l 1,19,-1
 45 166 l 1,20,-1
 787 166 l 1,21,22
 797 175 797 175 827 206 c 0,23,24
 845 225 845 225 867 243 c 1,0,1
EndSplineSet
EndChar

StartChar: ydieresis
Encoding: 255 255 177
Width: 713
Flags: W
LayerCount: 2
Fore
SplineSet
15 367 m 1,0,-1
 680 367 l 1,1,-1
 680 40 l 1,2,-1
 621 40 l 1,3,-1
 621 307 l 1,4,-1
 15 307 l 1,5,-1
 15 367 l 1,0,-1
EndSplineSet
EndChar

StartChar: dotlessi
Encoding: 305 305 178
Width: 686
Flags: W
LayerCount: 2
Fore
SplineSet
415 921 m 1,0,-1
 415 508 l 2,1,2
 415 220 415 220 299 51 c 0,3,4
 256 -12 256 -12 208 -46.5 c 128,-1,5
 160 -81 160 -81 117 -81 c 0,6,7
 83 -81 83 -81 61 -58.5 c 128,-1,8
 39 -36 39 -36 39 -1 c 0,9,10
 39 30 39 30 55.5 50 c 128,-1,11
 72 70 72 70 98 70 c 256,12,13
 124 70 124 70 141.5 54 c 128,-1,14
 159 38 159 38 159 16 c 0,15,16
 159 -7 159 -7 138 -25 c 1,17,18
 147 -28 147 -28 153 -28 c 0,19,20
 202 -28 202 -28 249 45 c 0,21,22
 284 98 284 98 306 194 c 0,23,24
 332 311 332 311 332 456 c 2,25,-1
 332 921 l 1,26,-1
 415 921 l 1,0,-1
EndSplineSet
EndChar

StartChar: OE
Encoding: 338 338 179
Width: 713
Flags: W
LayerCount: 2
Fore
SplineSet
101 263 m 1,0,-1
 505 263 l 1,1,-1
 505 207 l 1,2,-1
 101 207 l 1,3,4
 111 146 111 146 151 107 c 0,5,6
 173 85 173 85 198 74.5 c 128,-1,7
 223 64 223 64 264 60 c 0,8,9
 293 56 293 56 390 56 c 2,10,-1
 505 56 l 1,11,-1
 505 0 l 1,12,-1
 392 0 l 2,13,14
 269 0 269 0 230 7 c 0,15,16
 141 22 141 22 88 98 c 0,17,18
 45 159 45 159 45 235 c 256,19,20
 45 311 45 311 88 373 c 0,21,22
 141 448 141 448 230 463 c 0,23,24
 269 470 269 470 392 470 c 2,25,-1
 505 470 l 1,26,-1
 505 414 l 1,27,-1
 390 414 l 2,28,29
 298 414 298 414 265 411 c 128,-1,30
 232 408 232 408 201 397 c 0,31,32
 163 383 163 383 136 346.5 c 128,-1,33
 109 310 109 310 101 263 c 1,0,-1
EndSplineSet
EndChar

StartChar: oe
Encoding: 339 339 180
Width: 713
Flags: W
LayerCount: 2
Fore
SplineSet
383 414 m 1,0,-1
 306 263 l 1,1,-1
 505 263 l 1,2,-1
 505 207 l 1,3,-1
 278 207 l 1,4,-1
 209 71 l 1,5,6
 237 61 237 61 269 58.5 c 128,-1,7
 301 56 301 56 390 56 c 2,8,-1
 505 56 l 1,9,-1
 505 0 l 1,10,-1
 392 0 l 2,11,12
 289 0 289 0 253 3.5 c 128,-1,13
 217 7 217 7 183 20 c 1,14,-1
 144 -58 l 1,15,-1
 98 -34 l 1,16,-1
 138 46 l 1,17,18
 45 120 45 120 45 235 c 0,19,20
 45 332 45 332 112 401 c 0,21,22
 160 451 160 451 230 463 c 0,23,24
 264 470 264 470 352 470 c 1,25,-1
 395 555 l 1,26,-1
 442 531 l 1,27,-1
 411 470 l 1,28,-1
 505 470 l 1,29,-1
 505 414 l 1,30,-1
 383 414 l 1,0,-1
324 414 m 1,31,-1
 315 414 l 2,32,33
 253 413 253 413 215.5 401.5 c 128,-1,34
 178 390 178 390 151 363 c 0,35,36
 111 324 111 324 101 263 c 1,37,-1
 248 263 l 1,38,-1
 324 414 l 1,31,-1
164 96 m 1,39,-1
 220 207 l 1,40,-1
 101 207 l 1,41,42
 112 139 112 139 164 96 c 1,39,-1
EndSplineSet
EndChar

StartChar: Ydieresis
Encoding: 376 376 181
Width: 603
Flags: W
LayerCount: 2
Fore
SplineSet
304 476 m 1,0,-1
 583 32 l 1,1,-1
 537 0 l 1,2,-1
 303 370 l 1,3,-1
 69 -1 l 1,4,-1
 23 29 l 1,5,-1
 304 476 l 1,0,-1
EndSplineSet
EndChar

StartChar: florin
Encoding: 402 402 182
Width: 768
Flags: W
LayerCount: 2
Fore
SplineSet
205 490 m 1,0,-1
 244 529 l 1,1,-1
 388 388 l 1,2,-1
 529 529 l 1,3,-1
 567 490 l 1,4,-1
 426 349 l 1,5,-1
 567 205 l 1,6,-1
 529 167 l 1,7,-1
 388 311 l 1,8,-1
 244 167 l 1,9,-1
 205 205 l 1,10,-1
 349 349 l 1,11,-1
 205 490 l 1,0,-1
391 691 m 0,12,13
 484 691 484 691 571 637 c 0,14,15
 648 589 648 589 691 509 c 0,16,17
 733 430 733 430 733 344 c 0,18,19
 733 253 733 253 686 173 c 0,20,21
 637 88 637 88 550 42 c 0,22,23
 472 0 472 0 387 0 c 0,24,25
 289 0 289 0 204 53 c 0,26,27
 122 105 122 105 79 193 c 0,28,29
 43 265 43 265 43 345 c 0,30,31
 43 442 43 442 94 526 c 0,32,33
 143 606 143 606 229 651 c 0,34,35
 305 691 305 691 391 691 c 0,12,13
391 633 m 0,36,37
 269 633 269 633 185 550 c 0,38,39
 99 466 99 466 99 344 c 0,40,41
 99 225 99 225 183 141 c 0,42,43
 222 104 222 104 272 82 c 0,44,45
 328 58 328 58 388 58 c 0,46,47
 469 58 469 58 539 100 c 0,48,49
 612 144 612 144 649 221 c 0,50,51
 677 279 677 279 677 346 c 0,52,53
 677 433 677 433 631 503 c 0,54,55
 591 563 591 563 524 599 c 0,56,57
 460 633 460 633 391 633 c 0,36,37
EndSplineSet
EndChar

StartChar: circumflex
Encoding: 710 710 183
Width: 384
Flags: W
LayerCount: 2
Fore
SplineSet
450 -293 m 1,0,-1
 398 -293 l 1,1,-1
 398 138 l 2,2,3
 398 375 398 375 320 579 c 0,4,5
 282 679 282 679 208 772.5 c 128,-1,6
 134 866 134 866 54 915 c 1,7,-1
 68 926 l 1,8,9
 146 883 146 883 195.5 842.5 c 128,-1,10
 245 802 245 802 286 746 c 0,11,12
 348 661 348 661 390 541 c 0,13,14
 450 369 450 369 450 168 c 2,15,-1
 450 -293 l 1,0,-1
EndSplineSet
EndChar

StartChar: caron
Encoding: 711 711 184
Width: 250
Flags: W
LayerCount: 2
Fore
SplineSet
120 312 m 0,0,1
 140 312 140 312 154.5 296.5 c 128,-1,2
 169 281 169 281 169 260 c 256,3,4
 169 239 169 239 154.5 224 c 128,-1,5
 140 209 140 209 119 209 c 256,6,7
 98 209 98 209 83.5 224 c 128,-1,8
 69 239 69 239 69 261 c 0,9,10
 69 282 69 282 84 297 c 128,-1,11
 99 312 99 312 120 312 c 0,0,1
EndSplineSet
EndChar

StartChar: breve
Encoding: 728 728 185
Width: 384
Flags: W
LayerCount: 2
Fore
SplineSet
360 -80 m 1,0,-1
 305 -80 l 1,1,-1
 305 871 l 1,2,-1
 22 871 l 1,3,-1
 22 926 l 1,4,-1
 360 926 l 1,5,-1
 360 -80 l 1,0,-1
EndSplineSet
EndChar

StartChar: dotaccent
Encoding: 729 729 186
Width: 384
Flags: W
LayerCount: 2
Fore
SplineSet
305 925 m 1,0,-1
 360 925 l 1,1,-1
 360 -85 l 1,2,-1
 305 -85 l 1,3,-1
 305 925 l 1,0,-1
EndSplineSet
EndChar

StartChar: ring
Encoding: 730 730 187
Width: 384
Flags: W
LayerCount: 2
Fore
SplineSet
360 926 m 1,0,-1
 360 -80 l 1,1,-1
 20 -80 l 1,2,-1
 20 -25 l 1,3,-1
 305 -25 l 1,4,-1
 305 926 l 1,5,-1
 360 926 l 1,0,-1
EndSplineSet
EndChar

StartChar: ogonek
Encoding: 731 731 188
Width: 494
Flags: W
LayerCount: 2
Fore
SplineSet
201 926 m 1,0,-1
 255 926 l 1,1,-1
 255 219 l 2,2,3
 255 83 255 83 208 22 c 0,4,5
 179 -16 179 -16 136 -37 c 128,-1,6
 93 -58 93 -58 17 -70 c 1,7,-1
 17 -48 l 1,8,9
 119 -23 119 -23 160 40.5 c 128,-1,10
 201 104 201 104 201 237 c 2,11,-1
 201 926 l 1,0,-1
EndSplineSet
EndChar

StartChar: tilde
Encoding: 732 732 189
Width: 384
Flags: W
LayerCount: 2
Fore
SplineSet
450 935 m 1,0,-1
 450 -70 l 1,1,-1
 398 -70 l 1,2,-1
 398 935 l 1,3,-1
 450 935 l 1,0,-1
EndSplineSet
EndChar

StartChar: hungarumlaut
Encoding: 733 733 190
Width: 494
Flags: W
LayerCount: 2
Fore
SplineSet
201 935 m 1,0,-1
 255 935 l 1,1,-1
 255 695 l 2,2,3
 255 613 255 613 270 575 c 0,4,5
 306 480 306 480 442 461 c 1,6,-1
 442 400 l 1,7,8
 350 387 350 387 303 338 c 0,9,10
 276 310 276 310 265.5 273 c 128,-1,11
 255 236 255 236 255 166 c 2,12,-1
 255 -85 l 1,13,-1
 201 -85 l 1,14,-1
 201 187 l 2,15,16
 201 258 201 258 217 299 c 0,17,18
 236 351 236 351 274 380.5 c 128,-1,19
 312 410 312 410 383 431 c 1,20,21
 292 455 292 455 250 505 c 0,22,23
 223 537 223 537 212 575.5 c 128,-1,24
 201 614 201 614 201 674 c 2,25,-1
 201 935 l 1,0,-1
EndSplineSet
EndChar

StartChar: uni0394
Encoding: 916 916 191
Width: 823
Flags: W
LayerCount: 2
Fore
SplineSet
140 114 m 1,0,1
 51 215 51 215 51 352 c 0,2,3
 51 455 51 455 105 543 c 0,4,5
 159 630 159 630 250 677 c 0,6,7
 328 717 328 717 416 717 c 0,8,9
 549 717 549 717 654 628 c 1,10,-1
 744 718 l 1,11,-1
 781 681 l 1,12,-1
 692 591 l 1,13,14
 781 485 781 485 781 352 c 0,15,16
 781 249 781 249 727 161 c 0,17,18
 674 73 674 73 582 27 c 0,19,20
 504 -13 504 -13 416 -13 c 0,21,22
 279 -13 279 -13 176 76 c 1,23,-1
 76 -24 l 1,24,-1
 39 13 l 1,25,-1
 140 114 l 1,0,1
179 153 m 1,26,-1
 615 589 l 1,27,28
 530 661 530 661 416 661 c 0,29,30
 329 661 329 661 254 615 c 0,31,32
 180 570 180 570 140 492 c 0,33,34
 106 426 106 426 106 352 c 0,35,36
 106 241 106 241 179 153 c 1,26,-1
652 552 m 1,37,-1
 216 116 l 1,38,39
 302 43 302 43 416 43 c 0,40,41
 503 43 503 43 578 89 c 0,42,43
 653 134 653 134 692 212 c 0,44,45
 726 278 726 278 726 352 c 0,46,47
 726 467 726 467 652 552 c 1,37,-1
EndSplineSet
EndChar

StartChar: uni03A9
Encoding: 937 937 192
Width: 603
Flags: W
LayerCount: 2
Fore
SplineSet
336 1010 m 1,0,-1
 336 -120 l 1,1,-1
 280 -120 l 1,2,-1
 280 1010 l 1,3,-1
 336 1010 l 1,0,-1
EndSplineSet
EndChar

StartChar: pi
Encoding: 960 960 193
Width: 549
Flags: W
LayerCount: 2
Fore
SplineSet
187 142 m 1,0,-1
 15 142 l 1,1,-1
 15 197 l 1,2,-1
 215 197 l 1,3,-1
 285 336 l 1,4,-1
 15 336 l 1,5,-1
 15 391 l 1,6,-1
 312 391 l 1,7,-1
 391 549 l 1,8,-1
 439 525 l 1,9,-1
 371 391 l 1,10,-1
 540 391 l 1,11,-1
 540 336 l 1,12,-1
 343 336 l 1,13,-1
 273 197 l 1,14,-1
 540 197 l 1,15,-1
 540 142 l 1,16,-1
 245 142 l 1,17,-1
 161 -25 l 1,18,-1
 115 -1 l 1,19,-1
 187 142 l 1,0,-1
EndSplineSet
EndChar

StartChar: endash
Encoding: 8211 8211 194
Width: 768
Flags: W
LayerCount: 2
Fore
SplineSet
26 0 m 1,0,-1
 693 671 l 1,1,-1
 738 631 l 1,2,-1
 169 57 l 1,3,-1
 703 57 l 1,4,-1
 701 -1 l 1,5,-1
 26 0 l 1,0,-1
EndSplineSet
EndChar

StartChar: emdash
Encoding: 8212 8212 195
Width: 713
Flags: W
LayerCount: 2
Fore
SplineSet
681 688 m 1,0,-1
 339 0 l 1,1,-1
 36 688 l 1,2,-1
 681 688 l 1,0,-1
610 636 m 1,3,-1
 165 636 l 1,4,-1
 376 178 l 1,5,-1
 610 636 l 1,3,-1
EndSplineSet
EndChar

StartChar: quoteleft
Encoding: 8216 8216 196
Width: 890
Flags: W
LayerCount: 2
Fore
SplineSet
344 673 m 1,0,-1
 344 563 l 1,1,-1
 321 563 l 1,2,3
 319 610 319 610 300 623.5 c 128,-1,4
 281 637 281 637 217 637 c 2,5,-1
 214 637 l 1,6,-1
 214 321 l 2,7,8
 214 307 214 307 215.5 303 c 128,-1,9
 217 299 217 299 223 296 c 0,10,11
 234 291 234 291 275 291 c 1,12,-1
 275 269 l 1,13,-1
 82 269 l 1,14,-1
 82 291 l 1,15,16
 124 291 124 291 134.5 296.5 c 128,-1,17
 145 302 145 302 145 323 c 2,18,-1
 145 637 l 1,19,-1
 139 637 l 2,20,21
 79 636 79 636 60.5 622 c 128,-1,22
 42 608 42 608 38 563 c 1,23,-1
 18 563 l 1,24,-1
 18 673 l 1,25,-1
 344 673 l 1,0,-1
855 673 m 1,26,-1
 855 651 l 1,27,-1
 836 651 l 2,28,29
 806 651 806 651 806 635 c 2,30,-1
 806 325 l 2,31,32
 806 306 806 306 815 299.5 c 128,-1,33
 824 293 824 293 855 291 c 1,34,-1
 855 269 l 1,35,-1
 685 269 l 1,36,-1
 685 291 l 1,37,38
 716 292 716 292 726.5 298.5 c 128,-1,39
 737 305 737 305 737 325 c 2,40,-1
 737 615 l 1,41,-1
 598 269 l 1,42,-1
 576 269 l 1,43,-1
 444 599 l 1,44,-1
 444 330 l 2,45,46
 444 308 444 308 453.5 300 c 128,-1,47
 463 292 463 292 491 291 c 1,48,-1
 491 269 l 1,49,-1
 356 269 l 1,50,-1
 356 291 l 1,51,52
 389 292 389 292 397 298.5 c 128,-1,53
 405 305 405 305 405 331 c 2,54,-1
 405 634 l 2,55,56
 405 647 405 647 400 649 c 128,-1,57
 395 651 395 651 364 651 c 1,58,-1
 364 673 l 1,59,-1
 484 673 l 1,60,-1
 603 382 l 1,61,-1
 721 673 l 1,62,-1
 855 673 l 1,26,-1
EndSplineSet
EndChar

StartChar: quoteright
Encoding: 8217 8217 197
Width: 823
Flags: W
LayerCount: 2
Fore
SplineSet
25 -124 m 1,0,-1
 25 -98 l 1,1,-1
 28 -98 l 2,2,3
 80 -98 80 -98 101 -67 c 0,4,5
 110 -54 110 -54 113 -38 c 128,-1,6
 116 -22 116 -22 116 18 c 2,7,-1
 116 609 l 2,8,9
 116 649 116 649 113 665 c 128,-1,10
 110 681 110 681 101 694 c 0,11,12
 80 725 80 725 28 725 c 2,13,-1
 25 725 l 1,14,-1
 25 751 l 1,15,-1
 803 751 l 1,16,-1
 803 725 l 1,17,-1
 800 725 l 2,18,19
 748 725 748 725 726 694 c 0,20,21
 717 681 717 681 714.5 665 c 128,-1,22
 712 649 712 649 712 609 c 2,23,-1
 712 18 l 2,24,25
 712 -22 712 -22 714.5 -38 c 128,-1,26
 717 -54 717 -54 726 -67 c 0,27,28
 748 -98 748 -98 800 -98 c 2,29,-1
 803 -98 l 1,30,-1
 803 -124 l 1,31,-1
 513 -124 l 1,32,-1
 513 -98 l 1,33,-1
 516 -98 l 2,34,35
 568 -98 568 -98 590 -67 c 0,36,37
 599 -54 599 -54 601.5 -38 c 128,-1,38
 604 -22 604 -22 604 18 c 2,39,-1
 604 594 l 2,40,41
 604 640 604 640 600 660.5 c 128,-1,42
 596 681 596 681 586 690 c 0,43,44
 572 703 572 703 546 705.5 c 128,-1,45
 520 708 520 708 413 708 c 0,46,47
 307 708 307 708 281.5 705.5 c 128,-1,48
 256 703 256 703 242 690 c 0,49,50
 231 680 231 680 227.5 660.5 c 128,-1,51
 224 641 224 641 224 594 c 2,52,-1
 224 18 l 2,53,54
 224 -22 224 -22 226.5 -38 c 128,-1,55
 229 -54 229 -54 238 -67 c 0,56,57
 259 -98 259 -98 312 -98 c 2,58,-1
 315 -98 l 1,59,-1
 315 -124 l 1,60,-1
 25 -124 l 1,0,-1
EndSplineSet
EndChar

StartChar: quotesinglbase
Encoding: 8218 8218 198
Width: 790
Flags: W
LayerCount: 2
Fore
SplineSet
399 641 m 0,0,1
 270 641 270 641 181 551 c 0,2,3
 139 508 139 508 115 451 c 0,4,5
 92 394 92 394 92 333 c 0,6,7
 92 246 92 246 137 172 c 256,8,9
 182 98 182 98 258 59 c 0,10,11
 323 26 323 26 395 26 c 0,12,13
 520 26 520 26 609 116 c 256,14,15
 698 206 698 206 698 333 c 0,16,17
 698 420 698 420 653 494 c 0,18,19
 610 567 610 567 533 607 c 0,20,21
 469 641 469 641 399 641 c 0,0,1
300 486 m 1,22,-1
 300 344 l 1,23,-1
 391 344 l 2,24,25
 497 344 497 344 497 416 c 0,26,27
 497 486 497 486 399 486 c 2,28,-1
 300 486 l 1,22,-1
400 679 m 0,29,30
 493 679 493 679 575 628 c 0,31,32
 658 577 658 577 702 490 c 0,33,34
 740 416 740 416 740 333 c 0,35,36
 740 236 740 236 689 153 c 0,37,38
 639 70 639 70 552 26 c 0,39,40
 478 -12 478 -12 395 -12 c 0,41,42
 299 -12 299 -12 216 38 c 0,43,44
 133 89 133 89 88 176 c 0,45,46
 50 250 50 250 50 333 c 0,47,48
 50 431 50 431 101 514 c 0,49,50
 151 596 151 596 239 641 c 0,51,52
 313 679 313 679 400 679 c 0,29,30
250 527 m 1,53,-1
 410 527 l 2,54,55
 468 527 468 527 499 509 c 0,56,57
 548 479 548 479 548 420 c 0,58,59
 548 354 548 354 480 325 c 1,60,61
 517 312 517 312 528.5 289 c 128,-1,62
 540 266 540 266 543 200 c 0,63,64
 546 155 546 155 554 137 c 1,65,-1
 503 137 l 1,66,67
 497 150 497 150 493 212 c 0,68,69
 491 248 491 248 485.5 264 c 128,-1,70
 480 280 480 280 467 289 c 0,71,72
 445 305 445 305 388 305 c 2,73,-1
 300 305 l 1,74,-1
 300 137 l 1,75,-1
 250 137 l 1,76,-1
 250 527 l 1,53,-1
EndSplineSet
EndChar

StartChar: quotedblleft
Encoding: 8220 8220 199
Width: 790
Flags: W
LayerCount: 2
Fore
SplineSet
394 645 m 256,0,1
 274 645 274 645 187 555 c 0,2,3
 146 512 146 512 124 456 c 0,4,5
 101 399 101 399 101 338 c 0,6,7
 101 212 101 212 187 122 c 256,8,9
 273 32 273 32 395 32 c 256,10,11
 517 32 517 32 603 122 c 0,12,13
 644 165 644 165 666 221 c 0,14,15
 689 277 689 277 689 335 c 0,16,17
 689 468 689 468 603 555 c 0,18,19
 514 645 514 645 394 645 c 256,0,1
335 361 m 1,20,-1
 351 361 l 2,21,22
 412 361 412 361 438 379 c 128,-1,23
 464 397 464 397 464 439 c 0,24,25
 464 514 464 514 372 514 c 0,26,27
 345 514 345 514 340 511 c 128,-1,28
 335 508 335 508 335 492 c 2,29,-1
 335 361 l 1,20,-1
394 690 m 0,30,31
 537 690 537 690 639 587 c 0,32,33
 740 485 740 485 740 334 c 0,34,35
 740 239 740 239 689 155 c 0,36,37
 638 70 638 70 552 25 c 0,38,39
 478 -13 478 -13 395 -13 c 0,40,41
 297 -13 297 -13 215 39 c 0,42,43
 132 91 132 91 88 179 c 0,44,45
 50 254 50 254 50 338 c 0,46,47
 50 437 50 437 101 522 c 0,48,49
 150 605 150 605 238 652 c 0,50,51
 312 690 312 690 394 690 c 0,30,31
502 158 m 1,52,-1
 362 333 l 1,53,-1
 335 333 l 1,54,-1
 335 223 l 2,55,56
 335 195 335 195 344 187 c 0,57,58
 354 178 354 178 388 176 c 1,59,-1
 388 158 l 1,60,-1
 214 158 l 1,61,-1
 214 176 l 1,62,63
 248 178 248 178 257.5 186.5 c 128,-1,64
 267 195 267 195 267 223 c 2,65,-1
 267 479 l 2,66,67
 267 507 267 507 258 515 c 0,68,69
 248 524 248 524 214 526 c 1,70,-1
 214 544 l 1,71,-1
 371 544 l 2,72,73
 444 544 444 544 477 529 c 0,74,75
 536 503 536 503 536 440 c 0,76,77
 536 401 536 401 509 374.5 c 128,-1,78
 482 348 482 348 434 341 c 1,79,-1
 539 214 l 2,80,81
 557 193 557 193 569.5 185.5 c 128,-1,82
 582 178 582 178 601 176 c 1,83,-1
 601 158 l 1,84,-1
 502 158 l 1,52,-1
EndSplineSet
EndChar

StartChar: quotedblright
Encoding: 8221 8221 200
Width: 790
Flags: W
LayerCount: 2
Fore
SplineSet
558 403 m 1,0,-1
 536 403 l 1,1,2
 525 447 525 447 500 473 c 0,3,4
 465 508 465 508 411 508 c 256,5,6
 357 508 357 508 325 477 c 0,7,8
 276 430 276 430 276 339 c 0,9,10
 276 263 276 263 313 217 c 256,11,12
 350 171 350 171 415 171 c 0,13,14
 455 171 455 171 485 184 c 128,-1,15
 515 197 515 197 551 230 c 1,16,-1
 566 213 l 1,17,18
 497 138 497 138 404 138 c 0,19,20
 318 138 318 138 263 186 c 0,21,22
 200 241 200 241 200 335 c 0,23,24
 200 434 200 434 269 492 c 0,25,26
 325 539 325 539 406 539 c 0,27,28
 450 539 450 539 491 523 c 0,29,30
 503 519 503 519 511 519 c 256,31,32
 519 519 519 519 523 522 c 128,-1,33
 527 525 527 525 533 539 c 1,34,-1
 553 539 l 1,35,-1
 558 403 l 1,0,-1
395 690 m 0,36,37
 538 690 538 690 640 587 c 0,38,39
 741 485 741 485 741 334 c 0,40,41
 741 239 741 239 690 155 c 0,42,43
 639 70 639 70 553 25 c 0,44,45
 479 -13 479 -13 396 -13 c 0,46,47
 298 -13 298 -13 216 39 c 0,48,49
 133 91 133 91 89 179 c 0,50,51
 51 254 51 254 51 338 c 0,52,53
 51 437 51 437 102 522 c 0,54,55
 151 605 151 605 239 652 c 0,56,57
 313 690 313 690 395 690 c 0,36,37
395 645 m 256,58,59
 275 645 275 645 188 555 c 0,60,61
 147 512 147 512 125 456 c 0,62,63
 102 399 102 399 102 338 c 0,64,65
 102 212 102 212 188 122 c 256,66,67
 274 32 274 32 396 32 c 256,68,69
 518 32 518 32 604 122 c 0,70,71
 645 165 645 165 667 221 c 0,72,73
 690 277 690 277 690 335 c 0,74,75
 690 468 690 468 604 555 c 0,76,77
 515 645 515 645 395 645 c 256,58,59
EndSplineSet
EndChar

StartChar: quotedblbase
Encoding: 8222 8222 201
Width: 790
Flags: W
LayerCount: 2
Fore
SplineSet
577 296 m 1,0,1
 572 235 572 235 536 192 c 0,2,3
 485 131 485 131 397 131 c 0,4,5
 304 131 304 131 250 198 c 0,6,7
 206 252 206 252 206 335 c 0,8,9
 206 423 206 423 258 480 c 0,10,11
 312 539 312 539 400 539 c 0,12,13
 468 539 468 539 517 500 c 128,-1,14
 566 461 566 461 571 402 c 1,15,-1
 522 402 l 1,16,17
 513 446 513 446 480 471 c 128,-1,18
 447 496 447 496 398 496 c 0,19,20
 335 496 335 496 296 451.5 c 128,-1,21
 257 407 257 407 257 335 c 0,22,23
 257 270 257 270 288 229 c 0,24,25
 327 174 327 174 397 174 c 0,26,27
 452 174 452 174 486 206 c 128,-1,28
 520 238 520 238 527 296 c 1,29,-1
 577 296 l 1,0,1
399 679 m 0,30,31
 492 679 492 679 574 628 c 0,32,33
 657 577 657 577 701 490 c 0,34,35
 739 416 739 416 739 333 c 0,36,37
 739 236 739 236 688 153 c 256,38,39
 637 70 637 70 551 26 c 0,40,41
 477 -12 477 -12 394 -12 c 0,42,43
 298 -12 298 -12 215 38 c 0,44,45
 132 89 132 89 87 176 c 0,46,47
 49 251 49 251 49 333 c 0,48,49
 49 430 49 430 100 514 c 0,50,51
 150 596 150 596 238 641 c 0,52,53
 312 679 312 679 399 679 c 0,30,31
398 641 m 0,54,55
 270 641 270 641 180 551 c 0,56,57
 138 508 138 508 114 451 c 0,58,59
 91 394 91 394 91 333 c 0,60,61
 91 247 91 247 136 172 c 0,62,63
 181 98 181 98 257 59 c 0,64,65
 322 26 322 26 394 26 c 0,66,67
 520 26 520 26 608 116 c 0,68,69
 651 159 651 159 674 216 c 0,70,71
 697 272 697 272 697 333 c 0,72,73
 697 420 697 420 652 494 c 0,74,75
 609 567 609 567 532 607 c 0,76,77
 468 641 468 641 398 641 c 0,54,55
EndSplineSet
EndChar

StartChar: dagger
Encoding: 8224 8224 202
Width: 750
Flags: W
LayerCount: 2
Fore
SplineSet
47 361 m 1,0,-1
 70 417 l 1,1,-1
 150 417 l 1,2,3
 171 494 171 494 220 552 c 0,4,5
 269 609 269 609 337 640 c 0,6,7
 403 670 403 670 477 670 c 0,8,9
 612 670 612 670 716 570 c 1,10,-1
 692 513 l 1,11,12
 604 614 604 614 476 614 c 0,13,14
 384 614 384 614 310 559.5 c 128,-1,15
 236 505 236 505 209 417 c 1,16,-1
 577 418 l 1,17,-1
 652 417 l 1,18,-1
 628 361 l 1,19,-1
 197 361 l 1,20,21
 195 345 195 345 195 334 c 0,22,23
 195 322 195 322 197 306 c 1,24,-1
 605 306 l 1,25,-1
 582 249 l 1,26,-1
 209 249 l 1,27,28
 222 205 222 205 254 163 c 0,29,30
 290 116 290 116 343 87 c 0,31,32
 405 53 405 53 476 53 c 0,33,34
 605 53 605 53 692 154 c 1,35,-1
 692 74 l 1,36,37
 593 -4 593 -4 477 -4 c 256,38,39
 361 -4 361 -4 271 65.5 c 128,-1,40
 181 135 181 135 150 249 c 1,41,-1
 48 249 l 1,42,-1
 71 306 l 1,43,-1
 140 306 l 1,44,45
 139 324 139 324 139 334 c 256,46,47
 139 344 139 344 140 361 c 1,48,-1
 47 361 l 1,0,-1
EndSplineSet
EndChar

StartChar: daggerdbl
Encoding: 8225 8225 203
Width: 494
Flags: W
LayerCount: 2
Fore
SplineSet
209 0 m 1,0,-1
 18 376 l 1,1,-1
 214 740 l 1,2,-1
 277 740 l 1,3,-1
 466 374 l 1,4,-1
 269 -1 l 1,5,-1
 209 0 l 1,0,-1
240 58 m 1,6,-1
 402 373 l 1,7,-1
 245 683 l 1,8,-1
 81 376 l 1,9,-1
 240 58 l 1,6,-1
EndSplineSet
EndChar

StartChar: bullet
Encoding: 8226 8226 204
Width: 713
Flags: W
LayerCount: 2
Fore
SplineSet
357 303 m 1,0,1
 441 414 441 414 543 414 c 0,2,3
 613 414 613 414 654 367 c 0,4,5
 688 328 688 328 688 266 c 0,6,7
 688 202 688 202 652 160 c 0,8,9
 614 115 614 115 549 115 c 0,10,11
 501 115 501 115 451 144.5 c 128,-1,12
 401 174 401 174 357 227 c 1,13,14
 335 201 335 201 327 192 c 0,15,16
 256 115 256 115 167 115 c 0,17,18
 104 115 104 115 63 159 c 0,19,20
 26 198 26 198 26 263 c 0,21,22
 26 335 26 335 72 376 c 0,23,24
 114 414 114 414 171 414 c 0,25,26
 269 414 269 414 357 303 c 1,0,1
391 264 m 1,27,28
 421 232 421 232 440 214 c 0,29,30
 491 167 491 167 549 167 c 0,31,32
 598 167 598 167 621 203 c 0,33,34
 638 229 638 229 638 264 c 0,35,36
 638 312 638 312 608 339 c 0,37,38
 582 362 582 362 547 362 c 0,39,40
 507 362 507 362 465 336 c 128,-1,41
 423 310 423 310 391 264 c 1,27,28
324 266 m 1,42,43
 274 320 274 320 239.5 341 c 128,-1,44
 205 362 205 362 167 362 c 0,45,46
 126 362 126 362 101 335.5 c 128,-1,47
 76 309 76 309 76 266 c 0,48,49
 76 211 76 211 109 186 c 0,50,51
 133 167 133 167 163 167 c 0,52,53
 228 167 228 167 297 235 c 0,54,55
 312 250 312 250 324 266 c 1,42,43
EndSplineSet
EndChar

StartChar: ellipsis
Encoding: 8230 8230 205
Width: 713
Flags: W
LayerCount: 2
Fore
SplineSet
20 0 m 1,0,-1
 20 56 l 1,1,-1
 328 56 l 2,2,3
 384 57 384 57 420.5 58.5 c 128,-1,4
 457 60 457 60 475 63 c 0,5,6
 510 69 510 69 537.5 85 c 128,-1,7
 565 101 565 101 584 127 c 0,8,9
 601 150 601 150 609.5 177 c 128,-1,10
 618 204 618 204 618 235 c 0,11,12
 617 286 617 286 597.5 323.5 c 128,-1,13
 578 361 578 361 538 386 c 0,14,15
 519 398 519 398 493 405 c 128,-1,16
 467 412 467 412 433 413 c 2,17,-1
 412 413 l 2,18,19
 403 414 403 414 20 414 c 1,20,-1
 20 470 l 1,21,-1
 326 470 l 2,22,23
 388 469 388 469 428.5 467.5 c 128,-1,24
 469 466 469 466 488 463 c 0,25,26
 532 456 532 456 567.5 433.5 c 128,-1,27
 603 411 603 411 629 373 c 0,28,29
 652 342 652 342 662.5 307.5 c 128,-1,30
 673 273 673 273 673 235 c 0,31,32
 672 204 672 204 665 175.5 c 128,-1,33
 658 147 658 147 644 120 c 0,34,35
 629 93 629 93 609.5 72 c 128,-1,36
 590 51 590 51 564 34 c 0,37,38
 542 19 542 19 512 11.5 c 128,-1,39
 482 4 482 4 444 2 c 0,40,41
 431 1 431 1 415.5 0.5 c 128,-1,42
 400 0 400 0 383 0 c 2,43,-1
 20 0 l 1,0,-1
EndSplineSet
EndChar

StartChar: perthousand
Encoding: 8240 8240 206
Width: 786
Flags: W
LayerCount: 2
Fore
SplineSet
537 277 m 1,0,-1
 504 277 l 1,1,-1
 376 623 l 1,2,-1
 376 277 l 1,3,-1
 320 277 l 1,4,-1
 320 673 l 1,5,-1
 410 673 l 1,6,-1
 521 382 l 1,7,-1
 636 673 l 1,8,-1
 725 673 l 1,9,-1
 725 277 l 1,10,-1
 670 277 l 1,11,-1
 670 623 l 1,12,-1
 537 277 l 1,0,-1
180 623 m 1,13,-1
 180 277 l 1,14,-1
 117 277 l 1,15,-1
 117 623 l 1,16,-1
 5 623 l 1,17,-1
 5 673 l 1,18,-1
 290 673 l 1,19,-1
 290 623 l 1,20,-1
 180 623 l 1,13,-1
EndSplineSet
EndChar

StartChar: guilsinglleft
Encoding: 8249 8249 207
Width: 987
Flags: W
LayerCount: 2
Fore
SplineSet
117 243 m 1,0,1
 137 226 137 226 157 206 c 0,2,3
 188 174 188 174 197 166 c 1,4,-1
 939 166 l 1,5,-1
 939 111 l 1,6,-1
 244 111 l 1,7,8
 253 102 253 102 322 15 c 1,9,-1
 279 -19 l 1,10,11
 148 143 148 143 30 243 c 1,12,13
 87 292 87 292 159.5 368 c 128,-1,14
 232 444 232 444 279 506 c 1,15,-1
 322 472 l 1,16,17
 314 462 314 462 286 425 c 0,18,19
 269 405 269 405 244 375 c 1,20,-1
 939 375 l 1,21,-1
 939 321 l 1,22,-1
 197 321 l 1,23,-1
 191 315 l 2,24,25
 136 259 136 259 117 243 c 1,0,1
EndSplineSet
EndChar

StartChar: guilsinglright
Encoding: 8250 8250 208
Width: 603
Flags: W
LayerCount: 2
Fore
SplineSet
303 822 m 1,0,-1
 226 742 l 1,1,-1
 226 0 l 1,2,-1
 171 0 l 1,3,-1
 171 695 l 1,4,5
 159 684 159 684 73 616 c 1,6,-1
 39 659 l 1,7,-1
 48 667 l 1,8,9
 190 778 190 778 303 909 c 1,10,11
 353 850 353 850 427.5 779.5 c 128,-1,12
 502 709 502 709 567 659 c 1,13,-1
 533 616 l 1,14,15
 522 624 522 624 485 653 c 0,16,17
 464 669 464 669 435 695 c 1,18,-1
 435 0 l 1,19,-1
 380 0 l 1,20,-1
 380 742 l 1,21,-1
 374 748 l 2,22,23
 319 803 319 803 303 822 c 1,0,-1
EndSplineSet
EndChar

StartChar: fraction
Encoding: 8260 8260 209
Width: 603
Flags: W
LayerCount: 2
Fore
SplineSet
303 -1 m 1,0,-1
 30 443 l 1,1,-1
 76 475 l 1,2,-1
 304 106 l 1,3,-1
 532 476 l 1,4,-1
 578 446 l 1,5,-1
 303 -1 l 1,0,-1
EndSplineSet
EndChar

StartChar: Euro
Encoding: 8364 8364 210
Width: 1042
Flags: W
LayerCount: 2
Fore
SplineSet
241 375 m 1,0,-1
 809 375 l 1,1,2
 796 390 796 390 731 472 c 1,3,-1
 774 506 l 1,4,5
 904 346 904 346 1023 243 c 1,6,7
 903 141 903 141 774 -19 c 1,8,-1
 731 15 l 1,9,10
 739 25 739 25 767 62 c 0,11,12
 783 82 783 82 809 111 c 1,13,-1
 241 111 l 1,14,15
 249 102 249 102 319 15 c 1,16,-1
 276 -19 l 1,17,18
 147 141 147 141 27 243 c 1,19,20
 146 346 146 346 276 506 c 1,21,-1
 319 472 l 1,22,23
 311 462 311 462 283 425 c 0,24,25
 266 405 266 405 241 375 c 1,0,-1
193 321 m 1,26,27
 186 314 186 314 154 281 c 0,28,29
 134 261 134 261 114 243 c 1,30,31
 139 222 139 222 193 166 c 1,32,-1
 857 166 l 1,33,34
 911 222 911 222 936 243 c 1,35,36
 905 271 905 271 857 321 c 1,37,-1
 193 321 l 1,26,27
EndSplineSet
EndChar

StartChar: trademark
Encoding: 8482 8482 211
Width: 753
GlyphClass: 2
Flags: W
LayerCount: 2
Fore
SplineSet
306 -36 m 1,0,1
 329 -4 329 -4 336.5 20 c 128,-1,2
 344 44 344 44 344 87 c 0,3,4
 344 121 344 121 332 121 c 0,5,6
 327 121 327 121 311 95 c 0,7,8
 281 45 281 45 225 45 c 0,9,10
 177 45 177 45 145 79.5 c 128,-1,11
 113 114 113 114 113 164 c 0,12,13
 113 233 113 233 185 333 c 2,14,-1
 371 591 l 1,15,-1
 557 333 l 2,16,17
 629 233 629 233 629 164 c 0,18,19
 629 114 629 114 597 79.5 c 128,-1,20
 565 45 565 45 517 45 c 0,21,22
 462 45 462 45 431 95 c 0,23,24
 420 114 420 114 417 117.5 c 128,-1,25
 414 121 414 121 410 121 c 0,26,27
 399 121 399 121 399 86 c 0,28,29
 399 44 399 44 406.5 19.5 c 128,-1,30
 414 -5 414 -5 436 -36 c 1,31,-1
 306 -36 l 1,0,1
EndSplineSet
EndChar

StartChar: partialdiff
Encoding: 8706 8706 212
Width: 494
Flags: W
LayerCount: 2
Fore
SplineSet
66 725 m 1,0,1
 142 753 142 753 195 753 c 0,2,3
 289 753 289 753 360 681 c 0,4,5
 462 576 462 576 462 403 c 0,6,7
 462 315 462 315 439.5 225 c 128,-1,8
 417 135 417 135 383 85 c 0,9,10
 319 -10 319 -10 213 -10 c 0,11,12
 139 -10 139 -10 85 43 c 0,13,14
 26 100 26 100 26 184 c 0,15,16
 26 282 26 282 95 356 c 0,17,18
 148 412 148 412 221 412 c 0,19,20
 259 412 259 412 291.5 398 c 128,-1,21
 324 384 324 384 372 346 c 1,22,23
 379 409 379 409 379 447 c 0,24,25
 379 514 379 514 364.5 570 c 128,-1,26
 350 626 350 626 324 658 c 0,27,28
 285 706 285 706 219 706 c 0,29,30
 170 706 170 706 107 674 c 1,31,-1
 66 725 l 1,0,1
366 312 m 1,32,33
 334 343 334 343 311.5 355 c 128,-1,34
 289 367 289 367 261 367 c 0,35,36
 193 367 193 367 150 295 c 0,37,38
 113 234 113 234 113 159 c 0,39,40
 113 105 113 105 131 67 c 0,41,42
 153 21 153 21 201 21 c 0,43,44
 245 21 245 21 283 61 c 0,45,46
 315 95 315 95 333 149.5 c 128,-1,47
 351 204 351 204 366 312 c 1,32,33
EndSplineSet
EndChar

StartChar: product
Encoding: 8719 8719 213
Width: 549
Flags: W
LayerCount: 2
Fore
SplineSet
274 125 m 0,0,1
 299 125 299 125 317 106.5 c 128,-1,2
 335 88 335 88 335 63 c 256,3,4
 335 38 335 38 316.5 19.5 c 128,-1,5
 298 1 298 1 273 1 c 0,6,7
 247 1 247 1 229 19.5 c 128,-1,8
 211 38 211 38 211 64 c 0,9,10
 211 89 211 89 229.5 107 c 128,-1,11
 248 125 248 125 274 125 c 0,0,1
10 294 m 1,12,-1
 536 294 l 1,13,-1
 536 239 l 1,14,-1
 10 239 l 1,15,-1
 10 294 l 1,12,-1
274 525 m 0,16,17
 299 525 299 525 317 506.5 c 128,-1,18
 335 488 335 488 335 463 c 256,19,20
 335 438 335 438 317 419.5 c 128,-1,21
 299 401 299 401 273 401 c 256,22,23
 247 401 247 401 229 419.5 c 128,-1,24
 211 438 211 438 211 464 c 0,25,26
 211 489 211 489 229.5 507 c 128,-1,27
 248 525 248 525 274 525 c 0,16,17
EndSplineSet
EndChar

StartChar: summation
Encoding: 8721 8721 214
Width: 460
Flags: W
LayerCount: 2
Fore
SplineSet
233 518 m 0,0,1
 309 518 309 518 363 459 c 0,2,3
 410 409 410 409 410 337 c 0,4,5
 410 261 410 261 359 209 c 0,6,7
 306 155 306 155 230 155 c 0,8,9
 191 155 191 155 154.5 172 c 128,-1,10
 118 189 118 189 93 218 c 0,11,12
 50 268 50 268 50 338 c 0,13,14
 50 420 50 420 111 472 c 0,15,16
 165 518 165 518 233 518 c 0,0,1
EndSplineSet
EndChar

StartChar: radical
Encoding: 8730 8730 215
Width: 987
Flags: W
LayerCount: 2
Fore
SplineSet
480 558 m 1,0,1
 430 521 430 521 404.5 496 c 128,-1,2
 379 471 379 471 356 436 c 0,3,4
 309 367 309 367 309 290 c 0,5,6
 309 250 309 250 321 207 c 1,7,8
 421 333 421 333 468 376 c 0,9,10
 537 441 537 441 594 469 c 128,-1,11
 651 497 651 497 711 497 c 0,12,13
 784 497 784 497 824 463 c 0,14,15
 870 424 870 424 870 355 c 0,16,17
 870 302 870 302 848 246.5 c 128,-1,18
 826 191 826 191 779 124 c 0,19,20
 735 62 735 62 674 24.5 c 128,-1,21
 613 -13 613 -13 555 -13 c 0,22,23
 492 -13 492 -13 462 27 c 0,24,25
 437 60 437 60 437 105 c 0,26,27
 437 146 437 146 456 175 c 128,-1,28
 475 204 475 204 503 204 c 0,29,30
 520 204 520 204 530.5 193.5 c 128,-1,31
 541 183 541 183 541 165 c 0,32,33
 541 146 541 146 526 132 c 128,-1,34
 511 118 511 118 490 118 c 0,35,36
 484 118 484 118 475 119 c 1,37,38
 470 97 470 97 470 84 c 0,39,40
 470 58 470 58 487.5 40 c 128,-1,41
 505 22 505 22 530 22 c 0,42,43
 621 22 621 22 698 140 c 0,44,45
 733 193 733 193 753 251.5 c 128,-1,46
 773 310 773 310 773 358 c 0,47,48
 773 402 773 402 755 427 c 0,49,50
 731 460 731 460 684 460 c 0,51,52
 615 460 615 460 531 393 c 128,-1,53
 447 326 447 326 333 178 c 1,54,55
 370 91 370 91 382.5 46 c 128,-1,56
 395 1 395 1 395 -43 c 0,57,58
 395 -120 395 -120 363 -165.5 c 128,-1,59
 331 -211 331 -211 276 -211 c 256,60,61
 221 -211 221 -211 189 -170 c 0,62,63
 159 -134 159 -134 159 -86 c 0,64,65
 159 -26 159 -26 192 34 c 0,66,67
 207 62 207 62 255 123 c 1,68,69
 236 166 236 166 229 191 c 128,-1,70
 222 216 222 216 222 245 c 0,71,72
 222 338 222 338 303 436 c 0,73,74
 331 469 331 469 365 497.5 c 128,-1,75
 399 526 399 526 471 574 c 1,76,-1
 480 558 l 1,0,1
269 97 m 1,77,78
 232 46 232 46 217 8 c 0,79,80
 202 -31 202 -31 202 -72 c 0,81,82
 202 -121 202 -121 220.5 -147 c 128,-1,83
 239 -173 239 -173 274 -173 c 0,84,85
 301 -173 301 -173 314 -158 c 0,86,87
 334 -134 334 -134 334 -94 c 0,88,89
 334 -59 334 -59 319 -15 c 128,-1,90
 304 29 304 29 269 97 c 1,77,78
EndSplineSet
EndChar

StartChar: infinity
Encoding: 8734 8734 216
Width: 400
GlyphClass: 2
Flags: W
LayerCount: 2
Fore
SplineSet
50 534 m 0,0,1
 50 597 50 597 94.5 641.5 c 128,-1,2
 139 686 139 686 202 686 c 128,-1,3
 265 686 265 686 307.5 642 c 128,-1,4
 350 598 350 598 350 533 c 0,5,6
 350 469 350 469 306.5 424.5 c 128,-1,7
 263 380 263 380 200 380 c 128,-1,8
 137 380 137 380 93.5 424.5 c 128,-1,9
 50 469 50 469 50 534 c 0,0,1
201 629 m 0,10,11
 162 629 162 629 134 601 c 128,-1,12
 106 573 106 573 106 533 c 0,13,14
 106 494 106 494 133.5 465.5 c 128,-1,15
 161 437 161 437 200 437 c 128,-1,16
 239 437 239 437 266 465 c 128,-1,17
 293 493 293 493 293 533 c 128,-1,18
 293 573 293 573 266 601 c 128,-1,19
 239 629 239 629 201 629 c 0,10,11
EndSplineSet
EndChar

StartChar: integral
Encoding: 8747 8747 217
Width: 549
Flags: W
LayerCount: 2
Fore
SplineSet
538 294 m 1,0,-1
 538 239 l 1,1,-1
 14 239 l 1,2,-1
 14 294 l 1,3,-1
 538 294 l 1,0,-1
538 142 m 1,4,-1
 538 87 l 1,5,-1
 14 87 l 1,6,-1
 14 142 l 1,7,-1
 538 142 l 1,4,-1
538 446 m 1,8,-1
 538 391 l 1,9,-1
 14 391 l 1,10,-1
 14 446 l 1,11,-1
 538 446 l 1,8,-1
EndSplineSet
EndChar

StartChar: approxequal
Encoding: 8776 8776 218
Width: 768
Flags: W
LayerCount: 2
Fore
SplineSet
393 635 m 0,0,1
 271 635 271 635 185 551 c 0,2,3
 99 466 99 466 99 345 c 0,4,5
 99 265 99 265 141 194 c 0,6,7
 184 122 184 122 260 84 c 0,8,9
 321 53 321 53 388 53 c 0,10,11
 507 53 507 53 591 138 c 0,12,13
 677 224 677 224 677 343 c 0,14,15
 677 423 677 423 637 492 c 0,16,17
 596 563 596 563 521 603 c 0,18,19
 460 635 460 635 393 635 c 0,0,1
392 688 m 0,20,21
 483 688 483 688 566 639 c 0,22,23
 653 588 653 588 698 496 c 0,24,25
 733 423 733 423 733 344 c 0,26,27
 733 252 733 252 685 169 c 0,28,29
 638 88 638 88 555 42 c 0,30,31
 477 0 477 0 389 0 c 0,32,33
 295 0 295 0 213 47 c 0,34,35
 125 98 125 98 79 190 c 0,36,37
 43 263 43 263 43 343 c 0,38,39
 43 444 43 444 96 529 c 0,40,41
 146 608 146 608 233 652 c 0,42,43
 306 688 306 688 392 688 c 0,20,21
360 585 m 1,44,-1
 416 585 l 1,45,-1
 416 372 l 1,46,-1
 624 372 l 1,47,-1
 624 317 l 1,48,-1
 416 317 l 1,49,-1
 416 103 l 1,50,-1
 360 103 l 1,51,-1
 360 317 l 1,52,-1
 152 317 l 1,53,-1
 152 372 l 1,54,-1
 360 372 l 1,55,-1
 360 585 l 1,44,-1
EndSplineSet
EndChar

StartChar: notequal
Encoding: 8800 8800 219
Width: 603
Flags: W
LayerCount: 2
Fore
SplineSet
308 910 m 1,0,1
 393 810 393 810 571 659 c 1,2,-1
 533 621 l 1,3,4
 460 677 460 677 353 774 c 2,5,-1
 336 790 l 1,6,-1
 336 0 l 1,7,-1
 280 0 l 1,8,-1
 280 790 l 1,9,-1
 262 774 l 2,10,11
 156 677 156 677 83 621 c 1,12,-1
 45 659 l 1,13,14
 230 818 230 818 308 910 c 1,0,1
EndSplineSet
EndChar

StartChar: lessequal
Encoding: 8804 8804 220
Width: 411
Flags: W
LayerCount: 2
Fore
SplineSet
20 486 m 1,0,-1
 122 696 l 2,1,2
 141 735 141 735 165 735 c 0,3,4
 187 735 187 735 204 721 c 128,-1,5
 221 707 221 707 221 689 c 256,6,7
 221 671 221 671 201 649 c 2,8,-1
 35 476 l 1,9,-1
 20 486 l 1,0,-1
212 486 m 1,10,-1
 314 696 l 2,11,12
 333 735 333 735 357 735 c 0,13,14
 379 735 379 735 396 721 c 128,-1,15
 413 707 413 707 413 689 c 256,16,17
 413 671 413 671 393 649 c 2,18,-1
 227 476 l 1,19,-1
 212 486 l 1,10,-1
EndSplineSet
EndChar

StartChar: greaterequal
Encoding: 8805 8805 221
Width: 549
Flags: W
LayerCount: 2
Fore
SplineSet
526 55 m 1,0,-1
 526 0 l 1,1,-1
 29 0 l 1,2,-1
 29 55 l 1,3,-1
 526 55 l 1,0,-1
29 639 m 1,4,-1
 526 405 l 1,5,-1
 526 350 l 1,6,-1
 29 117 l 1,7,-1
 29 179 l 1,8,-1
 447 378 l 1,9,-1
 29 577 l 1,10,-1
 29 639 l 1,4,-1
EndSplineSet
EndChar

StartChar: uni25C6
Encoding: 9670 9670 222
Width: 250
Flags: W
LayerCount: 2
Fore
SplineSet
125 384 m 256,0,1
 146 384 146 384 161 369 c 128,-1,2
 176 354 176 354 176 333 c 256,3,4
 176 312 176 312 161 297 c 128,-1,5
 146 282 146 282 125 282 c 256,6,7
 104 282 104 282 89 297 c 128,-1,8
 74 312 74 312 74 333 c 256,9,10
 74 354 74 354 89 369 c 128,-1,11
 104 384 104 384 125 384 c 256,0,1
EndSplineSet
EndChar

StartChar: uniF8FF
Encoding: 63743 63743 223
Width: 250
Flags: W
LayerCount: 2
Fore
SplineSet
120 312 m 0,0,1
 140 312 140 312 154.5 296.5 c 128,-1,2
 169 281 169 281 169 260 c 256,3,4
 169 239 169 239 154.5 224 c 128,-1,5
 140 209 140 209 119 209 c 256,6,7
 98 209 98 209 83.5 224 c 128,-1,8
 69 239 69 239 69 261 c 0,9,10
 69 282 69 282 84 297 c 128,-1,11
 99 312 99 312 120 312 c 0,0,1
EndSplineSet
EndChar

StartChar: glyph226
Encoding: 65537 -1 224
Width: 250
Flags: W
LayerCount: 2
Fore
SplineSet
125 384 m 256,0,1
 146 384 146 384 161 369 c 128,-1,2
 176 354 176 354 176 333 c 256,3,4
 176 312 176 312 161 297 c 128,-1,5
 146 282 146 282 125 282 c 256,6,7
 104 282 104 282 89 297 c 128,-1,8
 74 312 74 312 74 333 c 256,9,10
 74 354 74 354 89 369 c 128,-1,11
 104 384 104 384 125 384 c 256,0,1
EndSplineSet
EndChar
